{
    "accessors" : [
        {
            "bufferView" : 0,
            "componentType" : 5123,
            "count" : 75504,
            "max" : [
                14089
            ],
            "min" : [
                0
            ],
            "type" : "SCALAR"
        },
        {
            "bufferView" : 1,
            "componentType" : 5126,
            "count" : 14090,
            "max" : [
                1.022294044494629,
                1.1305934190750122,
                1.0200679302215576
            ],
            "min" : [
                -1.0192152261734009,
                -0.9982722997665405,
                -1.0191795825958252
            ],
            "type" : "VEC3"
        },
        {
            "bufferView" : 2,
            "componentType" : 5126,
            "count" : 14090,
            "max" : [
                1.0,
                1.0,
                1.0
            ],
            "min" : [
                -1.0,
                -1.0,
                -1.0
            ],
            "type" : "VEC3"
        },
        {
            "bufferView" : 3,
            "componentType" : 5126,
            "count" : 14090,
            "max" : [
                1.0,
                0.9999998211860657,
                1.0,
                1.0
            ],
            "min" : [
                -1.0,
                -0.9999973773956299,
                -0.9999998807907104,
                1.0
            ],
            "type" : "VEC4"
        },
        {
            "bufferView" : 4,
            "componentType" : 5126,
            "count" : 14090,
            "max" : [
                0.9908521771430969,
                0.8733658194541931
            ],
            "min" : [
                -0.005789309740066528,
                -0.0060880184173583984
            ],
            "type" : "VEC2"
        },
        {
            "bufferView" : 5,
            "componentType" : 5123,
            "count" : 1872,
            "max" : [
                1151
            ],
            "min" : [
                0
            ],
            "type" : "SCALAR"
        },
        {
            "bufferView" : 6,
            "componentType" : 5126,
            "count" : 1152,
            "max" : [
                31.0,
                1.2133817672729492,
                31.128480911254883
            ],
            "min" : [
                -31.0,
                -1.9597625732421875,
                -31.12845802307129
            ],
            "type" : "VEC3"
        },
        {
            "bufferView" : 7,
            "componentType" : 5126,
            "count" : 1152,
            "max" : [
                0.9740840196609497,
                1.0,
                0.9740840196609497
            ],
            "min" : [
                -0.9740840196609497,
                -1.0,
                -0.9740840196609497
            ],
            "type" : "VEC3"
        },
        {
            "bufferView" : 8,
            "componentType" : 5123,
            "count" : 2916,
            "max" : [
                1929
            ],
            "min" : [
                0
            ],
            "type" : "SCALAR"
        },
        {
            "bufferView" : 9,
            "componentType" : 5126,
            "count" : 1930,
            "max" : [
                1.000000238418579,
                0.4666154086589813,
                1.0000003576278687
            ],
            "min" : [
                -1.000000238418579,
                -1.0,
                -1.0000003576278687
            ],
            "type" : "VEC3"
        },
        {
            "bufferView" : 10,
            "componentType" : 5126,
            "count" : 1930,
            "max" : [
                1.0,
                1.0,
                1.0
            ],
            "min" : [
                -1.0,
                -1.0,
                -1.0
            ],
            "type" : "VEC3"
        },
        {
            "bufferView" : 11,
            "componentType" : 5126,
            "count" : 1930,
            "max" : [
                1.0,
                0.009607328101992607,
                0.7941480278968811,
                1.0
            ],
            "min" : [
                -1.0,
                -0.012162329629063606,
                -1.0,
                1.0
            ],
            "type" : "VEC4"
        },
        {
            "bufferView" : 12,
            "componentType" : 5126,
            "count" : 1930,
            "max" : [
                0.8097859025001526,
                0.999800785764819
            ],
            "min" : [
                0.0001992142351809889,
                0.00019919872283935547
            ],
            "type" : "VEC2"
        },
        {
            "bufferView" : 13,
            "componentType" : 5126,
            "count" : 1930,
            "max" : [
                1.0,
                1.0,
                1.0,
                1.0
            ],
            "min" : [
                1.0,
                1.0,
                1.0,
                1.0
            ],
            "type" : "VEC4"
        }
    ],
    "asset" : {
        "generator" : "Khronos Blender glTF 2.0 exporter",
        "version" : "2.0"
    },
    "bufferViews" : [
        {
            "buffer" : 0,
            "byteLength" : 151008,
            "byteOffset" : 0,
            "target" : 34963
        },
        {
            "buffer" : 0,
            "byteLength" : 169080,
            "byteOffset" : 151008,
            "target" : 34962
        },
        {
            "buffer" : 0,
            "byteLength" : 169080,
            "byteOffset" : 320088,
            "target" : 34962
        },
        {
            "buffer" : 0,
            "byteLength" : 225440,
            "byteOffset" : 489168,
            "target" : 34962
        },
        {
            "buffer" : 0,
            "byteLength" : 112720,
            "byteOffset" : 714608,
            "target" : 34962
        },
        {
            "buffer" : 0,
            "byteLength" : 3744,
            "byteOffset" : 827328,
            "target" : 34963
        },
        {
            "buffer" : 0,
            "byteLength" : 13824,
            "byteOffset" : 831072,
            "target" : 34962
        },
        {
            "buffer" : 0,
            "byteLength" : 13824,
            "byteOffset" : 844896,
            "target" : 34962
        },
        {
            "buffer" : 0,
            "byteLength" : 5832,
            "byteOffset" : 858720,
            "target" : 34963
        },
        {
            "buffer" : 0,
            "byteLength" : 23160,
            "byteOffset" : 864552,
            "target" : 34962
        },
        {
            "buffer" : 0,
            "byteLength" : 23160,
            "byteOffset" : 887712,
            "target" : 34962
        },
        {
            "buffer" : 0,
            "byteLength" : 30880,
            "byteOffset" : 910872,
            "target" : 34962
        },
        {
            "buffer" : 0,
            "byteLength" : 15440,
            "byteOffset" : 941752,
            "target" : 34962
        },
        {
            "buffer" : 0,
            "byteLength" : 30880,
            "byteOffset" : 957192,
            "target" : 34962
        }
    ],
    "buffers" : [
        {
            "byteLength" : 988072,
            "uri" : "tabureteTrendyMorado.bin"
        }
    ],
    "images" : [
        {
            "name" : "plain-fabric-texture-red",
            "uri" : "plain-fabric-texture-red.jpg"
        }
    ],
    "materials" : [
        {
            "alphaMode" : "BLEND",
            "name" : "cojinBotones",
            "pbrMetallicRoughness" : {
                "baseColorTexture" : {
                    "index" : 0
                },
                "metallicFactor" : 0.0
            }
        },
        {
            "name" : "patas",
            "pbrMetallicRoughness" : {
                "baseColorFactor" : [
                    0.6400000190734865,
                    0.6400000190734865,
                    0.6400000190734865,
                    1.0
                ],
                "metallicFactor" : 0.0
            }
        }
    ],
    "meshes" : [
        {
            "name" : "Cube.002",
            "primitives" : [
                {
                    "attributes" : {
                        "NORMAL" : 2,
                        "POSITION" : 1,
                        "TANGENT" : 3,
                        "TEXCOORD_0" : 4
                    },
                    "indices" : 0,
                    "material" : 0
                }
            ]
        },
        {
            "name" : "Cylinder.001",
            "primitives" : [
                {
                    "attributes" : {
                        "NORMAL" : 7,
                        "POSITION" : 6
                    },
                    "indices" : 5,
                    "material" : 1
                }
            ]
        },
        {
            "name" : "Cube",
            "primitives" : [
                {
                    "attributes" : {
                        "COLOR_0" : 13,
                        "NORMAL" : 10,
                        "POSITION" : 9,
                        "TANGENT" : 11,
                        "TEXCOORD_0" : 12
                    },
                    "indices" : 8
                }
            ]
        }
    ],
    "nodes" : [
        {
            "mesh" : 2,
            "name" : "base",
            "scale" : [
                4.699997425079346,
                2.827296018600464,
                4.699997425079346
            ],
            "translation" : [
                0.001352727529592812,
                0.32926642894744873,
                -0.015100032091140747
            ]
        },
        {
            "name" : "Camera",
            "rotation" : [
                0.483536034822464,
                0.33687159419059753,
                -0.20870360732078552,
                0.7804827094078064
            ],
            "translation" : [
                15.951600074768066,
                5.34366512298584,
                6.5076398849487305
            ]
        },
        {
            "mesh" : 0,
            "name" : "cojinBotones",
            "scale" : [
                4.771524906158447,
                0.8172237873077393,
                4.769515514373779
            ],
            "translation" : [
                0.001352727529592812,
                2.430204391479492,
                -0.015100032091140747
            ]
        },
        {
            "name" : "Hemi",
            "rotation" : [
                0.3434135615825653,
                -0.016887355595827103,
                -0.025529494509100914,
                0.9386853575706482
            ],
            "scale" : [
                1.0,
                0.9999999403953552,
                1.0
            ],
            "translation" : [
                -0.009636243805289268,
                2.42930006980896,
                1.9689693450927734
            ]
        },
        {
            "mesh" : 1,
            "name" : "patas",
            "scale" : [
                0.14494650065898895,
                0.17027929425239563,
                0.14494650065898895
            ],
            "translation" : [
                -0.003156363731250167,
                -2.6473538875579834,
                0.03523340821266174
            ]
        }
    ],
    "samplers" : [
        {}
    ],
    "scene" : 0,
    "scenes" : [
        {
            "name" : "Scene",
            "nodes" : [
                4,
                3,
                0,
                1,
                2
            ]
        }
    ],
    "textures" : [
        {
            "sampler" : 0,
            "source" : 0
        }
    ]
}
