{
    "asset" : {
        "generator" : "Khronos Blender glTF 2.0 I/O",
        "version" : "2.0"
    },
    "scene" : 0,
    "scenes" : [
        {
            "name" : "Scene",
            "nodes" : [
                1
            ]
        }
    ],
    "nodes" : [
        {
            "mesh" : 0,
            "name" : "main",
            "rotation" : [
                0.7071068286895752,
                0,
                0,
                0.7071067094802856
            ]
        },
        {
            "children" : [
                0
            ],
            "name" : "centro",
            "scale" : [
                5,
                5,
                5
            ]
        }
    ],
    "materials" : [
        {
            "name" : "base",
            "pbrMetallicRoughness" : {
                "baseColorTexture" : {
                    "index" : 0,
                    "texCoord" : 0
                },
                "metallicFactor" : 0,
                "roughnessFactor" : 1
            }
        }
    ],
    "meshes" : [
        {
            "name" : "Cube.009",
            "primitives" : [
                {
                    "attributes" : {
                        "POSITION" : 0,
                        "NORMAL" : 1,
                        "TEXCOORD_0" : 2
                    },
                    "indices" : 3,
                    "material" : 0
                }
            ]
        }
    ],
    "textures" : [
        {
            "source" : 0
        }
    ],
    "images" : [
        {
            "mimeType" : "image/png",
            "name" : "GAMUZA ROYAL BLUE.jpg",
            "uri" : "GAMUZA ROYAL BLUE.png"
        }
    ],
    "accessors" : [
        {
            "bufferView" : 0,
            "componentType" : 5126,
            "count" : 5710,
            "max" : [
                1.157668948173523,
                1.1597938537597656,
                1.093788504600525
            ],
            "min" : [
                -1.1423310041427612,
                -1.1402060985565186,
                -1.206211805343628
            ],
            "type" : "VEC3"
        },
        {
            "bufferView" : 1,
            "componentType" : 5126,
            "count" : 5710,
            "type" : "VEC3"
        },
        {
            "bufferView" : 2,
            "componentType" : 5126,
            "count" : 5710,
            "type" : "VEC2"
        },
        {
            "bufferView" : 3,
            "componentType" : 5123,
            "count" : 32064,
            "type" : "SCALAR"
        }
    ],
    "bufferViews" : [
        {
            "buffer" : 0,
            "byteLength" : 68520,
            "byteOffset" : 0
        },
        {
            "buffer" : 0,
            "byteLength" : 68520,
            "byteOffset" : 68520
        },
        {
            "buffer" : 0,
            "byteLength" : 45680,
            "byteOffset" : 137040
        },
        {
            "buffer" : 0,
            "byteLength" : 64128,
            "byteOffset" : 182720
        }
    ],
    "buffers" : [
        {
            "byteLength" : 246848,
            "uri" : "atlixco.bin"
        }
    ]
}
