{
    "asset" : {
        "generator" : "Khronos Blender glTF 2.0 I/O",
        "version" : "2.0"
    },
    "scene" : 0,
    "scenes" : [
        {
            "name" : "Scene",
            "nodes" : [
                0
            ]
        }
    ],
    "nodes" : [
        {
            "mesh" : 0,
            "name" : "Cube.012"
        }
    ],
    "materials" : [
        {
            "name" : "Material.004",
            "pbrMetallicRoughness" : {}
        }
    ],
    "meshes" : [
        {
            "name" : "Cube.009",
            "primitives" : [
                {
                    "attributes" : {
                        "POSITION" : 0,
                        "NORMAL" : 1
                    },
                    "indices" : 2,
                    "material" : 0
                }
            ]
        }
    ],
    "accessors" : [
        {
            "bufferView" : 0,
            "componentType" : 5126,
            "count" : 5346,
            "max" : [
                2.894172191619873,
                3.015529155731201,
                2.899484634399414
            ],
            "min" : [
                -2.8558270931243896,
                -2.734471082687378,
                -2.850515127182007
            ],
            "type" : "VEC3"
        },
        {
            "bufferView" : 1,
            "componentType" : 5126,
            "count" : 5346,
            "type" : "VEC3"
        },
        {
            "bufferView" : 2,
            "componentType" : 5123,
            "count" : 32064,
            "type" : "SCALAR"
        }
    ],
    "bufferViews" : [
        {
            "buffer" : 0,
            "byteLength" : 64152,
            "byteOffset" : 0
        },
        {
            "buffer" : 0,
            "byteLength" : 64152,
            "byteOffset" : 64152
        },
        {
            "buffer" : 0,
            "byteLength" : 64128,
            "byteOffset" : 128304
        }
    ],
    "buffers" : [
        {
            "byteLength" : 192432,
            "uri" : "atlixco.bin"
        }
    ]
}
