{
    "asset" : {
        "generator" : "Khronos Blender glTF 2.0 I/O",
        "version" : "2.0"
    },
    "scene" : 0,
    "scenes" : [
        {
            "name" : "Scene",
            "nodes" : [
                0
            ]
        }
    ],
    "nodes" : [
        {
            "mesh" : 0,
            "name" : "Cube.013",
            "scale" : [
                5,
                5,
                5
            ]
        }
    ],
    "materials" : [
        {
            "name" : "Material",
            "pbrMetallicRoughness" : {
                "baseColorTexture" : {
                    "index" : 0,
                    "texCoord" : 0
                },
                "metallicFactor" : 0,
                "roughnessFactor" : 0.785714328289032
            }
        }
    ],
    "meshes" : [
        {
            "name" : "Cube.010",
            "primitives" : [
                {
                    "attributes" : {
                        "POSITION" : 0,
                        "NORMAL" : 1
                    },
                    "indices" : 2,
                    "material" : 0
                }
            ]
        }
    ],
    "textures" : [
        {
            "source" : 0
        }
    ],
    "images" : [
        {
            "mimeType" : "image/jpeg",
            "name" : "LONA NARANJA.jpg",
            "uri" : "LONA NARANJA.jpg"
        }
    ],
    "accessors" : [
        {
            "bufferView" : 0,
            "componentType" : 5126,
            "count" : 5346,
            "max" : [
                1.2480274438858032,
                1.2962548732757568,
                1.2106002569198608
            ],
            "min" : [
                -1.231492280960083,
                -1.1754392385482788,
                -1.1901544332504272
            ],
            "type" : "VEC3"
        },
        {
            "bufferView" : 1,
            "componentType" : 5126,
            "count" : 5346,
            "type" : "VEC3"
        },
        {
            "bufferView" : 2,
            "componentType" : 5123,
            "count" : 32064,
            "type" : "SCALAR"
        }
    ],
    "bufferViews" : [
        {
            "buffer" : 0,
            "byteLength" : 64152,
            "byteOffset" : 0
        },
        {
            "buffer" : 0,
            "byteLength" : 64152,
            "byteOffset" : 64152
        },
        {
            "buffer" : 0,
            "byteLength" : 64128,
            "byteOffset" : 128304
        }
    ],
    "buffers" : [
        {
            "byteLength" : 192432,
            "uri" : "atlixcoChico_v2blend.bin"
        }
    ]
}
