{
    "asset" : {
        "generator" : "Khronos Blender glTF 2.0 I/O",
        "version" : "2.0"
    },
    "scene" : 0,
    "scenes" : [
        {
            "name" : "Scene",
            "nodes" : [
                0
            ]
        }
    ],
    "nodes" : [
        {
            "mesh" : 0,
            "name" : "Cube.013",
            "scale" : [
                0.16132156550884247,
                0.16183233261108398,
                0.16661427915096283
            ],
            "translation" : [
                -0.000929713249206543,
                0.19436022639274597,
                0.0029735565185546875
            ]
        }
    ],
    "materials" : [
        {
            "name" : "Material.081",
            "pbrMetallicRoughness" : {}
        }
    ],
    "meshes" : [
        {
            "name" : "Cube.010",
            "primitives" : [
                {
                    "attributes" : {
                        "POSITION" : 0,
                        "NORMAL" : 1
                    },
                    "indices" : 2,
                    "material" : 0
                }
            ]
        }
    ],
    "accessors" : [
        {
            "bufferView" : 0,
            "componentType" : 5126,
            "count" : 334,
            "max" : [
                1.2480274438858032,
                1.2962548732757568,
                1.2106002569198608
            ],
            "min" : [
                -1.231492280960083,
                -1.1904182434082031,
                -1.1901544332504272
            ],
            "type" : "VEC3"
        },
        {
            "bufferView" : 1,
            "componentType" : 5126,
            "count" : 334,
            "type" : "VEC3"
        },
        {
            "bufferView" : 2,
            "componentType" : 5123,
            "count" : 1992,
            "type" : "SCALAR"
        }
    ],
    "bufferViews" : [
        {
            "buffer" : 0,
            "byteLength" : 4008,
            "byteOffset" : 0
        },
        {
            "buffer" : 0,
            "byteLength" : 4008,
            "byteOffset" : 4008
        },
        {
            "buffer" : 0,
            "byteLength" : 3984,
            "byteOffset" : 8016
        }
    ],
    "buffers" : [
        {
            "byteLength" : 12000,
            "uri" : "Atlixco_chico.bin"
        }
    ]
}
