{
    "asset" : {
        "generator" : "Khronos Blender glTF 2.0 I/O",
        "version" : "2.0"
    },
    "scene" : 0,
    "scenes" : [
        {
            "name" : "Scene",
            "nodes" : [
                1
            ]
        }
    ],
    "nodes" : [
        {
            "mesh" : 0,
            "name" : "main",
            "rotation" : [
                0,
                -0.913974940776825,
                0,
                0.40577054023742676
            ],
            "translation" : [
                0,
                1.5449378490447998,
                0
            ]
        },
        {
            "children" : [
                0
            ],
            "name" : "centro"
        }
    ],
    "materials" : [
        {
            "name" : "Material.004",
            "pbrMetallicRoughness" : {
                "baseColorTexture" : {
                    "index" : 0,
                    "texCoord" : 0
                },
                "metallicFactor" : 0,
                "roughnessFactor" : 0.9285714626312256
            }
        }
    ],
    "meshes" : [
        {
            "name" : "Cube.021",
            "primitives" : [
                {
                    "attributes" : {
                        "POSITION" : 0,
                        "NORMAL" : 1,
                        "TEXCOORD_0" : 2
                    },
                    "indices" : 3,
                    "material" : 0
                }
            ]
        }
    ],
    "textures" : [
        {
            "source" : 0
        }
    ],
    "images" : [
        {
            "mimeType" : "image/jpeg",
            "name" : "GAMUZA ROSA CHICLE.jpg",
            "uri" : "GAMUZA ROSA CHICLE.jpg"
        }
    ],
    "accessors" : [
        {
            "bufferView" : 0,
            "componentType" : 5126,
            "count" : 44941,
            "max" : [
                3.777592420578003,
                3.160053014755249,
                4.403538227081299
            ],
            "min" : [
                -3.777592420578003,
                -10.99582290649414,
                -16.44557762145996
            ],
            "type" : "VEC3"
        },
        {
            "bufferView" : 1,
            "componentType" : 5126,
            "count" : 44941,
            "type" : "VEC3"
        },
        {
            "bufferView" : 2,
            "componentType" : 5126,
            "count" : 44941,
            "type" : "VEC2"
        },
        {
            "bufferView" : 3,
            "componentType" : 5123,
            "count" : 249600,
            "type" : "SCALAR"
        }
    ],
    "bufferViews" : [
        {
            "buffer" : 0,
            "byteLength" : 539292,
            "byteOffset" : 0
        },
        {
            "buffer" : 0,
            "byteLength" : 539292,
            "byteOffset" : 539292
        },
        {
            "buffer" : 0,
            "byteLength" : 359528,
            "byteOffset" : 1078584
        },
        {
            "buffer" : 0,
            "byteLength" : 499200,
            "byteOffset" : 1438112
        }
    ],
    "buffers" : [
        {
            "byteLength" : 1937312,
            "uri" : "Bernal.bin"
        }
    ]
}
