{
    "accessors" : [
        {
            "bufferView" : 0,
            "componentType" : 5123,
            "count" : 1872,
            "max" : [
                1151
            ],
            "min" : [
                0
            ],
            "type" : "SCALAR"
        },
        {
            "bufferView" : 1,
            "componentType" : 5126,
            "count" : 1152,
            "max" : [
                2.27115535736084,
                0.09570471942424774,
                2.2805683612823486
            ],
            "min" : [
                -2.27115535736084,
                -0.09638557583093643,
                -2.280566692352295
            ],
            "type" : "VEC3"
        },
        {
            "bufferView" : 2,
            "componentType" : 5126,
            "count" : 1152,
            "max" : [
                0.9721303582191467,
                1.0,
                0.9721298813819885
            ],
            "min" : [
                -0.9721287488937378,
                -1.0,
                -0.9721287488937378
            ],
            "type" : "VEC3"
        },
        {
            "bufferView" : 3,
            "componentType" : 5123,
            "count" : 75504,
            "max" : [
                14089
            ],
            "min" : [
                0
            ],
            "type" : "SCALAR"
        },
        {
            "bufferView" : 4,
            "componentType" : 5126,
            "count" : 14090,
            "max" : [
                2.0233206748962402,
                0.5358443856239319,
                2.4574062824249268
            ],
            "min" : [
                -2.0232908725738525,
                -0.5342230200767517,
                -2.4570651054382324
            ],
            "type" : "VEC3"
        },
        {
            "bufferView" : 5,
            "componentType" : 5126,
            "count" : 14090,
            "max" : [
                0.999969482421875,
                0.999969482421875,
                0.9998779296875
            ],
            "min" : [
                -0.999969482421875,
                -0.999969482421875,
                -0.999908447265625
            ],
            "type" : "VEC3"
        },
        {
            "bufferView" : 6,
            "componentType" : 5126,
            "count" : 14090,
            "max" : [
                1.0,
                0.9995221495628357,
                0.9999999403953552,
                1.0
            ],
            "min" : [
                -1.0,
                -0.9998584389686584,
                -0.9999999403953552,
                1.0
            ],
            "type" : "VEC4"
        },
        {
            "bufferView" : 7,
            "componentType" : 5126,
            "count" : 14090,
            "max" : [
                0.9908521771430969,
                0.8733658194541931
            ],
            "min" : [
                -0.005789309740066528,
                -0.0060880184173583984
            ],
            "type" : "VEC2"
        },
        {
            "bufferView" : 8,
            "componentType" : 5123,
            "count" : 2916,
            "max" : [
                1930
            ],
            "min" : [
                0
            ],
            "type" : "SCALAR"
        },
        {
            "bufferView" : 9,
            "componentType" : 5126,
            "count" : 1931,
            "max" : [
                1.9107099771499634,
                0.688620388507843,
                2.34999942779541
            ],
            "min" : [
                -1.9104024171829224,
                -1.4757771492004395,
                -2.3499996662139893
            ],
            "type" : "VEC3"
        },
        {
            "bufferView" : 10,
            "componentType" : 5126,
            "count" : 1931,
            "max" : [
                1.0,
                1.0,
                1.0
            ],
            "min" : [
                -1.0,
                -1.0,
                -1.0
            ],
            "type" : "VEC3"
        },
        {
            "bufferView" : 11,
            "componentType" : 5126,
            "count" : 1931,
            "max" : [
                1.0,
                0.00731745595112443,
                0.7781190276145935,
                1.0
            ],
            "min" : [
                -1.0,
                -0.009111382998526096,
                -1.0,
                1.0
            ],
            "type" : "VEC4"
        },
        {
            "bufferView" : 12,
            "componentType" : 5126,
            "count" : 1931,
            "max" : [
                0.8097859025001526,
                0.999800785764819
            ],
            "min" : [
                0.0001992142351809889,
                0.00019919872283935547
            ],
            "type" : "VEC2"
        },
        {
            "bufferView" : 13,
            "componentType" : 5123,
            "count" : 75504,
            "max" : [
                14089
            ],
            "min" : [
                0
            ],
            "type" : "SCALAR"
        },
        {
            "bufferView" : 14,
            "componentType" : 5126,
            "count" : 14090,
            "max" : [
                1.453231692314148,
                0.5162454843521118,
                2.4557361602783203
            ],
            "min" : [
                -1.3100762367248535,
                -0.5548469424247742,
                -2.455731153488159
            ],
            "type" : "VEC3"
        },
        {
            "bufferView" : 15,
            "componentType" : 5126,
            "count" : 14090,
            "max" : [
                0.999969482421875,
                0.999969482421875,
                0.99993896484375
            ],
            "min" : [
                -0.999969482421875,
                -0.99993896484375,
                -0.999969482421875
            ],
            "type" : "VEC3"
        },
        {
            "bufferView" : 16,
            "componentType" : 5126,
            "count" : 14090,
            "max" : [
                0.9999993443489075,
                0.9994617104530334,
                1.0,
                1.0
            ],
            "min" : [
                -0.9999998807907104,
                -0.9997583031654358,
                -0.9999985098838806,
                1.0
            ],
            "type" : "VEC4"
        },
        {
            "bufferView" : 17,
            "componentType" : 5126,
            "count" : 14090,
            "max" : [
                0.9908521771430969,
                0.8733658194541931
            ],
            "min" : [
                -0.005789309740066528,
                -0.0060880184173583984
            ],
            "type" : "VEC2"
        },
        {
            "bufferView" : 18,
            "componentType" : 5123,
            "count" : 7248,
            "max" : [
                1329
            ],
            "min" : [
                0
            ],
            "type" : "SCALAR"
        },
        {
            "bufferView" : 19,
            "componentType" : 5126,
            "count" : 1330,
            "max" : [
                2.7315831184387207,
                0.5898858904838562,
                2.492661952972412
            ],
            "min" : [
                -2.731631278991699,
                -0.6071723699569702,
                -2.494328498840332
            ],
            "type" : "VEC3"
        },
        {
            "bufferView" : 20,
            "componentType" : 5126,
            "count" : 1330,
            "max" : [
                0.999969482421875,
                0.999969482421875,
                0.999969482421875
            ],
            "min" : [
                -0.999969482421875,
                -0.999969482421875,
                -0.999969482421875
            ],
            "type" : "VEC3"
        },
        {
            "bufferView" : 21,
            "componentType" : 5126,
            "count" : 1330,
            "max" : [
                0.9999998807907104,
                0.9999999403953552,
                0.6346235275268555,
                1.0
            ],
            "min" : [
                -0.8680448532104492,
                -1.0,
                -1.0,
                1.0
            ],
            "type" : "VEC4"
        },
        {
            "bufferView" : 22,
            "componentType" : 5126,
            "count" : 1330,
            "max" : [
                1.2817518711090088,
                1.2808325290679932
            ],
            "min" : [
                -0.26722192764282227,
                -0.27678346633911133
            ],
            "type" : "VEC2"
        }
    ],
    "asset" : {
        "generator" : "Khronos Blender glTF 2.0 exporter",
        "version" : "2.0"
    },
    "bufferViews" : [
        {
            "buffer" : 0,
            "byteLength" : 3744,
            "byteOffset" : 0,
            "target" : 34963
        },
        {
            "buffer" : 0,
            "byteLength" : 13824,
            "byteOffset" : 3744,
            "target" : 34962
        },
        {
            "buffer" : 0,
            "byteLength" : 13824,
            "byteOffset" : 17568,
            "target" : 34962
        },
        {
            "buffer" : 0,
            "byteLength" : 151008,
            "byteOffset" : 31392,
            "target" : 34963
        },
        {
            "buffer" : 0,
            "byteLength" : 169080,
            "byteOffset" : 182400,
            "target" : 34962
        },
        {
            "buffer" : 0,
            "byteLength" : 169080,
            "byteOffset" : 351480,
            "target" : 34962
        },
        {
            "buffer" : 0,
            "byteLength" : 225440,
            "byteOffset" : 520560,
            "target" : 34962
        },
        {
            "buffer" : 0,
            "byteLength" : 112720,
            "byteOffset" : 746000,
            "target" : 34962
        },
        {
            "buffer" : 0,
            "byteLength" : 5832,
            "byteOffset" : 858720,
            "target" : 34963
        },
        {
            "buffer" : 0,
            "byteLength" : 23172,
            "byteOffset" : 864552,
            "target" : 34962
        },
        {
            "buffer" : 0,
            "byteLength" : 23172,
            "byteOffset" : 887724,
            "target" : 34962
        },
        {
            "buffer" : 0,
            "byteLength" : 30896,
            "byteOffset" : 910896,
            "target" : 34962
        },
        {
            "buffer" : 0,
            "byteLength" : 15448,
            "byteOffset" : 941792,
            "target" : 34962
        },
        {
            "buffer" : 0,
            "byteLength" : 151008,
            "byteOffset" : 957240,
            "target" : 34963
        },
        {
            "buffer" : 0,
            "byteLength" : 169080,
            "byteOffset" : 1108248,
            "target" : 34962
        },
        {
            "buffer" : 0,
            "byteLength" : 169080,
            "byteOffset" : 1277328,
            "target" : 34962
        },
        {
            "buffer" : 0,
            "byteLength" : 225440,
            "byteOffset" : 1446408,
            "target" : 34962
        },
        {
            "buffer" : 0,
            "byteLength" : 112720,
            "byteOffset" : 1671848,
            "target" : 34962
        },
        {
            "buffer" : 0,
            "byteLength" : 14496,
            "byteOffset" : 1784568,
            "target" : 34963
        },
        {
            "buffer" : 0,
            "byteLength" : 15960,
            "byteOffset" : 1799064,
            "target" : 34962
        },
        {
            "buffer" : 0,
            "byteLength" : 15960,
            "byteOffset" : 1815024,
            "target" : 34962
        },
        {
            "buffer" : 0,
            "byteLength" : 21280,
            "byteOffset" : 1830984,
            "target" : 34962
        },
        {
            "buffer" : 0,
            "byteLength" : 10640,
            "byteOffset" : 1852264,
            "target" : 34962
        }
    ],
    "buffers" : [
        {
            "byteLength" : 1862904,
            "uri" : "brazoTrendy.bin"
        }
    ],
    "images" : [
        {
            "name" : "plain-fabric-texture-red",
            "uri" : "plain-fabric-texture-red.jpg"
        }
    ],
    "materials" : [
        {
            "name" : "base",
            "pbrMetallicRoughness" : {
                "baseColorTexture" : {
                    "index" : 0
                },
                "metallicFactor" : 2.9802322387695312e-08
            }
        },
        {
            "name" : "cojin",
            "pbrMetallicRoughness" : {
                "baseColorTexture" : {
                    "index" : 0
                },
                "metallicFactor" : 0.0
            }
        },
        {
            "name" : "cojinBotones",
            "pbrMetallicRoughness" : {
                "baseColorTexture" : {
                    "index" : 0
                },
                "metallicFactor" : 0.0
            }
        },
        {
            "name" : "patas",
            "pbrMetallicRoughness" : {
                "baseColorFactor" : [
                    0.1449902057647705,
                    0.06055896729230881,
                    0.0,
                    1.0
                ]
            }
        }
    ],
    "meshes" : [
        {
            "name" : "Cylinder.001",
            "primitives" : [
                {
                    "attributes" : {
                        "NORMAL" : 2,
                        "POSITION" : 1
                    },
                    "indices" : 0,
                    "material" : 3
                }
            ]
        },
        {
            "name" : "Cube.001",
            "primitives" : [
                {
                    "attributes" : {
                        "NORMAL" : 5,
                        "POSITION" : 4,
                        "TANGENT" : 6,
                        "TEXCOORD_0" : 7
                    },
                    "indices" : 3,
                    "material" : 2
                }
            ]
        },
        {
            "name" : "Cube",
            "primitives" : [
                {
                    "attributes" : {
                        "NORMAL" : 10,
                        "POSITION" : 9,
                        "TANGENT" : 11,
                        "TEXCOORD_0" : 12
                    },
                    "indices" : 8,
                    "material" : 0
                }
            ]
        },
        {
            "name" : "Cube.002",
            "primitives" : [
                {
                    "attributes" : {
                        "NORMAL" : 15,
                        "POSITION" : 14,
                        "TANGENT" : 16,
                        "TEXCOORD_0" : 17
                    },
                    "indices" : 13,
                    "material" : 2
                }
            ]
        },
        {
            "name" : "Cube.004",
            "primitives" : [
                {
                    "attributes" : {
                        "NORMAL" : 20,
                        "POSITION" : 19,
                        "TANGENT" : 21,
                        "TEXCOORD_0" : 22
                    },
                    "indices" : 18,
                    "material" : 1
                }
            ]
        }
    ],
    "nodes" : [
        {
            "mesh" : 2,
            "name" : "base",
            "translation" : [
                0.4572694003582001,
                0.3392226994037628,
                -0.00036869023460894823
            ]
        },
        {
            "children" : [
                0,
                2,
                3,
                4,
                5,
                6,
                7,
                8
            ],
            "name" : "centro"
        },
        {
            "mesh" : 1,
            "name" : "cojinBotones",
            "translation" : [
                0.625699520111084,
                1.435859203338623,
                -0.00036869023460894823
            ]
        },
        {
            "mesh" : 3,
            "name" : "cojinBotones.001",
            "rotation" : [
                3.052126018587842e-08,
                3.052126018587842e-08,
                -0.6072061657905579,
                0.7945443391799927
            ],
            "translation" : [
                -0.820981502532959,
                3.2756528854370117,
                0.008527310565114021
            ]
        },
        {
            "name" : "derecha",
            "translation" : [
                0.0,
                0.0,
                -4.75
            ]
        },
        {
            "name" : "frente",
            "translation" : [
                4.75,
                0.0,
                -0.0
            ]
        },
        {
            "name" : "izquierda",
            "translation" : [
                0.0,
                0.0,
                4.75
            ]
        },
        {
            "mesh" : 0,
            "name" : "patas",
            "translation" : [
                -0.0023206027690321207,
                -1.2144984006881714,
                0.025904100388288498
            ]
        },
        {
            "mesh" : 4,
            "name" : "respaldo",
            "rotation" : [
                2.669255927401082e-08,
                -2.669255749765398e-08,
                -0.7071068286895752,
                0.7071068286895752
            ],
            "translation" : [
                -1.8660328388214111,
                1.5520093441009521,
                3.335743770094268e-07
            ]
        }
    ],
    "samplers" : [
        {}
    ],
    "scene" : 0,
    "scenes" : [
        {
            "name" : "Scene",
            "nodes" : [
                1
            ]
        }
    ],
    "textures" : [
        {
            "sampler" : 0,
            "source" : 0
        },
        {
            "sampler" : 0,
            "source" : 0
        },
        {
            "sampler" : 0,
            "source" : 0
        }
    ]
}
