{
    "asset" : {
        "generator" : "Khronos Blender glTF 2.0 I/O",
        "version" : "2.0"
    },
    "scene" : 0,
    "scenes" : [
        {
            "name" : "Scene",
            "nodes" : [
                8
            ]
        }
    ],
    "nodes" : [
        {
            "mesh" : 0,
            "name" : "asiento",
            "translation" : [
                0.414582222700119,
                1.466257095336914,
                0
            ]
        },
        {
            "mesh" : 1,
            "name" : "asiento.002",
            "rotation" : [
                0,
                0,
                -0.5500782132148743,
                0.8351131081581116
            ],
            "translation" : [
                -0.6158807277679443,
                3.42134428024292,
                0
            ]
        },
        {
            "mesh" : 2,
            "name" : "base",
            "translation" : [
                0.41458243131637573,
                0.37057143449783325,
                0
            ]
        },
        {
            "name" : "derecha",
            "translation" : [
                0,
                0,
                -4.75
            ]
        },
        {
            "name" : "frente",
            "translation" : [
                4.75,
                0,
                0
            ]
        },
        {
            "name" : "izquierda",
            "translation" : [
                0,
                0,
                4.75
            ]
        },
        {
            "mesh" : 3,
            "name" : "patas",
            "translation" : [
                -0.0022545456886291504,
                -1.1921995878219604,
                0.025166720151901245
            ]
        },
        {
            "mesh" : 4,
            "name" : "respaldo",
            "rotation" : [
                0,
                0,
                -0.7071068286895752,
                0.7071068286895752
            ],
            "translation" : [
                -1.8660328388214111,
                1.5923207998275757,
                0
            ]
        },
        {
            "children" : [
                0,
                1,
                2,
                3,
                4,
                5,
                6,
                7
            ],
            "name" : "centro"
        }
    ],
    "materials" : [
        {
            "emissiveFactor" : [
                0,
                0,
                0
            ],
            "name" : "cojin",
            "pbrMetallicRoughness" : {
                "baseColorFactor" : [
                    1,
                    1,
                    1,
                    1
                ],
                "baseColorTexture" : {
                    "index" : 0,
                    "texCoord" : 0
                },
                "metallicFactor" : 0,
                "roughnessFactor" : 1
            }
        },
        {
            "emissiveFactor" : [
                0,
                0,
                0
            ],
            "name" : "base",
            "pbrMetallicRoughness" : {
                "baseColorFactor" : [
                    1,
                    1,
                    1,
                    1
                ],
                "baseColorTexture" : {
                    "index" : 1,
                    "texCoord" : 0
                },
                "metallicFactor" : 0,
                "roughnessFactor" : 1
            }
        },
        {
            "name" : "patas",
            "pbrMetallicRoughness" : {}
        }
    ],
    "meshes" : [
        {
            "name" : "Cube.001",
            "primitives" : [
                {
                    "attributes" : {
                        "POSITION" : 0,
                        "NORMAL" : 1,
                        "TEXCOORD_0" : 2,
                        "COLOR_0" : 3
                    },
                    "indices" : 4,
                    "material" : 0
                }
            ]
        },
        {
            "name" : "Cube.003",
            "primitives" : [
                {
                    "attributes" : {
                        "POSITION" : 5,
                        "NORMAL" : 6,
                        "TEXCOORD_0" : 7,
                        "COLOR_0" : 8
                    },
                    "indices" : 9,
                    "material" : 0
                }
            ]
        },
        {
            "name" : "Cube",
            "primitives" : [
                {
                    "attributes" : {
                        "POSITION" : 10,
                        "NORMAL" : 11,
                        "TEXCOORD_0" : 12,
                        "COLOR_0" : 13
                    },
                    "indices" : 14,
                    "material" : 1
                }
            ]
        },
        {
            "name" : "Cylinder.001",
            "primitives" : [
                {
                    "attributes" : {
                        "POSITION" : 15,
                        "NORMAL" : 16
                    },
                    "indices" : 17,
                    "material" : 2
                }
            ]
        },
        {
            "name" : "Cube.002",
            "primitives" : [
                {
                    "attributes" : {
                        "POSITION" : 18,
                        "NORMAL" : 19,
                        "TEXCOORD_0" : 20,
                        "COLOR_0" : 21
                    },
                    "indices" : 22,
                    "material" : 0
                }
            ]
        }
    ],
    "textures" : [
        {
            "source" : 0
        },
        {
            "source" : 1
        }
    ],
    "images" : [
        {
            "mimeType" : "image/jpeg",
            "name" : "Linate-Crudo.jpg",
            "uri" : "Linate-Crudo.jpg"
        },
        {
            "mimeType" : "image/jpeg",
            "name" : "Linate-Crudo.jpg",
            "uri" : "Linate-Crudo.jpg"
        }
    ],
    "accessors" : [
        {
            "bufferView" : 0,
            "componentType" : 5126,
            "count" : 1330,
            "max" : [
                1.9748271703720093,
                0.6051392555236816,
                2.489762544631958
            ],
            "min" : [
                -1.9740983247756958,
                -0.6249741315841675,
                -2.4894628524780273
            ],
            "type" : "VEC3"
        },
        {
            "bufferView" : 1,
            "componentType" : 5126,
            "count" : 1330,
            "type" : "VEC3"
        },
        {
            "bufferView" : 2,
            "componentType" : 5126,
            "count" : 1330,
            "type" : "VEC2"
        },
        {
            "bufferView" : 3,
            "componentType" : 5126,
            "count" : 1330,
            "type" : "VEC4"
        },
        {
            "bufferView" : 4,
            "componentType" : 5123,
            "count" : 7248,
            "type" : "SCALAR"
        },
        {
            "bufferView" : 5,
            "componentType" : 5126,
            "count" : 1330,
            "max" : [
                1.6274305582046509,
                0.5426346659660339,
                2.4728710651397705
            ],
            "min" : [
                -1.4526022672653198,
                -0.569035530090332,
                -2.474886417388916
            ],
            "type" : "VEC3"
        },
        {
            "bufferView" : 6,
            "componentType" : 5126,
            "count" : 1330,
            "type" : "VEC3"
        },
        {
            "bufferView" : 7,
            "componentType" : 5126,
            "count" : 1330,
            "type" : "VEC2"
        },
        {
            "bufferView" : 8,
            "componentType" : 5126,
            "count" : 1330,
            "type" : "VEC4"
        },
        {
            "bufferView" : 9,
            "componentType" : 5123,
            "count" : 7248,
            "type" : "SCALAR"
        },
        {
            "bufferView" : 10,
            "componentType" : 5126,
            "count" : 1906,
            "max" : [
                1.8373682498931885,
                0.6914463639259338,
                2.3499996662139893
            ],
            "min" : [
                -1.8373680114746094,
                -1.481833577156067,
                -2.3499996662139893
            ],
            "type" : "VEC3"
        },
        {
            "bufferView" : 11,
            "componentType" : 5126,
            "count" : 1906,
            "type" : "VEC3"
        },
        {
            "bufferView" : 12,
            "componentType" : 5126,
            "count" : 1906,
            "type" : "VEC2"
        },
        {
            "bufferView" : 13,
            "componentType" : 5126,
            "count" : 1906,
            "type" : "VEC4"
        },
        {
            "bufferView" : 14,
            "componentType" : 5123,
            "count" : 2916,
            "type" : "SCALAR"
        },
        {
            "bufferView" : 15,
            "componentType" : 5126,
            "count" : 1152,
            "max" : [
                2.2478811740875244,
                0.10330689698457718,
                2.2559821605682373
            ],
            "min" : [
                -2.246670722961426,
                -0.06697239726781845,
                -2.2559804916381836
            ],
            "type" : "VEC3"
        },
        {
            "bufferView" : 16,
            "componentType" : 5126,
            "count" : 1152,
            "type" : "VEC3"
        },
        {
            "bufferView" : 17,
            "componentType" : 5123,
            "count" : 1872,
            "type" : "SCALAR"
        },
        {
            "bufferView" : 18,
            "componentType" : 5126,
            "count" : 1330,
            "max" : [
                2.7315831184387207,
                0.5898858904838562,
                2.492662191390991
            ],
            "min" : [
                -2.731631278991699,
                -0.6071723699569702,
                -2.494328737258911
            ],
            "type" : "VEC3"
        },
        {
            "bufferView" : 19,
            "componentType" : 5126,
            "count" : 1330,
            "type" : "VEC3"
        },
        {
            "bufferView" : 20,
            "componentType" : 5126,
            "count" : 1330,
            "type" : "VEC2"
        },
        {
            "bufferView" : 21,
            "componentType" : 5126,
            "count" : 1330,
            "type" : "VEC4"
        },
        {
            "bufferView" : 22,
            "componentType" : 5123,
            "count" : 7248,
            "type" : "SCALAR"
        }
    ],
    "bufferViews" : [
        {
            "buffer" : 0,
            "byteLength" : 15960,
            "byteOffset" : 0
        },
        {
            "buffer" : 0,
            "byteLength" : 15960,
            "byteOffset" : 15960
        },
        {
            "buffer" : 0,
            "byteLength" : 10640,
            "byteOffset" : 31920
        },
        {
            "buffer" : 0,
            "byteLength" : 21280,
            "byteOffset" : 42560
        },
        {
            "buffer" : 0,
            "byteLength" : 14496,
            "byteOffset" : 63840
        },
        {
            "buffer" : 0,
            "byteLength" : 15960,
            "byteOffset" : 78336
        },
        {
            "buffer" : 0,
            "byteLength" : 15960,
            "byteOffset" : 94296
        },
        {
            "buffer" : 0,
            "byteLength" : 10640,
            "byteOffset" : 110256
        },
        {
            "buffer" : 0,
            "byteLength" : 21280,
            "byteOffset" : 120896
        },
        {
            "buffer" : 0,
            "byteLength" : 14496,
            "byteOffset" : 142176
        },
        {
            "buffer" : 0,
            "byteLength" : 22872,
            "byteOffset" : 156672
        },
        {
            "buffer" : 0,
            "byteLength" : 22872,
            "byteOffset" : 179544
        },
        {
            "buffer" : 0,
            "byteLength" : 15248,
            "byteOffset" : 202416
        },
        {
            "buffer" : 0,
            "byteLength" : 30496,
            "byteOffset" : 217664
        },
        {
            "buffer" : 0,
            "byteLength" : 5832,
            "byteOffset" : 248160
        },
        {
            "buffer" : 0,
            "byteLength" : 13824,
            "byteOffset" : 253992
        },
        {
            "buffer" : 0,
            "byteLength" : 13824,
            "byteOffset" : 267816
        },
        {
            "buffer" : 0,
            "byteLength" : 3744,
            "byteOffset" : 281640
        },
        {
            "buffer" : 0,
            "byteLength" : 15960,
            "byteOffset" : 285384
        },
        {
            "buffer" : 0,
            "byteLength" : 15960,
            "byteOffset" : 301344
        },
        {
            "buffer" : 0,
            "byteLength" : 10640,
            "byteOffset" : 317304
        },
        {
            "buffer" : 0,
            "byteLength" : 21280,
            "byteOffset" : 327944
        },
        {
            "buffer" : 0,
            "byteLength" : 14496,
            "byteOffset" : 349224
        }
    ],
    "buffers" : [
        {
            "byteLength" : 363720,
            "uri" : "brazoCasual.bin"
        }
    ]
}
