{
    "accessors" : [
        {
            "bufferView" : 0,
            "componentType" : 5123,
            "count" : 2916,
            "max" : [
                1917
            ],
            "min" : [
                0
            ],
            "type" : "SCALAR"
        },
        {
            "bufferView" : 1,
            "componentType" : 5126,
            "count" : 1918,
            "max" : [
                1.0000003576278687,
                0.4666154086589813,
                1.0000003576278687
            ],
            "min" : [
                -1.000000238418579,
                -1.0,
                -1.0000003576278687
            ],
            "type" : "VEC3"
        },
        {
            "bufferView" : 2,
            "componentType" : 5126,
            "count" : 1918,
            "max" : [
                1.0,
                1.0,
                1.0
            ],
            "min" : [
                -1.0,
                -1.0,
                -1.0
            ],
            "type" : "VEC3"
        },
        {
            "bufferView" : 3,
            "componentType" : 5126,
            "count" : 1918,
            "max" : [
                1.0,
                4.646426987164887e-06,
                0.00034517081803642213,
                1.0
            ],
            "min" : [
                -1.0,
                -1.0,
                -1.0,
                1.0
            ],
            "type" : "VEC4"
        },
        {
            "bufferView" : 4,
            "componentType" : 5126,
            "count" : 1918,
            "max" : [
                1.5245239734649658,
                1.5252069234848022
            ],
            "min" : [
                -0.5249717831611633,
                -0.5252069234848022
            ],
            "type" : "VEC2"
        },
        {
            "bufferView" : 5,
            "componentType" : 5123,
            "count" : 7248,
            "max" : [
                1329
            ],
            "min" : [
                0
            ],
            "type" : "SCALAR"
        },
        {
            "bufferView" : 6,
            "componentType" : 5126,
            "count" : 1330,
            "max" : [
                1.0452392101287842,
                0.346424400806427,
                1.0303218364715576
            ],
            "min" : [
                -1.0448534488677979,
                -0.35777929425239563,
                -1.0301978588104248
            ],
            "type" : "VEC3"
        },
        {
            "bufferView" : 7,
            "componentType" : 5126,
            "count" : 1330,
            "max" : [
                0.999969482421875,
                0.999969482421875,
                0.999969482421875
            ],
            "min" : [
                -0.999969482421875,
                -0.999969482421875,
                -0.999969482421875
            ],
            "type" : "VEC3"
        },
        {
            "bufferView" : 8,
            "componentType" : 5126,
            "count" : 1330,
            "max" : [
                0.9999997019767761,
                1.0,
                0.6515198945999146,
                1.0
            ],
            "min" : [
                -0.8336265683174133,
                -0.9999999403953552,
                -0.9999999403953552,
                1.0
            ],
            "type" : "VEC4"
        },
        {
            "bufferView" : 9,
            "componentType" : 5126,
            "count" : 1330,
            "max" : [
                1.3777962923049927,
                1.2808325290679932
            ],
            "min" : [
                -0.26722192764282227,
                -0.3777339458465576
            ],
            "type" : "VEC2"
        },
        {
            "bufferView" : 10,
            "componentType" : 5123,
            "count" : 7248,
            "max" : [
                1329
            ],
            "min" : [
                0
            ],
            "type" : "SCALAR"
        },
        {
            "bufferView" : 11,
            "componentType" : 5126,
            "count" : 1330,
            "max" : [
                1.1163626909255981,
                0.3106423616409302,
                1.0233317613601685
            ],
            "min" : [
                -0.996436357498169,
                -0.3257560729980469,
                -1.0241657495498657
            ],
            "type" : "VEC3"
        },
        {
            "bufferView" : 12,
            "componentType" : 5126,
            "count" : 1330,
            "max" : [
                0.999847412109375,
                0.999969482421875,
                0.999969482421875
            ],
            "min" : [
                -0.999969482421875,
                -0.9996337890625,
                -0.999969482421875
            ],
            "type" : "VEC3"
        },
        {
            "bufferView" : 13,
            "componentType" : 5126,
            "count" : 1330,
            "max" : [
                0.9999998807907104,
                0.9999995827674866,
                0.9408686757087708,
                1.0
            ],
            "min" : [
                -0.999647855758667,
                -0.9999955892562866,
                -0.9999989867210388,
                1.0
            ],
            "type" : "VEC4"
        },
        {
            "bufferView" : 14,
            "componentType" : 5126,
            "count" : 1330,
            "max" : [
                1.3777962923049927,
                1.2808325290679932
            ],
            "min" : [
                -0.26722192764282227,
                -0.3777339458465576
            ],
            "type" : "VEC2"
        },
        {
            "bufferView" : 15,
            "componentType" : 5123,
            "count" : 7248,
            "max" : [
                1329
            ],
            "min" : [
                0
            ],
            "type" : "SCALAR"
        },
        {
            "bufferView" : 16,
            "componentType" : 5126,
            "count" : 1330,
            "max" : [
                1.026000738143921,
                0.3376923203468323,
                1.0315217971801758
            ],
            "min" : [
                -1.0260188579559326,
                -0.34758830070495605,
                -1.032211422920227
            ],
            "type" : "VEC3"
        },
        {
            "bufferView" : 17,
            "componentType" : 5126,
            "count" : 1330,
            "max" : [
                0.999969482421875,
                0.999969482421875,
                0.999969482421875
            ],
            "min" : [
                -0.999969482421875,
                -0.999969482421875,
                -0.999969482421875
            ],
            "type" : "VEC3"
        },
        {
            "bufferView" : 18,
            "componentType" : 5126,
            "count" : 1330,
            "max" : [
                0.9999997615814209,
                1.0,
                0.6690332889556885,
                1.0
            ],
            "min" : [
                -0.7568719983100891,
                -1.0,
                -1.0,
                1.0
            ],
            "type" : "VEC4"
        },
        {
            "bufferView" : 19,
            "componentType" : 5126,
            "count" : 1330,
            "max" : [
                1.2817518711090088,
                1.2808325290679932
            ],
            "min" : [
                -0.26722192764282227,
                -0.27678346633911133
            ],
            "type" : "VEC2"
        },
        {
            "bufferView" : 20,
            "componentType" : 5123,
            "count" : 1872,
            "max" : [
                1151
            ],
            "min" : [
                0
            ],
            "type" : "SCALAR"
        },
        {
            "bufferView" : 21,
            "componentType" : 5126,
            "count" : 1152,
            "max" : [
                31.016700744628906,
                1.2133817672729492,
                31.128480911254883
            ],
            "min" : [
                -31.0,
                -0.7866182327270508,
                -31.12845802307129
            ],
            "type" : "VEC3"
        },
        {
            "bufferView" : 22,
            "componentType" : 5126,
            "count" : 1152,
            "max" : [
                0.9692045450210571,
                1.0,
                0.969204843044281
            ],
            "min" : [
                -0.9692045450210571,
                -1.0,
                -0.969204843044281
            ],
            "type" : "VEC3"
        }
    ],
    "asset" : {
        "generator" : "Khronos Blender glTF 2.0 exporter",
        "version" : "2.0"
    },
    "bufferViews" : [
        {
            "buffer" : 0,
            "byteLength" : 5832,
            "byteOffset" : 0,
            "target" : 34963
        },
        {
            "buffer" : 0,
            "byteLength" : 23016,
            "byteOffset" : 5832,
            "target" : 34962
        },
        {
            "buffer" : 0,
            "byteLength" : 23016,
            "byteOffset" : 28848,
            "target" : 34962
        },
        {
            "buffer" : 0,
            "byteLength" : 30688,
            "byteOffset" : 51864,
            "target" : 34962
        },
        {
            "buffer" : 0,
            "byteLength" : 15344,
            "byteOffset" : 82552,
            "target" : 34962
        },
        {
            "buffer" : 0,
            "byteLength" : 14496,
            "byteOffset" : 97896,
            "target" : 34963
        },
        {
            "buffer" : 0,
            "byteLength" : 15960,
            "byteOffset" : 112392,
            "target" : 34962
        },
        {
            "buffer" : 0,
            "byteLength" : 15960,
            "byteOffset" : 128352,
            "target" : 34962
        },
        {
            "buffer" : 0,
            "byteLength" : 21280,
            "byteOffset" : 144312,
            "target" : 34962
        },
        {
            "buffer" : 0,
            "byteLength" : 10640,
            "byteOffset" : 165592,
            "target" : 34962
        },
        {
            "buffer" : 0,
            "byteLength" : 14496,
            "byteOffset" : 176232,
            "target" : 34963
        },
        {
            "buffer" : 0,
            "byteLength" : 15960,
            "byteOffset" : 190728,
            "target" : 34962
        },
        {
            "buffer" : 0,
            "byteLength" : 15960,
            "byteOffset" : 206688,
            "target" : 34962
        },
        {
            "buffer" : 0,
            "byteLength" : 21280,
            "byteOffset" : 222648,
            "target" : 34962
        },
        {
            "buffer" : 0,
            "byteLength" : 10640,
            "byteOffset" : 243928,
            "target" : 34962
        },
        {
            "buffer" : 0,
            "byteLength" : 14496,
            "byteOffset" : 254568,
            "target" : 34963
        },
        {
            "buffer" : 0,
            "byteLength" : 15960,
            "byteOffset" : 269064,
            "target" : 34962
        },
        {
            "buffer" : 0,
            "byteLength" : 15960,
            "byteOffset" : 285024,
            "target" : 34962
        },
        {
            "buffer" : 0,
            "byteLength" : 21280,
            "byteOffset" : 300984,
            "target" : 34962
        },
        {
            "buffer" : 0,
            "byteLength" : 10640,
            "byteOffset" : 322264,
            "target" : 34962
        },
        {
            "buffer" : 0,
            "byteLength" : 3744,
            "byteOffset" : 332904,
            "target" : 34963
        },
        {
            "buffer" : 0,
            "byteLength" : 13824,
            "byteOffset" : 336648,
            "target" : 34962
        },
        {
            "buffer" : 0,
            "byteLength" : 13824,
            "byteOffset" : 350472,
            "target" : 34962
        }
    ],
    "buffers" : [
        {
            "byteLength" : 364296,
            "uri" : "brazoContemporaneo.bin"
        }
    ],
    "images" : [
        {
            "name" : "cotton-grey",
            "uri" : "cotton-grey.jpg"
        }
    ],
    "materials" : [
        {
            "name" : "base",
            "pbrMetallicRoughness" : {
                "baseColorTexture" : {
                    "index" : 0
                },
                "metallicFactor" : 0.0
            }
        },
        {
            "name" : "cojin",
            "pbrMetallicRoughness" : {
                "baseColorTexture" : {
                    "index" : 0
                },
                "metallicFactor" : 0.0
            }
        }
    ],
    "meshes" : [
        {
            "name" : "Cube",
            "primitives" : [
                {
                    "attributes" : {
                        "NORMAL" : 2,
                        "POSITION" : 1,
                        "TANGENT" : 3,
                        "TEXCOORD_0" : 4
                    },
                    "indices" : 0,
                    "material" : 0
                }
            ]
        },
        {
            "name" : "Cube.001",
            "primitives" : [
                {
                    "attributes" : {
                        "NORMAL" : 7,
                        "POSITION" : 6,
                        "TANGENT" : 8,
                        "TEXCOORD_0" : 9
                    },
                    "indices" : 5,
                    "material" : 1
                }
            ]
        },
        {
            "name" : "Cube.003",
            "primitives" : [
                {
                    "attributes" : {
                        "NORMAL" : 12,
                        "POSITION" : 11,
                        "TANGENT" : 13,
                        "TEXCOORD_0" : 14
                    },
                    "indices" : 10,
                    "material" : 1
                }
            ]
        },
        {
            "name" : "Cube.002",
            "primitives" : [
                {
                    "attributes" : {
                        "NORMAL" : 17,
                        "POSITION" : 16,
                        "TANGENT" : 18,
                        "TEXCOORD_0" : 19
                    },
                    "indices" : 15,
                    "material" : 1
                }
            ]
        },
        {
            "name" : "Cylinder.001",
            "primitives" : [
                {
                    "attributes" : {
                        "NORMAL" : 22,
                        "POSITION" : 21
                    },
                    "indices" : 20
                }
            ]
        }
    ],
    "nodes" : [
        {
            "mesh" : 1,
            "name" : "asiento",
            "scale" : [
                0.3778708577156067,
                0.34936293959617615,
                0.48329800367355347
            ],
            "translation" : [
                0.08291644603013992,
                0.2932514250278473,
                6.671487540188537e-08
            ]
        },
        {
            "mesh" : 2,
            "name" : "asiento.002",
            "rotation" : [
                0.0,
                0.0,
                -0.5500782132148743,
                0.8351131677627563
            ],
            "scale" : [
                0.2915594279766083,
                0.34936293959617615,
                0.48329800367355347
            ],
            "translation" : [
                -0.12317614257335663,
                0.6842688322067261,
                6.671487540188537e-08
            ]
        },
        {
            "mesh" : 0,
            "name" : "base",
            "scale" : [
                0.3674735128879547,
                0.29636672139167786,
                0.469999760389328
            ],
            "translation" : [
                0.08291648328304291,
                0.07411428540945053,
                -0.0
            ]
        },
        {
            "children" : [
                0,
                1,
                2,
                4,
                5,
                6,
                7,
                8
            ],
            "name" : "centro"
        },
        {
            "name" : "derecha",
            "translation" : [
                0.0,
                0.0,
                -0.949999988079071
            ]
        },
        {
            "name" : "frente",
            "translation" : [
                0.949999988079071,
                0.0,
                -0.0
            ]
        },
        {
            "name" : "izquierda",
            "translation" : [
                0.0,
                0.0,
                0.949999988079071
            ]
        },
        {
            "mesh" : 4,
            "name" : "patas",
            "scale" : [
                0.014494650065898895,
                0.017027929425239563,
                0.014494650065898895
            ],
            "translation" : [
                -0.0004509091377258301,
                -0.2384399175643921,
                0.005033344030380249
            ]
        },
        {
            "mesh" : 3,
            "name" : "respaldo",
            "rotation" : [
                0.0,
                0.0,
                -0.7071068286895752,
                0.7071068286895752
            ],
            "scale" : [
                0.5324719548225403,
                0.34936293959617615,
                0.48329800367355347
            ],
            "translation" : [
                -0.37320655584335327,
                0.31846415996551514,
                6.671487540188537e-08
            ]
        }
    ],
    "samplers" : [
        {}
    ],
    "scene" : 0,
    "scenes" : [
        {
            "name" : "Scene",
            "nodes" : [
                3
            ]
        }
    ],
    "textures" : [
        {
            "sampler" : 0,
            "source" : 0
        },
        {
            "sampler" : 0,
            "source" : 0
        }
    ]
}
