{
    "asset" : {
        "generator" : "Khronos Blender glTF 2.0 I/O",
        "version" : "2.0"
    },
    "scene" : 0,
    "scenes" : [
        {
            "name" : "Scene",
            "nodes" : [
                0,
                1,
                2,
                3
            ]
        }
    ],
    "nodes" : [
        {
            "name" : "Lamp",
            "rotation" : [
                0.16907575726509094,
                0.7558802962303162,
                -0.27217137813568115,
                0.570947527885437
            ],
            "translation" : [
                -1.7071971893310547,
                5.903861999511719,
                -1.0054539442062378
            ]
        },
        {
            "name" : "Camera",
            "rotation" : [
                0.483536034822464,
                0.33687159419059753,
                -0.20870360732078552,
                0.7804827094078064
            ],
            "translation" : [
                7.481131553649902,
                5.34366512298584,
                6.5076398849487305
            ]
        },
        {
            "mesh" : 0,
            "name" : "Cube.009",
            "scale" : [
                1.3359993696212769,
                0.5827400088310242,
                0.5827400088310242
            ],
            "translation" : [
                -0.0032644271850585938,
                1.6851119995117188,
                2.082247018814087
            ]
        },
        {
            "mesh" : 1,
            "name" : "Cube.022",
            "scale" : [
                0.39333653450012207,
                0.46987539529800415,
                0.39333653450012207
            ],
            "translation" : [
                0.017769336700439453,
                0.5633962154388428,
                -1.6044889688491821
            ]
        }
    ],
    "meshes" : [
        {
            "name" : "Cube.028",
            "primitives" : [
                {
                    "attributes" : {
                        "POSITION" : 0,
                        "NORMAL" : 1
                    },
                    "indices" : 2
                }
            ]
        },
        {
            "name" : "Cube.022",
            "primitives" : [
                {
                    "attributes" : {
                        "POSITION" : 3,
                        "NORMAL" : 4
                    },
                    "indices" : 5
                }
            ]
        }
    ],
    "accessors" : [
        {
            "bufferView" : 0,
            "componentType" : 5126,
            "count" : 513,
            "max" : [
                1.2383822202682495,
                1.3065065145492554,
                1.4572679996490479
            ],
            "min" : [
                -1.1980557441711426,
                -2.9456305503845215,
                -4.493908405303955
            ],
            "type" : "VEC3"
        },
        {
            "bufferView" : 1,
            "componentType" : 5126,
            "count" : 513,
            "type" : "VEC3"
        },
        {
            "bufferView" : 2,
            "componentType" : 5123,
            "count" : 3066,
            "type" : "SCALAR"
        },
        {
            "bufferView" : 3,
            "componentType" : 5126,
            "count" : 478,
            "max" : [
                4.284851551055908,
                1.3035081624984741,
                1.8142104148864746
            ],
            "min" : [
                -4.232375621795654,
                -1.174187421798706,
                -2.1269619464874268
            ],
            "type" : "VEC3"
        },
        {
            "bufferView" : 4,
            "componentType" : 5126,
            "count" : 478,
            "type" : "VEC3"
        },
        {
            "bufferView" : 5,
            "componentType" : 5123,
            "count" : 2856,
            "type" : "SCALAR"
        }
    ],
    "bufferViews" : [
        {
            "buffer" : 0,
            "byteLength" : 6156,
            "byteOffset" : 0
        },
        {
            "buffer" : 0,
            "byteLength" : 6156,
            "byteOffset" : 6156
        },
        {
            "buffer" : 0,
            "byteLength" : 6132,
            "byteOffset" : 12312
        },
        {
            "buffer" : 0,
            "byteLength" : 5736,
            "byteOffset" : 18444
        },
        {
            "buffer" : 0,
            "byteLength" : 5736,
            "byteOffset" : 24180
        },
        {
            "buffer" : 0,
            "byteLength" : 5712,
            "byteOffset" : 29916
        }
    ],
    "buffers" : [
        {
            "byteLength" : 35628,
            "uri" : "conzumel.bin"
        }
    ]
}
