{
    "asset" : {
        "generator" : "Khronos Blender glTF 2.0 I/O",
        "version" : "2.0"
    },
    "scene" : 0,
    "scenes" : [
        {
            "name" : "Scene",
            "nodes" : [
                2
            ]
        }
    ],
    "nodes" : [
        {
            "mesh" : 0,
            "name" : "main",
            "rotation" : [
                0,
                0.9578065276145935,
                0,
                0.28741389513015747
            ],
            "translation" : [
                1.8172616958618164,
                1.219643235206604,
                -2.2467944622039795
            ]
        },
        {
            "mesh" : 1,
            "name" : "posaPies",
            "rotation" : [
                0,
                0.9578065276145935,
                0,
                0.28741389513015747
            ],
            "translation" : [
                -1.9894793033599854,
                -0.513750433921814,
                2.4912006855010986
            ]
        },
        {
            "children" : [
                0,
                1
            ],
            "name" : "centro"
        }
    ],
    "materials" : [
        {
            "name" : "main",
            "pbrMetallicRoughness" : {
                "baseColorTexture" : {
                    "index" : 0,
                    "texCoord" : 0
                },
                "metallicFactor" : 0,
                "roughnessFactor" : 0.9238095283508301
            }
        }
    ],
    "meshes" : [
        {
            "name" : "Cube.028",
            "primitives" : [
                {
                    "attributes" : {
                        "POSITION" : 0,
                        "NORMAL" : 1,
                        "TEXCOORD_0" : 2
                    },
                    "indices" : 3,
                    "material" : 0
                }
            ]
        },
        {
            "name" : "Cube.022",
            "primitives" : [
                {
                    "attributes" : {
                        "POSITION" : 4,
                        "NORMAL" : 5,
                        "TEXCOORD_0" : 6
                    },
                    "indices" : 7,
                    "material" : 0
                }
            ]
        }
    ],
    "textures" : [
        {
            "source" : 0
        }
    ],
    "images" : [
        {
            "mimeType" : "image/jpeg",
            "name" : "LONA NEGRO AZABACHE.jpg",
            "uri" : "LONA NEGRO AZABACHE.jpg"
        }
    ],
    "accessors" : [
        {
            "bufferView" : 0,
            "componentType" : 5126,
            "count" : 9404,
            "max" : [
                2.5257134437561035,
                1.056815505027771,
                1.304380178451538
            ],
            "min" : [
                -2.4538991451263428,
                -2.6159629821777344,
                -4.043266296386719
            ],
            "type" : "VEC3"
        },
        {
            "bufferView" : 1,
            "componentType" : 5126,
            "count" : 9404,
            "type" : "VEC3"
        },
        {
            "bufferView" : 2,
            "componentType" : 5126,
            "count" : 9404,
            "type" : "VEC2"
        },
        {
            "bufferView" : 3,
            "componentType" : 5123,
            "count" : 49008,
            "type" : "SCALAR"
        },
        {
            "bufferView" : 4,
            "componentType" : 5126,
            "count" : 8663,
            "max" : [
                2.5776681900024414,
                0.9464786052703857,
                1.0844670534133911
            ],
            "min" : [
                -2.545769214630127,
                -0.8525786399841309,
                -1.2737698554992676
            ],
            "type" : "VEC3"
        },
        {
            "bufferView" : 5,
            "componentType" : 5126,
            "count" : 8663,
            "type" : "VEC3"
        },
        {
            "bufferView" : 6,
            "componentType" : 5126,
            "count" : 8663,
            "type" : "VEC2"
        },
        {
            "bufferView" : 7,
            "componentType" : 5123,
            "count" : 45696,
            "type" : "SCALAR"
        }
    ],
    "bufferViews" : [
        {
            "buffer" : 0,
            "byteLength" : 112848,
            "byteOffset" : 0
        },
        {
            "buffer" : 0,
            "byteLength" : 112848,
            "byteOffset" : 112848
        },
        {
            "buffer" : 0,
            "byteLength" : 75232,
            "byteOffset" : 225696
        },
        {
            "buffer" : 0,
            "byteLength" : 98016,
            "byteOffset" : 300928
        },
        {
            "buffer" : 0,
            "byteLength" : 103956,
            "byteOffset" : 398944
        },
        {
            "buffer" : 0,
            "byteLength" : 103956,
            "byteOffset" : 502900
        },
        {
            "buffer" : 0,
            "byteLength" : 69304,
            "byteOffset" : 606856
        },
        {
            "buffer" : 0,
            "byteLength" : 91392,
            "byteOffset" : 676160
        }
    ],
    "buffers" : [
        {
            "byteLength" : 767552,
            "uri" : "conzumel.bin"
        }
    ]
}
