{
    "accessors" : [
        {
            "bufferView" : 0,
            "componentType" : 5121,
            "count" : 708,
            "max" : [
                155
            ],
            "min" : [
                0
            ],
            "type" : "SCALAR"
        },
        {
            "bufferView" : 1,
            "componentType" : 5126,
            "count" : 156,
            "max" : [
                1.0000005960464478,
                0.2819299101829529,
                1.0000004768371582
            ],
            "min" : [
                -1.004454493522644,
                -0.28882676362991333,
                -1.0000001192092896
            ],
            "type" : "VEC3"
        },
        {
            "bufferView" : 2,
            "componentType" : 5126,
            "count" : 156,
            "max" : [
                1.0,
                0.9773552417755127,
                1.0
            ],
            "min" : [
                -0.999847412109375,
                -1.0,
                -1.0
            ],
            "type" : "VEC3"
        },
        {
            "bufferView" : 3,
            "componentType" : 5126,
            "count" : 156,
            "max" : [
                1.248849630355835,
                1.2432732582092285
            ],
            "min" : [
                -0.22996920347213745,
                -0.24379634857177734
            ],
            "type" : "VEC2"
        },
        {
            "bufferView" : 4,
            "componentType" : 5121,
            "count" : 456,
            "max" : [
                107
            ],
            "min" : [
                0
            ],
            "type" : "SCALAR"
        },
        {
            "bufferView" : 5,
            "componentType" : 5126,
            "count" : 108,
            "max" : [
                0.9806802868843079,
                0.2666923999786377,
                1.0000004768371582
            ],
            "min" : [
                -1.000000238418579,
                -0.266692191362381,
                -1.0000001192092896
            ],
            "type" : "VEC3"
        },
        {
            "bufferView" : 6,
            "componentType" : 5126,
            "count" : 108,
            "max" : [
                1.0,
                0.9712515473365784,
                1.0
            ],
            "min" : [
                -1.0,
                -1.0,
                -1.0
            ],
            "type" : "VEC3"
        },
        {
            "bufferView" : 7,
            "componentType" : 5126,
            "count" : 108,
            "max" : [
                1.3405556678771973,
                1.2432732582092285
            ],
            "min" : [
                -0.22996920347213745,
                -0.34017467498779297
            ],
            "type" : "VEC2"
        },
        {
            "bufferView" : 8,
            "componentType" : 5123,
            "count" : 2916,
            "max" : [
                1917
            ],
            "min" : [
                0
            ],
            "type" : "SCALAR"
        },
        {
            "bufferView" : 9,
            "componentType" : 5126,
            "count" : 1918,
            "max" : [
                1.0000003576278687,
                0.4666154086589813,
                1.0000003576278687
            ],
            "min" : [
                -1.000000238418579,
                -1.0,
                -1.0000003576278687
            ],
            "type" : "VEC3"
        },
        {
            "bufferView" : 10,
            "componentType" : 5126,
            "count" : 1918,
            "max" : [
                1.0,
                1.0,
                1.0
            ],
            "min" : [
                -1.0,
                -1.0,
                -1.0
            ],
            "type" : "VEC3"
        },
        {
            "bufferView" : 11,
            "componentType" : 5126,
            "count" : 1918,
            "max" : [
                1.0,
                4.646426987164887e-06,
                0.00034517081803642213,
                1.0
            ],
            "min" : [
                -1.0,
                -1.0,
                -1.0,
                1.0
            ],
            "type" : "VEC4"
        },
        {
            "bufferView" : 12,
            "componentType" : 5126,
            "count" : 1918,
            "max" : [
                1.5245239734649658,
                1.5252069234848022
            ],
            "min" : [
                -0.5249717831611633,
                -0.5252069234848022
            ],
            "type" : "VEC2"
        },
        {
            "bufferView" : 13,
            "componentType" : 5123,
            "count" : 50832,
            "max" : [
                8761
            ],
            "min" : [
                0
            ],
            "type" : "SCALAR"
        },
        {
            "bufferView" : 14,
            "componentType" : 5126,
            "count" : 8762,
            "max" : [
                0.9764218330383301,
                0.4226701557636261,
                1.0384465456008911
            ],
            "min" : [
                -1.1372700929641724,
                -0.36708903312683105,
                -1.0491108894348145
            ],
            "type" : "VEC3"
        },
        {
            "bufferView" : 15,
            "componentType" : 5126,
            "count" : 8762,
            "max" : [
                0.9998779296875,
                0.999969482421875,
                0.99981689453125
            ],
            "min" : [
                -0.99993896484375,
                -0.999969482421875,
                -0.999969482421875
            ],
            "type" : "VEC3"
        },
        {
            "bufferView" : 16,
            "componentType" : 5126,
            "count" : 8762,
            "max" : [
                0.9999995827674866,
                0.9999735355377197,
                0.9939551949501038,
                1.0
            ],
            "min" : [
                -0.977645218372345,
                -0.999995231628418,
                -0.9999994039535522,
                1.0
            ],
            "type" : "VEC4"
        },
        {
            "bufferView" : 17,
            "componentType" : 5126,
            "count" : 8762,
            "max" : [
                1.248849630355835,
                1.2432732582092285
            ],
            "min" : [
                -0.22996920347213745,
                -0.24379634857177734
            ],
            "type" : "VEC2"
        },
        {
            "bufferView" : 18,
            "componentType" : 5123,
            "count" : 1872,
            "max" : [
                1151
            ],
            "min" : [
                0
            ],
            "type" : "SCALAR"
        },
        {
            "bufferView" : 19,
            "componentType" : 5126,
            "count" : 1152,
            "max" : [
                28.274463653564453,
                1.2133817672729492,
                31.128480911254883
            ],
            "min" : [
                -31.0,
                -0.7866182327270508,
                -31.12845802307129
            ],
            "type" : "VEC3"
        },
        {
            "bufferView" : 20,
            "componentType" : 5126,
            "count" : 1152,
            "max" : [
                0.9692050218582153,
                1.0,
                0.9692047238349915
            ],
            "min" : [
                -0.9692045450210571,
                -1.0,
                -0.9692047238349915
            ],
            "type" : "VEC3"
        },
        {
            "bufferView" : 21,
            "componentType" : 5121,
            "count" : 708,
            "max" : [
                155
            ],
            "min" : [
                0
            ],
            "type" : "SCALAR"
        },
        {
            "bufferView" : 22,
            "componentType" : 5126,
            "count" : 156,
            "max" : [
                1.0000005960464478,
                0.2819299101829529,
                1.0000004768371582
            ],
            "min" : [
                -1.004454493522644,
                -0.28882676362991333,
                -1.0000001192092896
            ],
            "type" : "VEC3"
        },
        {
            "bufferView" : 23,
            "componentType" : 5126,
            "count" : 156,
            "max" : [
                1.0,
                0.9773552417755127,
                1.0
            ],
            "min" : [
                -0.999847412109375,
                -1.0,
                -1.0
            ],
            "type" : "VEC3"
        },
        {
            "bufferView" : 24,
            "componentType" : 5126,
            "count" : 156,
            "max" : [
                1.248849630355835,
                1.2432732582092285
            ],
            "min" : [
                -0.22996920347213745,
                -0.24379634857177734
            ],
            "type" : "VEC2"
        },
        {
            "bufferView" : 25,
            "componentType" : 5123,
            "count" : 50832,
            "max" : [
                8761
            ],
            "min" : [
                0
            ],
            "type" : "SCALAR"
        },
        {
            "bufferView" : 26,
            "componentType" : 5126,
            "count" : 8762,
            "max" : [
                0.8640377521514893,
                0.4640811085700989,
                1.0713419914245605
            ],
            "min" : [
                -1.2731064558029175,
                -0.39096614718437195,
                -1.0713696479797363
            ],
            "type" : "VEC3"
        },
        {
            "bufferView" : 27,
            "componentType" : 5126,
            "count" : 8762,
            "max" : [
                0.999908447265625,
                0.999969482421875,
                0.999969482421875
            ],
            "min" : [
                -0.999969482421875,
                -0.999969482421875,
                -0.999969482421875
            ],
            "type" : "VEC3"
        },
        {
            "bufferView" : 28,
            "componentType" : 5126,
            "count" : 8762,
            "max" : [
                0.9999998211860657,
                0.9999997019767761,
                0.9677249789237976,
                1.0
            ],
            "min" : [
                -0.9999222159385681,
                -0.9999993443489075,
                -0.9999999403953552,
                1.0
            ],
            "type" : "VEC4"
        },
        {
            "bufferView" : 29,
            "componentType" : 5126,
            "count" : 8762,
            "max" : [
                1.248849630355835,
                1.2432732582092285
            ],
            "min" : [
                -0.22996920347213745,
                -0.24379634857177734
            ],
            "type" : "VEC2"
        }
    ],
    "asset" : {
        "generator" : "Khronos Blender glTF 2.0 exporter",
        "version" : "2.0"
    },
    "bufferViews" : [
        {
            "buffer" : 0,
            "byteLength" : 708,
            "byteOffset" : 0,
            "target" : 34963
        },
        {
            "buffer" : 0,
            "byteLength" : 1872,
            "byteOffset" : 708,
            "target" : 34962
        },
        {
            "buffer" : 0,
            "byteLength" : 1872,
            "byteOffset" : 2580,
            "target" : 34962
        },
        {
            "buffer" : 0,
            "byteLength" : 1248,
            "byteOffset" : 4452,
            "target" : 34962
        },
        {
            "buffer" : 0,
            "byteLength" : 456,
            "byteOffset" : 5700,
            "target" : 34963
        },
        {
            "buffer" : 0,
            "byteLength" : 1296,
            "byteOffset" : 6156,
            "target" : 34962
        },
        {
            "buffer" : 0,
            "byteLength" : 1296,
            "byteOffset" : 7452,
            "target" : 34962
        },
        {
            "buffer" : 0,
            "byteLength" : 864,
            "byteOffset" : 8748,
            "target" : 34962
        },
        {
            "buffer" : 0,
            "byteLength" : 5832,
            "byteOffset" : 9612,
            "target" : 34963
        },
        {
            "buffer" : 0,
            "byteLength" : 23016,
            "byteOffset" : 15444,
            "target" : 34962
        },
        {
            "buffer" : 0,
            "byteLength" : 23016,
            "byteOffset" : 38460,
            "target" : 34962
        },
        {
            "buffer" : 0,
            "byteLength" : 30688,
            "byteOffset" : 61476,
            "target" : 34962
        },
        {
            "buffer" : 0,
            "byteLength" : 15344,
            "byteOffset" : 92164,
            "target" : 34962
        },
        {
            "buffer" : 0,
            "byteLength" : 101664,
            "byteOffset" : 107508,
            "target" : 34963
        },
        {
            "buffer" : 0,
            "byteLength" : 105144,
            "byteOffset" : 209172,
            "target" : 34962
        },
        {
            "buffer" : 0,
            "byteLength" : 105144,
            "byteOffset" : 314316,
            "target" : 34962
        },
        {
            "buffer" : 0,
            "byteLength" : 140192,
            "byteOffset" : 419460,
            "target" : 34962
        },
        {
            "buffer" : 0,
            "byteLength" : 70096,
            "byteOffset" : 559652,
            "target" : 34962
        },
        {
            "buffer" : 0,
            "byteLength" : 3744,
            "byteOffset" : 629748,
            "target" : 34963
        },
        {
            "buffer" : 0,
            "byteLength" : 13824,
            "byteOffset" : 633492,
            "target" : 34962
        },
        {
            "buffer" : 0,
            "byteLength" : 13824,
            "byteOffset" : 647316,
            "target" : 34962
        },
        {
            "buffer" : 0,
            "byteLength" : 708,
            "byteOffset" : 661140,
            "target" : 34963
        },
        {
            "buffer" : 0,
            "byteLength" : 1872,
            "byteOffset" : 661848,
            "target" : 34962
        },
        {
            "buffer" : 0,
            "byteLength" : 1872,
            "byteOffset" : 663720,
            "target" : 34962
        },
        {
            "buffer" : 0,
            "byteLength" : 1248,
            "byteOffset" : 665592,
            "target" : 34962
        },
        {
            "buffer" : 0,
            "byteLength" : 101664,
            "byteOffset" : 666840,
            "target" : 34963
        },
        {
            "buffer" : 0,
            "byteLength" : 105144,
            "byteOffset" : 768504,
            "target" : 34962
        },
        {
            "buffer" : 0,
            "byteLength" : 105144,
            "byteOffset" : 873648,
            "target" : 34962
        },
        {
            "buffer" : 0,
            "byteLength" : 140192,
            "byteOffset" : 978792,
            "target" : 34962
        },
        {
            "buffer" : 0,
            "byteLength" : 70096,
            "byteOffset" : 1118984,
            "target" : 34962
        }
    ],
    "buffers" : [
        {
            "byteLength" : 1189080,
            "uri" : "esquinaContempo.bin"
        }
    ],
    "images" : [
        {
            "name" : "curiGris",
            "uri" : "curiGris.jpg"
        }
    ],
    "materials" : [
        {
            "alphaMode" : "BLEND",
            "name" : "base",
            "pbrMetallicRoughness" : {
                "baseColorTexture" : {
                    "index" : 0
                },
                "metallicFactor" : 0.0
            }
        },
        {
            "name" : "cojin",
            "pbrMetallicRoughness" : {
                "baseColorTexture" : {
                    "index" : 0
                },
                "metallicFactor" : 0.0
            }
        },
        {
            "name" : "patas",
            "pbrMetallicRoughness" : {
                "baseColorFactor" : [
                    0.043545760214328766,
                    0.00912205409258604,
                    0.0,
                    1.0
                ]
            }
        }
    ],
    "meshes" : [
        {
            "name" : "Cube.003",
            "primitives" : [
                {
                    "attributes" : {
                        "NORMAL" : 2,
                        "POSITION" : 1,
                        "TEXCOORD_0" : 3
                    },
                    "indices" : 0,
                    "material" : 1
                }
            ]
        },
        {
            "name" : "Cube.001",
            "primitives" : [
                {
                    "attributes" : {
                        "NORMAL" : 6,
                        "POSITION" : 5,
                        "TEXCOORD_0" : 7
                    },
                    "indices" : 4,
                    "material" : 1
                }
            ]
        },
        {
            "name" : "Cube",
            "primitives" : [
                {
                    "attributes" : {
                        "NORMAL" : 10,
                        "POSITION" : 9,
                        "TANGENT" : 11,
                        "TEXCOORD_0" : 12
                    },
                    "indices" : 8,
                    "material" : 0
                }
            ]
        },
        {
            "name" : "Cube.004",
            "primitives" : [
                {
                    "attributes" : {
                        "NORMAL" : 15,
                        "POSITION" : 14,
                        "TANGENT" : 16,
                        "TEXCOORD_0" : 17
                    },
                    "indices" : 13,
                    "material" : 1
                }
            ]
        },
        {
            "name" : "Cylinder.001",
            "primitives" : [
                {
                    "attributes" : {
                        "NORMAL" : 20,
                        "POSITION" : 19
                    },
                    "indices" : 18,
                    "material" : 2
                }
            ]
        },
        {
            "name" : "Cube.002",
            "primitives" : [
                {
                    "attributes" : {
                        "NORMAL" : 23,
                        "POSITION" : 22,
                        "TEXCOORD_0" : 24
                    },
                    "indices" : 21,
                    "material" : 1
                }
            ]
        },
        {
            "name" : "Cube.005",
            "primitives" : [
                {
                    "attributes" : {
                        "NORMAL" : 27,
                        "POSITION" : 26,
                        "TANGENT" : 28,
                        "TEXCOORD_0" : 29
                    },
                    "indices" : 25,
                    "material" : 1
                }
            ]
        }
    ],
    "nodes" : [
        {
            "mesh" : 1,
            "name" : "asiento",
            "rotation" : [
                0.0,
                0.7071068286895752,
                -0.0,
                0.7071067690849304
            ],
            "scale" : [
                0.38649094104766846,
                0.34936293959617615,
                0.3842857778072357
            ],
            "translation" : [
                0.27863776683807373,
                0.2932514250278473,
                0.0026886165142059326
            ]
        },
        {
            "mesh" : 2,
            "name" : "base",
            "rotation" : [
                0.0,
                0.7071068286895752,
                -0.0,
                0.7071067690849304
            ],
            "scale" : [
                0.39157095551490784,
                0.29636672139167786,
                0.3890640437602997
            ],
            "translation" : [
                0.28122276067733765,
                0.07411430776119232,
                -0.005329415202140808
            ]
        },
        {
            "mesh" : 3,
            "name" : "cojin",
            "rotation" : [
                -0.5193871855735779,
                -0.4798307716846466,
                0.5193866491317749,
                0.4798301160335541
            ],
            "scale" : [
                0.28887397050857544,
                0.26194629073143005,
                0.35827213525772095
            ],
            "translation" : [
                0.26017287373542786,
                0.7077431678771973,
                -0.2893662452697754
            ]
        },
        {
            "mesh" : 6,
            "name" : "cojin.001",
            "rotation" : [
                -3.953527709654736e-07,
                -4.469243606308737e-07,
                0.7345240116119385,
                0.6785827279090881
            ],
            "scale" : [
                0.28895995020866394,
                0.281861811876297,
                0.2849179208278656
            ],
            "translation" : [
                0.025083154439926147,
                0.7215752601623535,
                0.1843786984682083
            ]
        },
        {
            "name" : "derecha",
            "translation" : [
                0.0,
                0.0,
                -0.949999988079071
            ]
        },
        {
            "children" : [
                0,
                1,
                2,
                3,
                4,
                6,
                7,
                8,
                9,
                10
            ],
            "name" : "derecho.001"
        },
        {
            "name" : "frente",
            "translation" : [
                0.949999988079071,
                0.0,
                -0.0
            ]
        },
        {
            "name" : "izquierda",
            "translation" : [
                0.0,
                0.0,
                0.949999988079071
            ]
        },
        {
            "mesh" : 4,
            "name" : "patas",
            "rotation" : [
                0.0,
                0.7071068286895752,
                -0.0,
                0.7071067690849304
            ],
            "scale" : [
                0.014494650065898895,
                0.017027929425239563,
                0.014494650065898895
            ],
            "translation" : [
                0.19719597697257996,
                -0.2384398877620697,
                -0.09508097916841507
            ]
        },
        {
            "mesh" : 5,
            "name" : "respaldo.000",
            "rotation" : [
                0.0,
                0.0,
                -0.7071068286895752,
                0.7071068286895752
            ],
            "scale" : [
                0.46685799956321716,
                0.337478905916214,
                0.4820878207683563
            ],
            "translation" : [
                -0.18885254859924316,
                0.2493370622396469,
                -0.08619263768196106
            ]
        },
        {
            "mesh" : 0,
            "name" : "respaldo.001",
            "rotation" : [
                -0.5000000596046448,
                0.5,
                -0.5,
                0.5000000596046448
            ],
            "scale" : [
                0.46685799956321716,
                0.337478905916214,
                0.39381685853004456
            ],
            "translation" : [
                0.28548330068588257,
                0.2493370622396469,
                -0.47207319736480713
            ]
        }
    ],
    "samplers" : [
        {}
    ],
    "scene" : 0,
    "scenes" : [
        {
            "name" : "Scene",
            "nodes" : [
                5
            ]
        }
    ],
    "textures" : [
        {
            "sampler" : 0,
            "source" : 0
        },
        {
            "sampler" : 0,
            "source" : 0
        }
    ]
}
