{
    "asset" : {
        "generator" : "Khronos Blender glTF 2.0 I/O",
        "version" : "2.0"
    },
    "scene" : 0,
    "scenes" : [
        {
            "name" : "Scene",
            "nodes" : [
                10
            ]
        }
    ],
    "nodes" : [
        {
            "mesh" : 0,
            "name" : "asiento",
            "translation" : [
                0.414582222700119,
                1.466257095336914,
                0.485235333442688
            ]
        },
        {
            "mesh" : 1,
            "name" : "asiento.002",
            "rotation" : [
                0,
                0,
                -0.5743598937988281,
                0.8186029195785522
            ],
            "translation" : [
                -0.9308883547782898,
                3.467766046524048,
                0.9516255855560303
            ]
        },
        {
            "mesh" : 2,
            "name" : "asiento.003",
            "rotation" : [
                -0.5000001192092896,
                0.5000000596046448,
                -0.49999988079071045,
                0.4999999403953552
            ],
            "translation" : [
                0.3963690996170044,
                1.5923207998275757,
                -1.9489134550094604
            ]
        },
        {
            "mesh" : 3,
            "name" : "asiento.004",
            "rotation" : [
                0.4882435202598572,
                -0.5114874839782715,
                -0.48824235796928406,
                0.5114864706993103
            ],
            "translation" : [
                0.48465031385421753,
                3.467766046524048,
                -1.158186674118042
            ]
        },
        {
            "mesh" : 4,
            "name" : "base",
            "translation" : [
                0.41458243131637573,
                0.37057143449783325,
                0.45900607109069824
            ]
        },
        {
            "name" : "derecha",
            "translation" : [
                0,
                0,
                -4.75
            ]
        },
        {
            "name" : "frente",
            "translation" : [
                4.75,
                0,
                0
            ]
        },
        {
            "name" : "izquierda",
            "translation" : [
                0,
                0,
                4.75
            ]
        },
        {
            "mesh" : 5,
            "name" : "patas",
            "translation" : [
                -0.0022545456886291504,
                -1.1921995878219604,
                0.025166720151901245
            ]
        },
        {
            "mesh" : 6,
            "name" : "respaldo",
            "rotation" : [
                0,
                0,
                -0.7071068286895752,
                0.7071068286895752
            ],
            "translation" : [
                -1.8660328388214111,
                1.5923207998275757,
                0
            ]
        },
        {
            "children" : [
                0,
                1,
                2,
                3,
                4,
                5,
                6,
                7,
                8,
                9
            ],
            "name" : "centro"
        }
    ],
    "materials" : [
        {
            "emissiveFactor" : [
                0,
                0,
                0
            ],
            "name" : "cojin",
            "pbrMetallicRoughness" : {
                "baseColorFactor" : [
                    1,
                    1,
                    1,
                    1
                ],
                "baseColorTexture" : {
                    "index" : 0,
                    "texCoord" : 0
                },
                "metallicFactor" : 0,
                "roughnessFactor" : 1
            }
        },
        {
            "emissiveFactor" : [
                0,
                0,
                0
            ],
            "name" : "base",
            "pbrMetallicRoughness" : {
                "baseColorFactor" : [
                    1,
                    1,
                    1,
                    1
                ],
                "baseColorTexture" : {
                    "index" : 1,
                    "texCoord" : 0
                },
                "metallicFactor" : 0,
                "roughnessFactor" : 1
            }
        },
        {
            "name" : "patas",
            "pbrMetallicRoughness" : {}
        }
    ],
    "meshes" : [
        {
            "name" : "Cube.001",
            "primitives" : [
                {
                    "attributes" : {
                        "POSITION" : 0,
                        "NORMAL" : 1,
                        "TEXCOORD_0" : 2,
                        "COLOR_0" : 3
                    },
                    "indices" : 4,
                    "material" : 0
                }
            ]
        },
        {
            "name" : "Cube.003",
            "primitives" : [
                {
                    "attributes" : {
                        "POSITION" : 5,
                        "NORMAL" : 6,
                        "TEXCOORD_0" : 7,
                        "COLOR_0" : 8
                    },
                    "indices" : 9,
                    "material" : 0
                }
            ]
        },
        {
            "name" : "Cube.004",
            "primitives" : [
                {
                    "attributes" : {
                        "POSITION" : 10,
                        "NORMAL" : 11,
                        "TEXCOORD_0" : 12,
                        "COLOR_0" : 13
                    },
                    "indices" : 14,
                    "material" : 0
                }
            ]
        },
        {
            "name" : "Cube.005",
            "primitives" : [
                {
                    "attributes" : {
                        "POSITION" : 15,
                        "NORMAL" : 16,
                        "TEXCOORD_0" : 17,
                        "COLOR_0" : 18
                    },
                    "indices" : 19,
                    "material" : 0
                }
            ]
        },
        {
            "name" : "Cube",
            "primitives" : [
                {
                    "attributes" : {
                        "POSITION" : 20,
                        "NORMAL" : 21,
                        "TEXCOORD_0" : 22,
                        "COLOR_0" : 23
                    },
                    "indices" : 24,
                    "material" : 1
                }
            ]
        },
        {
            "name" : "Cylinder.001",
            "primitives" : [
                {
                    "attributes" : {
                        "POSITION" : 25,
                        "NORMAL" : 26
                    },
                    "indices" : 27,
                    "material" : 2
                }
            ]
        },
        {
            "name" : "Cube.002",
            "primitives" : [
                {
                    "attributes" : {
                        "POSITION" : 28,
                        "NORMAL" : 29,
                        "TEXCOORD_0" : 30,
                        "COLOR_0" : 31
                    },
                    "indices" : 32,
                    "material" : 0
                }
            ]
        }
    ],
    "textures" : [
        {
            "source" : 0
        },
        {
            "source" : 1
        }
    ],
    "images" : [
        {
            "mimeType" : "image/jpeg",
            "name" : "Linate-Crudo.jpg",
            "uri" : "Linate-Crudo.jpg"
        },
        {
            "mimeType" : "image/jpeg",
            "name" : "Linate-Crudo.jpg",
            "uri" : "Linate-Crudo.jpg"
        }
    ],
    "accessors" : [
        {
            "bufferView" : 0,
            "componentType" : 5126,
            "count" : 1330,
            "max" : [
                1.9748271703720093,
                0.6051392555236816,
                2.0266923904418945
            ],
            "min" : [
                -1.9740983247756958,
                -0.6249741315841675,
                -2.0264484882354736
            ],
            "type" : "VEC3"
        },
        {
            "bufferView" : 1,
            "componentType" : 5126,
            "count" : 1330,
            "type" : "VEC3"
        },
        {
            "bufferView" : 2,
            "componentType" : 5126,
            "count" : 1330,
            "type" : "VEC2"
        },
        {
            "bufferView" : 3,
            "componentType" : 5126,
            "count" : 1330,
            "type" : "VEC4"
        },
        {
            "bufferView" : 4,
            "componentType" : 5123,
            "count" : 7248,
            "type" : "SCALAR"
        },
        {
            "bufferView" : 5,
            "componentType" : 5126,
            "count" : 1330,
            "max" : [
                1.7324014902114868,
                0.3692546486854553,
                1.761479139328003
            ],
            "min" : [
                -1.5462965965270996,
                -0.38722002506256104,
                -1.7629146575927734
            ],
            "type" : "VEC3"
        },
        {
            "bufferView" : 6,
            "componentType" : 5126,
            "count" : 1330,
            "type" : "VEC3"
        },
        {
            "bufferView" : 7,
            "componentType" : 5126,
            "count" : 1330,
            "type" : "VEC2"
        },
        {
            "bufferView" : 8,
            "componentType" : 5126,
            "count" : 1330,
            "type" : "VEC4"
        },
        {
            "bufferView" : 9,
            "componentType" : 5123,
            "count" : 7248,
            "type" : "SCALAR"
        },
        {
            "bufferView" : 10,
            "componentType" : 5126,
            "count" : 1330,
            "max" : [
                2.7315831184387207,
                0.5898858904838562,
                2.0093994140625
            ],
            "min" : [
                -2.731631278991699,
                -0.6071723699569702,
                -2.0107429027557373
            ],
            "type" : "VEC3"
        },
        {
            "bufferView" : 11,
            "componentType" : 5126,
            "count" : 1330,
            "type" : "VEC3"
        },
        {
            "bufferView" : 12,
            "componentType" : 5126,
            "count" : 1330,
            "type" : "VEC2"
        },
        {
            "bufferView" : 13,
            "componentType" : 5126,
            "count" : 1330,
            "type" : "VEC4"
        },
        {
            "bufferView" : 14,
            "componentType" : 5123,
            "count" : 7248,
            "type" : "SCALAR"
        },
        {
            "bufferView" : 15,
            "componentType" : 5126,
            "count" : 1330,
            "max" : [
                1.7324016094207764,
                0.36925458908081055,
                1.917810320854187
            ],
            "min" : [
                -1.5462967157363892,
                -0.38721996545791626,
                -1.9193732738494873
            ],
            "type" : "VEC3"
        },
        {
            "bufferView" : 16,
            "componentType" : 5126,
            "count" : 1330,
            "type" : "VEC3"
        },
        {
            "bufferView" : 17,
            "componentType" : 5126,
            "count" : 1330,
            "type" : "VEC2"
        },
        {
            "bufferView" : 18,
            "componentType" : 5126,
            "count" : 1330,
            "type" : "VEC4"
        },
        {
            "bufferView" : 19,
            "componentType" : 5123,
            "count" : 7248,
            "type" : "SCALAR"
        },
        {
            "bufferView" : 20,
            "componentType" : 5126,
            "count" : 1925,
            "max" : [
                1.8373682498931885,
                0.6914463639259338,
                1.900215983390808
            ],
            "min" : [
                -1.8373680114746094,
                -1.481833577156067,
                -1.900215983390808
            ],
            "type" : "VEC3"
        },
        {
            "bufferView" : 21,
            "componentType" : 5126,
            "count" : 1925,
            "type" : "VEC3"
        },
        {
            "bufferView" : 22,
            "componentType" : 5126,
            "count" : 1925,
            "type" : "VEC2"
        },
        {
            "bufferView" : 23,
            "componentType" : 5126,
            "count" : 1925,
            "type" : "VEC4"
        },
        {
            "bufferView" : 24,
            "componentType" : 5123,
            "count" : 2916,
            "type" : "SCALAR"
        },
        {
            "bufferView" : 25,
            "componentType" : 5126,
            "count" : 1152,
            "max" : [
                2.2478811740875244,
                0.10330689698457718,
                2.2559821605682373
            ],
            "min" : [
                -2.246670722961426,
                -0.06697239726781845,
                -2.2559804916381836
            ],
            "type" : "VEC3"
        },
        {
            "bufferView" : 26,
            "componentType" : 5126,
            "count" : 1152,
            "type" : "VEC3"
        },
        {
            "bufferView" : 27,
            "componentType" : 5123,
            "count" : 1872,
            "type" : "SCALAR"
        },
        {
            "bufferView" : 28,
            "componentType" : 5126,
            "count" : 1330,
            "max" : [
                2.7315831184387207,
                0.5898858904838562,
                2.492662191390991
            ],
            "min" : [
                -2.731631278991699,
                -0.6071723699569702,
                -2.494328737258911
            ],
            "type" : "VEC3"
        },
        {
            "bufferView" : 29,
            "componentType" : 5126,
            "count" : 1330,
            "type" : "VEC3"
        },
        {
            "bufferView" : 30,
            "componentType" : 5126,
            "count" : 1330,
            "type" : "VEC2"
        },
        {
            "bufferView" : 31,
            "componentType" : 5126,
            "count" : 1330,
            "type" : "VEC4"
        },
        {
            "bufferView" : 32,
            "componentType" : 5123,
            "count" : 7248,
            "type" : "SCALAR"
        }
    ],
    "bufferViews" : [
        {
            "buffer" : 0,
            "byteLength" : 15960,
            "byteOffset" : 0
        },
        {
            "buffer" : 0,
            "byteLength" : 15960,
            "byteOffset" : 15960
        },
        {
            "buffer" : 0,
            "byteLength" : 10640,
            "byteOffset" : 31920
        },
        {
            "buffer" : 0,
            "byteLength" : 21280,
            "byteOffset" : 42560
        },
        {
            "buffer" : 0,
            "byteLength" : 14496,
            "byteOffset" : 63840
        },
        {
            "buffer" : 0,
            "byteLength" : 15960,
            "byteOffset" : 78336
        },
        {
            "buffer" : 0,
            "byteLength" : 15960,
            "byteOffset" : 94296
        },
        {
            "buffer" : 0,
            "byteLength" : 10640,
            "byteOffset" : 110256
        },
        {
            "buffer" : 0,
            "byteLength" : 21280,
            "byteOffset" : 120896
        },
        {
            "buffer" : 0,
            "byteLength" : 14496,
            "byteOffset" : 142176
        },
        {
            "buffer" : 0,
            "byteLength" : 15960,
            "byteOffset" : 156672
        },
        {
            "buffer" : 0,
            "byteLength" : 15960,
            "byteOffset" : 172632
        },
        {
            "buffer" : 0,
            "byteLength" : 10640,
            "byteOffset" : 188592
        },
        {
            "buffer" : 0,
            "byteLength" : 21280,
            "byteOffset" : 199232
        },
        {
            "buffer" : 0,
            "byteLength" : 14496,
            "byteOffset" : 220512
        },
        {
            "buffer" : 0,
            "byteLength" : 15960,
            "byteOffset" : 235008
        },
        {
            "buffer" : 0,
            "byteLength" : 15960,
            "byteOffset" : 250968
        },
        {
            "buffer" : 0,
            "byteLength" : 10640,
            "byteOffset" : 266928
        },
        {
            "buffer" : 0,
            "byteLength" : 21280,
            "byteOffset" : 277568
        },
        {
            "buffer" : 0,
            "byteLength" : 14496,
            "byteOffset" : 298848
        },
        {
            "buffer" : 0,
            "byteLength" : 23100,
            "byteOffset" : 313344
        },
        {
            "buffer" : 0,
            "byteLength" : 23100,
            "byteOffset" : 336444
        },
        {
            "buffer" : 0,
            "byteLength" : 15400,
            "byteOffset" : 359544
        },
        {
            "buffer" : 0,
            "byteLength" : 30800,
            "byteOffset" : 374944
        },
        {
            "buffer" : 0,
            "byteLength" : 5832,
            "byteOffset" : 405744
        },
        {
            "buffer" : 0,
            "byteLength" : 13824,
            "byteOffset" : 411576
        },
        {
            "buffer" : 0,
            "byteLength" : 13824,
            "byteOffset" : 425400
        },
        {
            "buffer" : 0,
            "byteLength" : 3744,
            "byteOffset" : 439224
        },
        {
            "buffer" : 0,
            "byteLength" : 15960,
            "byteOffset" : 442968
        },
        {
            "buffer" : 0,
            "byteLength" : 15960,
            "byteOffset" : 458928
        },
        {
            "buffer" : 0,
            "byteLength" : 10640,
            "byteOffset" : 474888
        },
        {
            "buffer" : 0,
            "byteLength" : 21280,
            "byteOffset" : 485528
        },
        {
            "buffer" : 0,
            "byteLength" : 14496,
            "byteOffset" : 506808
        }
    ],
    "buffers" : [
        {
            "byteLength" : 521304,
            "uri" : "esquinaCasual.bin"
        }
    ]
}
