{
    "asset" : {
        "generator" : "Khronos Blender glTF 2.0 I/O",
        "version" : "2.0"
    },
    "scene" : 0,
    "scenes" : [
        {
            "name" : "Scene",
            "nodes" : [
                1
            ]
        }
    ],
    "nodes" : [
        {
            "mesh" : 0,
            "name" : "main"
        },
        {
            "children" : [
                0
            ],
            "name" : "centro"
        }
    ],
    "materials" : [
        {
            "name" : "main",
            "pbrMetallicRoughness" : {
                "baseColorTexture" : {
                    "index" : 0,
                    "texCoord" : 0
                },
                "metallicFactor" : 0,
                "roughnessFactor" : 0.8714285492897034
            }
        }
    ],
    "meshes" : [
        {
            "name" : "Cube.006",
            "primitives" : [
                {
                    "attributes" : {
                        "POSITION" : 0,
                        "NORMAL" : 1,
                        "TEXCOORD_0" : 2
                    },
                    "indices" : 3,
                    "material" : 0
                }
            ]
        }
    ],
    "textures" : [
        {
            "source" : 0
        }
    ],
    "images" : [
        {
            "mimeType" : "image/jpeg",
            "name" : "GAMUZA AZUL MARINO.jpg",
            "uri" : "GAMUZA AZUL MARINO.jpg"
        }
    ],
    "accessors" : [
        {
            "bufferView" : 0,
            "componentType" : 5126,
            "count" : 8074,
            "max" : [
                3.9932312965393066,
                3.4544193744659424,
                3.2136683464050293
            ],
            "min" : [
                -3.9932312965393066,
                -0.7939260005950928,
                -1.027734637260437
            ],
            "type" : "VEC3"
        },
        {
            "bufferView" : 1,
            "componentType" : 5126,
            "count" : 8074,
            "type" : "VEC3"
        },
        {
            "bufferView" : 2,
            "componentType" : 5126,
            "count" : 8074,
            "type" : "VEC2"
        },
        {
            "bufferView" : 3,
            "componentType" : 5123,
            "count" : 43584,
            "type" : "SCALAR"
        }
    ],
    "bufferViews" : [
        {
            "buffer" : 0,
            "byteLength" : 96888,
            "byteOffset" : 0
        },
        {
            "buffer" : 0,
            "byteLength" : 96888,
            "byteOffset" : 96888
        },
        {
            "buffer" : 0,
            "byteLength" : 64592,
            "byteOffset" : 193776
        },
        {
            "buffer" : 0,
            "byteLength" : 87168,
            "byteOffset" : 258368
        }
    ],
    "buffers" : [
        {
            "byteLength" : 345536,
            "uri" : "Guadalajara.bin"
        }
    ]
}
