{
    "asset" : {
        "generator" : "Khronos Blender glTF 2.0 I/O",
        "version" : "2.0"
    },
    "scene" : 0,
    "scenes" : [
        {
            "name" : "Scene",
            "nodes" : [
                1
            ]
        }
    ],
    "nodes" : [
        {
            "mesh" : 0,
            "name" : "main",
            "rotation" : [
                0,
                -0.094810850918293,
                0,
                0.9954953193664551
            ]
        },
        {
            "children" : [
                0
            ],
            "name" : "centro"
        }
    ],
    "materials" : [
        {
            "name" : "main",
            "pbrMetallicRoughness" : {
                "baseColorTexture" : {
                    "index" : 0,
                    "texCoord" : 0
                },
                "metallicFactor" : 0,
                "roughnessFactor" : 0.9238095283508301
            }
        }
    ],
    "meshes" : [
        {
            "name" : "Cube.018",
            "primitives" : [
                {
                    "attributes" : {
                        "POSITION" : 0,
                        "NORMAL" : 1,
                        "TEXCOORD_0" : 2
                    },
                    "indices" : 3,
                    "material" : 0
                }
            ]
        }
    ],
    "textures" : [
        {
            "source" : 0
        }
    ],
    "images" : [
        {
            "mimeType" : "image/jpeg",
            "name" : "GAMUZA FERRERO.jpg",
            "uri" : "GAMUZA FERRERO.jpg"
        }
    ],
    "accessors" : [
        {
            "bufferView" : 0,
            "componentType" : 5126,
            "count" : 10606,
            "max" : [
                2.0573153495788574,
                0.8471020460128784,
                5.704898834228516
            ],
            "min" : [
                -2.0573153495788574,
                -2.0753893852233887,
                -1.3159173727035522
            ],
            "type" : "VEC3"
        },
        {
            "bufferView" : 1,
            "componentType" : 5126,
            "count" : 10606,
            "type" : "VEC3"
        },
        {
            "bufferView" : 2,
            "componentType" : 5126,
            "count" : 10606,
            "type" : "VEC2"
        },
        {
            "bufferView" : 3,
            "componentType" : 5123,
            "count" : 56880,
            "type" : "SCALAR"
        }
    ],
    "bufferViews" : [
        {
            "buffer" : 0,
            "byteLength" : 127272,
            "byteOffset" : 0
        },
        {
            "buffer" : 0,
            "byteLength" : 127272,
            "byteOffset" : 127272
        },
        {
            "buffer" : 0,
            "byteLength" : 84848,
            "byteOffset" : 254544
        },
        {
            "buffer" : 0,
            "byteLength" : 113760,
            "byteOffset" : 339392
        }
    ],
    "buffers" : [
        {
            "byteLength" : 453152,
            "uri" : "guanajuato.bin"
        }
    ]
}
