{
    "asset" : {
        "generator" : "Khronos Blender glTF 2.0 I/O",
        "version" : "2.0"
    },
    "scene" : 0,
    "scenes" : [
        {
            "name" : "Scene",
            "nodes" : [
                0
            ]
        }
    ],
    "nodes" : [
        {
            "mesh" : 0,
            "name" : "Cube.000",
            "scale" : [
                0.48785245418548584,
                0.48785245418548584,
                0.48785245418548584
            ],
            "translation" : [
                -0.16506028175354004,
                0.6926759481430054,
                0.31798553466796875
            ]
        }
    ],
    "meshes" : [
        {
            "name" : "Cube.006",
            "primitives" : [
                {
                    "attributes" : {
                        "POSITION" : 0,
                        "NORMAL" : 1
                    },
                    "indices" : 2
                }
            ]
        }
    ],
    "accessors" : [
        {
            "bufferView" : 0,
            "componentType" : 5126,
            "count" : 58,
            "max" : [
                3.7208094596862793,
                4.6604132652282715,
                3.318885087966919
            ],
            "min" : [
                -3.440187692642212,
                -1.7764229774475098,
                -3.1676535606384277
            ],
            "type" : "VEC3"
        },
        {
            "bufferView" : 1,
            "componentType" : 5126,
            "count" : 58,
            "type" : "VEC3"
        },
        {
            "bufferView" : 2,
            "componentType" : 5123,
            "count" : 336,
            "type" : "SCALAR"
        }
    ],
    "bufferViews" : [
        {
            "buffer" : 0,
            "byteLength" : 696,
            "byteOffset" : 0
        },
        {
            "buffer" : 0,
            "byteLength" : 696,
            "byteOffset" : 696
        },
        {
            "buffer" : 0,
            "byteLength" : 672,
            "byteOffset" : 1392
        }
    ],
    "buffers" : [
        {
            "byteLength" : 2064,
            "uri" : "La Paz_chico.bin"
        }
    ]
}
