{
    "asset" : {
        "generator" : "Khronos Blender glTF 2.0 I/O",
        "version" : "2.0"
    },
    "scene" : 0,
    "scenes" : [
        {
            "name" : "Scene",
            "nodes" : [
                1
            ]
        }
    ],
    "nodes" : [
        {
            "mesh" : 0,
            "name" : "main",
            "rotation" : [
                0,
                0.2621515095233917,
                0,
                0.9650267362594604
            ]
        },
        {
            "children" : [
                0
            ],
            "name" : "centro"
        }
    ],
    "materials" : [
        {
            "name" : "main",
            "pbrMetallicRoughness" : {
                "baseColorTexture" : {
                    "index" : 0,
                    "texCoord" : 0
                },
                "metallicFactor" : 0,
                "roughnessFactor" : 0.8857142925262451
            }
        }
    ],
    "meshes" : [
        {
            "name" : "Cube.026",
            "primitives" : [
                {
                    "attributes" : {
                        "POSITION" : 0,
                        "NORMAL" : 1,
                        "TEXCOORD_0" : 2
                    },
                    "indices" : 3,
                    "material" : 0
                }
            ]
        }
    ],
    "textures" : [
        {
            "source" : 0
        }
    ],
    "images" : [
        {
            "mimeType" : "image/jpeg",
            "name" : "GAMUZA DURAZNO.jpg",
            "uri" : "GAMUZA DURAZNO.jpg"
        }
    ],
    "accessors" : [
        {
            "bufferView" : 0,
            "componentType" : 5126,
            "count" : 9334,
            "max" : [
                2.2138209342956543,
                2.8465819358825684,
                2.511643409729004
            ],
            "min" : [
                -2.2138211727142334,
                -0.6956353783607483,
                -1.2518420219421387
            ],
            "type" : "VEC3"
        },
        {
            "bufferView" : 1,
            "componentType" : 5126,
            "count" : 9334,
            "type" : "VEC3"
        },
        {
            "bufferView" : 2,
            "componentType" : 5126,
            "count" : 9334,
            "type" : "VEC2"
        },
        {
            "bufferView" : 3,
            "componentType" : 5123,
            "count" : 50832,
            "type" : "SCALAR"
        }
    ],
    "bufferViews" : [
        {
            "buffer" : 0,
            "byteLength" : 112008,
            "byteOffset" : 0
        },
        {
            "buffer" : 0,
            "byteLength" : 112008,
            "byteOffset" : 112008
        },
        {
            "buffer" : 0,
            "byteLength" : 74672,
            "byteOffset" : 224016
        },
        {
            "buffer" : 0,
            "byteLength" : 101664,
            "byteOffset" : 298688
        }
    ],
    "buffers" : [
        {
            "byteLength" : 400352,
            "uri" : "m\u00e9rida.bin"
        }
    ]
}
