{
    "accessors" : [
        {
            "bufferView" : 0,
            "componentType" : 5123,
            "count" : 50832,
            "max" : [
                9333
            ],
            "min" : [
                0
            ],
            "type" : "SCALAR"
        },
        {
            "bufferView" : 1,
            "componentType" : 5126,
            "count" : 9334,
            "max" : [
                2.2138209342956543,
                2.8465819358825684,
                2.511643409729004
            ],
            "min" : [
                -2.2138211727142334,
                -0.6956353783607483,
                -1.2518420219421387
            ],
            "type" : "VEC3"
        },
        {
            "bufferView" : 2,
            "componentType" : 5126,
            "count" : 9334,
            "max" : [
                0.999969482421875,
                0.999969482421875,
                1.0
            ],
            "min" : [
                -0.999969482421875,
                -1.0,
                -1.0
            ],
            "type" : "VEC3"
        },
        {
            "bufferView" : 3,
            "componentType" : 5126,
            "count" : 9334,
            "max" : [
                0.9856634140014648,
                1.0,
                0.8611583709716797,
                1.0
            ],
            "min" : [
                -0.9868363738059998,
                -0.9999998807907104,
                -1.0,
                1.0
            ],
            "type" : "VEC4"
        },
        {
            "bufferView" : 4,
            "componentType" : 5126,
            "count" : 9334,
            "max" : [
                1.0,
                1.0
            ],
            "min" : [
                0.0,
                0.0
            ],
            "type" : "VEC2"
        }
    ],
    "asset" : {
        "generator" : "Khronos Blender glTF 2.0 exporter",
        "version" : "2.0"
    },
    "bufferViews" : [
        {
            "buffer" : 0,
            "byteLength" : 101664,
            "byteOffset" : 0,
            "target" : 34963
        },
        {
            "buffer" : 0,
            "byteLength" : 112008,
            "byteOffset" : 101664,
            "target" : 34962
        },
        {
            "buffer" : 0,
            "byteLength" : 112008,
            "byteOffset" : 213672,
            "target" : 34962
        },
        {
            "buffer" : 0,
            "byteLength" : 149344,
            "byteOffset" : 325680,
            "target" : 34962
        },
        {
            "buffer" : 0,
            "byteLength" : 74672,
            "byteOffset" : 475024,
            "target" : 34962
        }
    ],
    "buffers" : [
        {
            "byteLength" : 549696,
            "uri" : "m\u00e9rida.bin"
        }
    ],
    "images" : [
        {
            "name" : "GAMUZA DURAZNO",
            "uri" : "GAMUZA DURAZNO.jpg"
        }
    ],
    "materials" : [
        {
            "name" : "base",
            "pbrMetallicRoughness" : {
                "baseColorTexture" : {
                    "index" : 0
                },
                "metallicFactor" : 0.0
            }
        }
    ],
    "meshes" : [
        {
            "name" : "Cube.026",
            "primitives" : [
                {
                    "attributes" : {
                        "NORMAL" : 2,
                        "POSITION" : 1,
                        "TANGENT" : 3,
                        "TEXCOORD_0" : 4
                    },
                    "indices" : 0,
                    "material" : 0
                }
            ]
        }
    ],
    "nodes" : [
        {
            "name" : "Camera",
            "rotation" : [
                0.3955497145652771,
                0.6044327020645142,
                -0.48567691445350647,
                0.49225956201553345
            ],
            "translation" : [
                8.671789169311523,
                2.5211923122406006,
                -0.5165159702301025
            ]
        },
        {
            "mesh" : 0,
            "name" : "Cube.026",
            "rotation" : [
                -7.861139295073372e-08,
                0.2621515989303589,
                2.1354958690267267e-08,
                0.9650267362594604
            ],
            "scale" : [
                0.9999999403953552,
                1.0,
                0.9999999403953552
            ]
        },
        {
            "name" : "Spot",
            "rotation" : [
                -0.38278666138648987,
                0.0,
                -0.0,
                0.923836886882782
            ],
            "translation" : [
                0.28290581703186035,
                6.357662677764893,
                -7.215481758117676
            ]
        },
        {
            "name" : "Spot.001",
            "rotation" : [
                0.2447706162929535,
                0.0,
                -0.0,
                0.969581127166748
            ],
            "scale" : [
                1.0,
                0.9999999403953552,
                0.9999999403953552
            ],
            "translation" : [
                2.733163833618164,
                19.317052841186523,
                9.133617401123047
            ]
        }
    ],
    "samplers" : [
        {}
    ],
    "scene" : 0,
    "scenes" : [
        {
            "name" : "Scene",
            "nodes" : [
                1,
                3,
                0,
                2
            ]
        }
    ],
    "textures" : [
        {
            "sampler" : 0,
            "source" : 0
        }
    ]
}
