{
    "asset" : {
        "generator" : "Khronos Blender glTF 2.0 I/O",
        "version" : "2.0"
    },
    "scene" : 0,
    "scenes" : [
        {
            "name" : "Scene",
            "nodes" : [
                1
            ]
        }
    ],
    "nodes" : [
        {
            "mesh" : 0,
            "name" : "main"
        },
        {
            "children" : [
                0
            ],
            "name" : "centro"
        }
    ],
    "materials" : [
        {
            "name" : "main",
            "pbrMetallicRoughness" : {
                "baseColorTexture" : {
                    "index" : 0,
                    "texCoord" : 0
                },
                "metallicFactor" : 0,
                "roughnessFactor" : 0.9904761910438538
            }
        }
    ],
    "meshes" : [
        {
            "name" : "Cylinder.002",
            "primitives" : [
                {
                    "attributes" : {
                        "POSITION" : 0,
                        "NORMAL" : 1,
                        "TEXCOORD_0" : 2
                    },
                    "indices" : 3,
                    "material" : 0
                }
            ]
        }
    ],
    "textures" : [
        {
            "source" : 0
        }
    ],
    "images" : [
        {
            "mimeType" : "image/jpeg",
            "name" : "GAMUZA ROSA PARA\u00cdSO.jpg",
            "uri" : "GAMUZA ROSA PARA\u00cdSO.jpg"
        }
    ],
    "accessors" : [
        {
            "bufferView" : 0,
            "componentType" : 5126,
            "count" : 27621,
            "max" : [
                2.065851926803589,
                1.8945672512054443,
                2.0460290908813477
            ],
            "min" : [
                -2.0600271224975586,
                -1.836211085319519,
                -2.02502703666687
            ],
            "type" : "VEC3"
        },
        {
            "bufferView" : 1,
            "componentType" : 5126,
            "count" : 27621,
            "type" : "VEC3"
        },
        {
            "bufferView" : 2,
            "componentType" : 5126,
            "count" : 27621,
            "type" : "VEC2"
        },
        {
            "bufferView" : 3,
            "componentType" : 5123,
            "count" : 154596,
            "type" : "SCALAR"
        }
    ],
    "bufferViews" : [
        {
            "buffer" : 0,
            "byteLength" : 331452,
            "byteOffset" : 0
        },
        {
            "buffer" : 0,
            "byteLength" : 331452,
            "byteOffset" : 331452
        },
        {
            "buffer" : 0,
            "byteLength" : 220968,
            "byteOffset" : 662904
        },
        {
            "buffer" : 0,
            "byteLength" : 309192,
            "byteOffset" : 883872
        }
    ],
    "buffers" : [
        {
            "byteLength" : 1193064,
            "uri" : "Oaxaca.bin"
        }
    ]
}
