{
    "asset" : {
        "generator" : "Khronos Blender glTF 2.0 I/O",
        "version" : "2.0"
    },
    "scene" : 0,
    "scenes" : [
        {
            "name" : "Scene",
            "nodes" : [
                0
            ]
        }
    ],
    "nodes" : [
        {
            "mesh" : 0,
            "name" : "Cylinder.006",
            "scale" : [
                0.2001556009054184,
                0.2001556009054184,
                0.2001556009054184
            ],
            "translation" : [
                0.02296561747789383,
                0.30099228024482727,
                0.11888360977172852
            ]
        }
    ],
    "meshes" : [
        {
            "name" : "Cylinder.002",
            "primitives" : [
                {
                    "attributes" : {
                        "POSITION" : 0,
                        "NORMAL" : 1
                    },
                    "indices" : 2
                }
            ]
        }
    ],
    "accessors" : [
        {
            "bufferView" : 0,
            "componentType" : 5126,
            "count" : 1062,
            "max" : [
                1.5849860906600952,
                1.4281843900680542,
                1.5598214864730835
            ],
            "min" : [
                -1.5849865674972534,
                -1.3841936588287354,
                -1.5372520685195923
            ],
            "type" : "VEC3"
        },
        {
            "bufferView" : 1,
            "componentType" : 5126,
            "count" : 1062,
            "type" : "VEC3"
        },
        {
            "bufferView" : 2,
            "componentType" : 5123,
            "count" : 6225,
            "type" : "SCALAR"
        }
    ],
    "bufferViews" : [
        {
            "buffer" : 0,
            "byteLength" : 12744,
            "byteOffset" : 0
        },
        {
            "buffer" : 0,
            "byteLength" : 12744,
            "byteOffset" : 12744
        },
        {
            "buffer" : 0,
            "byteLength" : 12450,
            "byteOffset" : 25488
        }
    ],
    "buffers" : [
        {
            "byteLength" : 37940,
            "uri" : "Oaxaca.bin"
        }
    ]
}
