{
    "accessors" : [
        {
            "bufferView" : 0,
            "componentType" : 5125,
            "count" : 568512,
            "max" : [
                96342
            ],
            "min" : [
                0
            ],
            "type" : "SCALAR"
        },
        {
            "bufferView" : 1,
            "componentType" : 5126,
            "count" : 96343,
            "max" : [
                3.0070595741271973,
                1.4631845951080322,
                3.001905679702759
            ],
            "min" : [
                -2.9929399490356445,
                -2.0259127616882324,
                -2.9980947971343994
            ],
            "type" : "VEC3"
        },
        {
            "bufferView" : 2,
            "componentType" : 5126,
            "count" : 96343,
            "max" : [
                1.0,
                0.999969482421875,
                0.999969482421875
            ],
            "min" : [
                -1.0,
                -1.0,
                -0.999969482421875
            ],
            "type" : "VEC3"
        },
        {
            "bufferView" : 3,
            "componentType" : 5126,
            "count" : 96343,
            "max" : [
                0.9956864714622498,
                1.0,
                0.9405885934829712,
                1.0
            ],
            "min" : [
                -0.9971671104431152,
                -1.0,
                -0.9927769303321838,
                1.0
            ],
            "type" : "VEC4"
        },
        {
            "bufferView" : 4,
            "componentType" : 5126,
            "count" : 96343,
            "max" : [
                1.0,
                1.0
            ],
            "min" : [
                0.0,
                0.0
            ],
            "type" : "VEC2"
        }
    ],
    "asset" : {
        "generator" : "Khronos Blender glTF 2.0 exporter",
        "version" : "2.0"
    },
    "bufferViews" : [
        {
            "buffer" : 0,
            "byteLength" : 2274048,
            "byteOffset" : 0,
            "target" : 34963
        },
        {
            "buffer" : 0,
            "byteLength" : 1156116,
            "byteOffset" : 2274048,
            "target" : 34962
        },
        {
            "buffer" : 0,
            "byteLength" : 1156116,
            "byteOffset" : 3430164,
            "target" : 34962
        },
        {
            "buffer" : 0,
            "byteLength" : 1541488,
            "byteOffset" : 4586280,
            "target" : 34962
        },
        {
            "buffer" : 0,
            "byteLength" : 770744,
            "byteOffset" : 6127768,
            "target" : 34962
        }
    ],
    "buffers" : [
        {
            "byteLength" : 6898512,
            "uri" : "Oaxaca_matrimonial.bin"
        }
    ],
    "images" : [
        {
            "name" : "GAMUZA ROYAL BLUE",
            "uri" : "GAMUZA ROYAL BLUE.jpg"
        }
    ],
    "materials" : [
        {
            "name" : "base",
            "pbrMetallicRoughness" : {
                "baseColorTexture" : {
                    "index" : 0
                },
                "metallicFactor" : 0.0
            }
        }
    ],
    "meshes" : [
        {
            "name" : "Cylinder.039",
            "primitives" : [
                {
                    "attributes" : {
                        "NORMAL" : 2,
                        "POSITION" : 1,
                        "TANGENT" : 3,
                        "TEXCOORD_0" : 4
                    },
                    "indices" : 0,
                    "material" : 0
                }
            ]
        }
    ],
    "nodes" : [
        {
            "mesh" : 0,
            "name" : "Cylinder.039",
            "rotation" : [
                -8.146033536604591e-08,
                0.0,
                -0.0,
                1.0
            ]
        }
    ],
    "samplers" : [
        {}
    ],
    "scene" : 0,
    "scenes" : [
        {
            "name" : "Scene",
            "nodes" : [
                0
            ]
        }
    ],
    "textures" : [
        {
            "sampler" : 0,
            "source" : 0
        }
    ]
}
