{
    "asset" : {
        "generator" : "Khronos Blender glTF 2.0 I/O",
        "version" : "2.0"
    },
    "scene" : 0,
    "scenes" : [
        {
            "name" : "Scene",
            "nodes" : [
                0
            ]
        }
    ],
    "nodes" : [
        {
            "mesh" : 0,
            "name" : "Cylinder.039",
            "scale" : [
                0.09170161932706833,
                0.04939645901322365,
                0.09040400385856628
            ],
            "translation" : [
                0.034439682960510254,
                0.42458289861679077,
                -0.0004076957702636719
            ]
        }
    ],
    "meshes" : [
        {
            "name" : "Cylinder.039",
            "primitives" : [
                {
                    "attributes" : {
                        "POSITION" : 0,
                        "NORMAL" : 1
                    },
                    "indices" : 2
                }
            ]
        }
    ],
    "accessors" : [
        {
            "bufferView" : 0,
            "componentType" : 5126,
            "count" : 5909,
            "max" : [
                6.598729133605957,
                5.006197452545166,
                6.644442558288574
            ],
            "min" : [
                -6.5669941902160645,
                -8.25051212310791,
                -6.6355390548706055
            ],
            "type" : "VEC3"
        },
        {
            "bufferView" : 1,
            "componentType" : 5126,
            "count" : 5909,
            "type" : "VEC3"
        },
        {
            "bufferView" : 2,
            "componentType" : 5123,
            "count" : 35442,
            "type" : "SCALAR"
        }
    ],
    "bufferViews" : [
        {
            "buffer" : 0,
            "byteLength" : 70908,
            "byteOffset" : 0
        },
        {
            "buffer" : 0,
            "byteLength" : 70908,
            "byteOffset" : 70908
        },
        {
            "buffer" : 0,
            "byteLength" : 70884,
            "byteOffset" : 141816
        }
    ],
    "buffers" : [
        {
            "byteLength" : 212700,
            "uri" : "data:application/octet-stream;base64,"
        }
    ]
}
