{
    "asset" : {
        "generator" : "Khronos Blender glTF 2.0 I/O",
        "version" : "2.0"
    },
    "scene" : 0,
    "scenes" : [
        {
            "name" : "Scene",
            "nodes" : [
                1
            ]
        }
    ],
    "nodes" : [
        {
            "mesh" : 0,
            "name" : "main"
        },
        {
            "children" : [
                0
            ],
            "name" : "centro"
        }
    ],
    "materials" : [
        {
            "name" : "main",
            "pbrMetallicRoughness" : {
                "baseColorTexture" : {
                    "index" : 0,
                    "texCoord" : 0
                },
                "metallicFactor" : 0,
                "roughnessFactor" : 0.9333333373069763
            }
        }
    ],
    "meshes" : [
        {
            "name" : "Cylinder.039",
            "primitives" : [
                {
                    "attributes" : {
                        "POSITION" : 0,
                        "NORMAL" : 1,
                        "TEXCOORD_0" : 2
                    },
                    "indices" : 3,
                    "material" : 0
                },
                {
                    "attributes" : {
                        "POSITION" : 4,
                        "NORMAL" : 5,
                        "TEXCOORD_0" : 6
                    },
                    "indices" : 7,
                    "material" : 0
                },
                {
                    "attributes" : {
                        "POSITION" : 8,
                        "NORMAL" : 9,
                        "TEXCOORD_0" : 10
                    },
                    "indices" : 11,
                    "material" : 0
                }
            ]
        }
    ],
    "textures" : [
        {
            "source" : 0
        }
    ],
    "images" : [
        {
            "mimeType" : "image/jpeg",
            "name" : "LONA MARINO GAR.jpg",
            "uri" : "LONA MARINO GAR.jpg"
        }
    ],
    "accessors" : [
        {
            "bufferView" : 0,
            "componentType" : 5126,
            "count" : 65535,
            "max" : [
                3.0057437419891357,
                1.4630656242370605,
                3.0014419555664062
            ],
            "min" : [
                -2.9917354583740234,
                -2.024881601333618,
                -2.9976940155029297
            ],
            "type" : "VEC3"
        },
        {
            "bufferView" : 1,
            "componentType" : 5126,
            "count" : 65535,
            "type" : "VEC3"
        },
        {
            "bufferView" : 2,
            "componentType" : 5126,
            "count" : 65535,
            "type" : "VEC2"
        },
        {
            "bufferView" : 3,
            "componentType" : 5123,
            "count" : 367572,
            "type" : "SCALAR"
        },
        {
            "bufferView" : 4,
            "componentType" : 5126,
            "count" : 30736,
            "max" : [
                3.0057437419891357,
                1.463103175163269,
                2.995032548904419
            ],
            "min" : [
                -2.9917354583740234,
                -1.9868284463882446,
                -2.99678635597229
            ],
            "type" : "VEC3"
        },
        {
            "bufferView" : 5,
            "componentType" : 5126,
            "count" : 30736,
            "type" : "VEC3"
        },
        {
            "bufferView" : 6,
            "componentType" : 5126,
            "count" : 30736,
            "type" : "VEC2"
        },
        {
            "bufferView" : 7,
            "componentType" : 5123,
            "count" : 163644,
            "type" : "SCALAR"
        },
        {
            "bufferView" : 8,
            "componentType" : 5126,
            "count" : 12485,
            "max" : [
                3.005251407623291,
                1.463103175163269,
                2.9972143173217773
            ],
            "min" : [
                -2.9917349815368652,
                -1.9868285655975342,
                -2.997366428375244
            ],
            "type" : "VEC3"
        },
        {
            "bufferView" : 9,
            "componentType" : 5126,
            "count" : 12485,
            "type" : "VEC3"
        },
        {
            "bufferView" : 10,
            "componentType" : 5126,
            "count" : 12485,
            "type" : "VEC2"
        },
        {
            "bufferView" : 11,
            "componentType" : 5123,
            "count" : 37296,
            "type" : "SCALAR"
        }
    ],
    "bufferViews" : [
        {
            "buffer" : 0,
            "byteLength" : 786420,
            "byteOffset" : 0
        },
        {
            "buffer" : 0,
            "byteLength" : 786420,
            "byteOffset" : 786420
        },
        {
            "buffer" : 0,
            "byteLength" : 524280,
            "byteOffset" : 1572840
        },
        {
            "buffer" : 0,
            "byteLength" : 735144,
            "byteOffset" : 2097120
        },
        {
            "buffer" : 0,
            "byteLength" : 368832,
            "byteOffset" : 2832264
        },
        {
            "buffer" : 0,
            "byteLength" : 368832,
            "byteOffset" : 3201096
        },
        {
            "buffer" : 0,
            "byteLength" : 245888,
            "byteOffset" : 3569928
        },
        {
            "buffer" : 0,
            "byteLength" : 327288,
            "byteOffset" : 3815816
        },
        {
            "buffer" : 0,
            "byteLength" : 149820,
            "byteOffset" : 4143104
        },
        {
            "buffer" : 0,
            "byteLength" : 149820,
            "byteOffset" : 4292924
        },
        {
            "buffer" : 0,
            "byteLength" : 99880,
            "byteOffset" : 4442744
        },
        {
            "buffer" : 0,
            "byteLength" : 74592,
            "byteOffset" : 4542624
        }
    ],
    "buffers" : [
        {
            "byteLength" : 4617216,
            "uri" : "Oaxaca_matrimonial.bin"
        }
    ]
}
