{
    "asset" : {
        "generator" : "Khronos Blender glTF 2.0 I/O",
        "version" : "2.0"
    },
    "scene" : 0,
    "scenes" : [
        {
            "name" : "Scene",
            "nodes" : [
                1
            ]
        }
    ],
    "nodes" : [
        {
            "mesh" : 0,
            "name" : "main",
            "rotation" : [
                0,
                -0.36857154965400696,
                0,
                0.929599404335022
            ]
        },
        {
            "children" : [
                0
            ],
            "name" : "centro"
        }
    ],
    "materials" : [
        {
            "name" : "main",
            "pbrMetallicRoughness" : {
                "baseColorTexture" : {
                    "index" : 0,
                    "texCoord" : 0
                },
                "metallicFactor" : 0,
                "roughnessFactor" : 0.9047619104385376
            }
        }
    ],
    "meshes" : [
        {
            "name" : "Plane.023",
            "primitives" : [
                {
                    "attributes" : {
                        "POSITION" : 0,
                        "NORMAL" : 1,
                        "TEXCOORD_0" : 2
                    },
                    "indices" : 3,
                    "material" : 0
                }
            ]
        }
    ],
    "textures" : [
        {
            "source" : 0
        }
    ],
    "images" : [
        {
            "mimeType" : "image/jpeg",
            "name" : "LONA AZUL REY.jpg",
            "uri" : "LONA AZUL REY.jpg"
        }
    ],
    "accessors" : [
        {
            "bufferView" : 0,
            "componentType" : 5126,
            "count" : 11453,
            "max" : [
                2.2500462532043457,
                0.5914778709411621,
                3.2505950927734375
            ],
            "min" : [
                -2.249953508377075,
                -0.651671826839447,
                -3.2494051456451416
            ],
            "type" : "VEC3"
        },
        {
            "bufferView" : 1,
            "componentType" : 5126,
            "count" : 11453,
            "type" : "VEC3"
        },
        {
            "bufferView" : 2,
            "componentType" : 5126,
            "count" : 11453,
            "type" : "VEC2"
        },
        {
            "bufferView" : 3,
            "componentType" : 5123,
            "count" : 61248,
            "type" : "SCALAR"
        }
    ],
    "bufferViews" : [
        {
            "buffer" : 0,
            "byteLength" : 137436,
            "byteOffset" : 0
        },
        {
            "buffer" : 0,
            "byteLength" : 137436,
            "byteOffset" : 137436
        },
        {
            "buffer" : 0,
            "byteLength" : 91624,
            "byteOffset" : 274872
        },
        {
            "buffer" : 0,
            "byteLength" : 122496,
            "byteOffset" : 366496
        }
    ],
    "buffers" : [
        {
            "byteLength" : 488992,
            "uri" : "puebla_chico.bin"
        }
    ]
}
