{
    "asset" : {
        "generator" : "Khronos Blender glTF 2.0 I/O",
        "version" : "2.0"
    },
    "scene" : 0,
    "scenes" : [
        {
            "name" : "Scene",
            "nodes" : [
                0
            ]
        }
    ],
    "nodes" : [
        {
            "mesh" : 0,
            "name" : "Plane.000",
            "scale" : [
                0.5424904823303223,
                0.2560924291610718,
                0.7456192374229431
            ],
            "translation" : [
                -0.013962745666503906,
                0.20828700065612793,
                0.0010701417922973633
            ]
        }
    ],
    "meshes" : [
        {
            "name" : "Plane.022",
            "primitives" : [
                {
                    "attributes" : {
                        "POSITION" : 0,
                        "NORMAL" : 1
                    },
                    "indices" : 2
                }
            ]
        }
    ],
    "accessors" : [
        {
            "bufferView" : 0,
            "componentType" : 5126,
            "count" : 640,
            "max" : [
                1.1529426574707031,
                0.46861034631729126,
                1.1819791793823242
            ],
            "min" : [
                -1.1528851985931396,
                -0.5102745890617371,
                -1.1813507080078125
            ],
            "type" : "VEC3"
        },
        {
            "bufferView" : 1,
            "componentType" : 5126,
            "count" : 640,
            "type" : "VEC3"
        },
        {
            "bufferView" : 2,
            "componentType" : 5123,
            "count" : 3828,
            "type" : "SCALAR"
        }
    ],
    "bufferViews" : [
        {
            "buffer" : 0,
            "byteLength" : 7680,
            "byteOffset" : 0
        },
        {
            "buffer" : 0,
            "byteLength" : 7680,
            "byteOffset" : 7680
        },
        {
            "buffer" : 0,
            "byteLength" : 7656,
            "byteOffset" : 15360
        }
    ],
    "buffers" : [
        {
            "byteLength" : 23016,
            "uri" : "puebla.bin"
        }
    ]
}
