{
    "asset" : {
        "generator" : "Khronos Blender glTF 2.0 I/O",
        "version" : "2.0"
    },
    "scene" : 0,
    "scenes" : [
        {
            "name" : "Scene",
            "nodes" : [
                1
            ]
        }
    ],
    "nodes" : [
        {
            "mesh" : 0,
            "name" : "main",
            "rotation" : [
                0.008004264906048775,
                0.9919260740280151,
                -0.08339831978082657,
                0.09520173072814941
            ]
        },
        {
            "children" : [
                0
            ],
            "name" : "centro"
        }
    ],
    "materials" : [
        {
            "name" : "main",
            "pbrMetallicRoughness" : {
                "baseColorTexture" : {
                    "index" : 0,
                    "texCoord" : 0
                },
                "metallicFactor" : 0,
                "roughnessFactor" : 0.961904764175415
            }
        }
    ],
    "meshes" : [
        {
            "name" : "Cube.003",
            "primitives" : [
                {
                    "attributes" : {
                        "POSITION" : 0,
                        "NORMAL" : 1,
                        "TEXCOORD_0" : 2
                    },
                    "indices" : 3,
                    "material" : 0
                }
            ]
        }
    ],
    "textures" : [
        {
            "source" : 0
        }
    ],
    "images" : [
        {
            "mimeType" : "image/jpeg",
            "name" : "GAMUZA MIMOSA.jpg",
            "uri" : "GAMUZA MIMOSA.jpg"
        }
    ],
    "accessors" : [
        {
            "bufferView" : 0,
            "componentType" : 5126,
            "count" : 3160,
            "max" : [
                2.2607498168945312,
                1.7375426292419434,
                1.2892060279846191
            ],
            "min" : [
                -2.2607498168945312,
                -3.2368597984313965,
                -5.661792755126953
            ],
            "type" : "VEC3"
        },
        {
            "bufferView" : 1,
            "componentType" : 5126,
            "count" : 3160,
            "type" : "VEC3"
        },
        {
            "bufferView" : 2,
            "componentType" : 5126,
            "count" : 3160,
            "type" : "VEC2"
        },
        {
            "bufferView" : 3,
            "componentType" : 5123,
            "count" : 16944,
            "type" : "SCALAR"
        }
    ],
    "bufferViews" : [
        {
            "buffer" : 0,
            "byteLength" : 37920,
            "byteOffset" : 0
        },
        {
            "buffer" : 0,
            "byteLength" : 37920,
            "byteOffset" : 37920
        },
        {
            "buffer" : 0,
            "byteLength" : 25280,
            "byteOffset" : 75840
        },
        {
            "buffer" : 0,
            "byteLength" : 33888,
            "byteOffset" : 101120
        }
    ],
    "buffers" : [
        {
            "byteLength" : 135008,
            "uri" : "PuertoVallarta.bin"
        }
    ]
}
