{
    "accessors" : [
        {
            "bufferView" : 0,
            "componentType" : 5123,
            "count" : 5472,
            "max" : [
                981
            ],
            "min" : [
                0
            ],
            "type" : "SCALAR"
        },
        {
            "bufferView" : 1,
            "componentType" : 5126,
            "count" : 982,
            "max" : [
                0.15648260712623596,
                0.017713377252221107,
                0.5231721997261047
            ],
            "min" : [
                -0.4993712306022644,
                -0.24361999332904816,
                -0.8253121972084045
            ],
            "type" : "VEC3"
        },
        {
            "bufferView" : 2,
            "componentType" : 5126,
            "count" : 982,
            "max" : [
                0.9977721571922302,
                1.0,
                0.9930417537689209
            ],
            "min" : [
                -0.9935300946235657,
                -1.0,
                -0.9247718453407288
            ],
            "type" : "VEC3"
        },
        {
            "bufferView" : 3,
            "componentType" : 5123,
            "count" : 24288,
            "max" : [
                4115
            ],
            "min" : [
                0
            ],
            "type" : "SCALAR"
        },
        {
            "bufferView" : 4,
            "componentType" : 5126,
            "count" : 4116,
            "max" : [
                0.21674251556396484,
                0.017713453620672226,
                0.8348820209503174
            ],
            "min" : [
                -0.6069539785385132,
                -0.2309020757675171,
                -0.8721408843994141
            ],
            "type" : "VEC3"
        },
        {
            "bufferView" : 5,
            "componentType" : 5126,
            "count" : 4116,
            "max" : [
                0.999969482421875,
                1.0,
                0.99957275390625
            ],
            "min" : [
                -0.999847412109375,
                -1.0,
                -0.999908447265625
            ],
            "type" : "VEC3"
        },
        {
            "bufferView" : 6,
            "componentType" : 5123,
            "count" : 161256,
            "max" : [
                30361
            ],
            "min" : [
                0
            ],
            "type" : "SCALAR"
        },
        {
            "bufferView" : 7,
            "componentType" : 5126,
            "count" : 30362,
            "max" : [
                0.34019890427589417,
                1.9537341594696045,
                0.45111769437789917
            ],
            "min" : [
                -3.4488656520843506,
                -2.2681121826171875,
                -3.756208658218384
            ],
            "type" : "VEC3"
        },
        {
            "bufferView" : 8,
            "componentType" : 5126,
            "count" : 30362,
            "max" : [
                0.999969482421875,
                1.0,
                0.999969482421875
            ],
            "min" : [
                -0.999969482421875,
                -1.0,
                -0.999969482421875
            ],
            "type" : "VEC3"
        },
        {
            "bufferView" : 9,
            "componentType" : 5126,
            "count" : 30362,
            "max" : [
                1.0,
                0.9999992847442627,
                0.9999998211860657,
                1.0
            ],
            "min" : [
                -1.0,
                -0.9999975562095642,
                -1.0,
                1.0
            ],
            "type" : "VEC4"
        },
        {
            "bufferView" : 10,
            "componentType" : 5126,
            "count" : 30362,
            "max" : [
                1.0,
                1.0
            ],
            "min" : [
                0.0,
                0.0
            ],
            "type" : "VEC2"
        },
        {
            "bufferView" : 11,
            "componentType" : 5123,
            "count" : 31704,
            "max" : [
                5428
            ],
            "min" : [
                0
            ],
            "type" : "SCALAR"
        },
        {
            "bufferView" : 12,
            "componentType" : 5126,
            "count" : 5429,
            "max" : [
                -2.889883279800415,
                0.5698747038841248,
                -1.5144762992858887
            ],
            "min" : [
                -3.1829185485839844,
                -0.6675727367401123,
                -1.9158639907836914
            ],
            "type" : "VEC3"
        },
        {
            "bufferView" : 13,
            "componentType" : 5126,
            "count" : 5429,
            "max" : [
                0.9967039823532104,
                0.999969482421875,
                0.843775749206543
            ],
            "min" : [
                -0.99951171875,
                -0.9996337890625,
                -0.9915463924407959
            ],
            "type" : "VEC3"
        },
        {
            "bufferView" : 14,
            "componentType" : 5126,
            "count" : 5429,
            "max" : [
                0.8437336087226868,
                0.9995936155319214,
                0.9998645186424255,
                1.0
            ],
            "min" : [
                -0.9997592568397522,
                -0.9994749426841736,
                -0.9895007610321045,
                1.0
            ],
            "type" : "VEC4"
        },
        {
            "bufferView" : 15,
            "componentType" : 5126,
            "count" : 5429,
            "max" : [
                0.23859360814094543,
                0.5091342329978943
            ],
            "min" : [
                0.23513059318065643,
                0.4908679723739624
            ],
            "type" : "VEC2"
        },
        {
            "bufferView" : 16,
            "componentType" : 5123,
            "count" : 5952,
            "max" : [
                1055
            ],
            "min" : [
                0
            ],
            "type" : "SCALAR"
        },
        {
            "bufferView" : 17,
            "componentType" : 5126,
            "count" : 1056,
            "max" : [
                0.4993712306022644,
                -0.14505355060100555,
                0.5231721997261047
            ],
            "min" : [
                -0.15648260712623596,
                -0.24362003803253174,
                -0.8362102508544922
            ],
            "type" : "VEC3"
        },
        {
            "bufferView" : 18,
            "componentType" : 5126,
            "count" : 1056,
            "max" : [
                0.9935300946235657,
                -0.03329569473862648,
                0.9930417537689209
            ],
            "min" : [
                -0.9977721571922302,
                -1.0,
                -0.999114990234375
            ],
            "type" : "VEC3"
        },
        {
            "bufferView" : 19,
            "componentType" : 5123,
            "count" : 23808,
            "max" : [
                4033
            ],
            "min" : [
                0
            ],
            "type" : "SCALAR"
        },
        {
            "bufferView" : 20,
            "componentType" : 5126,
            "count" : 4034,
            "max" : [
                0.6069539785385132,
                0.017713457345962524,
                0.8348820209503174
            ],
            "min" : [
                -0.21674251556396484,
                -0.23090212047100067,
                -0.8721408843994141
            ],
            "type" : "VEC3"
        },
        {
            "bufferView" : 21,
            "componentType" : 5126,
            "count" : 4034,
            "max" : [
                0.999847412109375,
                1.0,
                0.99957275390625
            ],
            "min" : [
                -0.999969482421875,
                -1.0,
                -0.999908447265625
            ],
            "type" : "VEC3"
        }
    ],
    "asset" : {
        "generator" : "Khronos Blender glTF 2.0 exporter",
        "version" : "2.0"
    },
    "bufferViews" : [
        {
            "buffer" : 0,
            "byteLength" : 10944,
            "byteOffset" : 0,
            "target" : 34963
        },
        {
            "buffer" : 0,
            "byteLength" : 11784,
            "byteOffset" : 10944,
            "target" : 34962
        },
        {
            "buffer" : 0,
            "byteLength" : 11784,
            "byteOffset" : 22728,
            "target" : 34962
        },
        {
            "buffer" : 0,
            "byteLength" : 48576,
            "byteOffset" : 34512,
            "target" : 34963
        },
        {
            "buffer" : 0,
            "byteLength" : 49392,
            "byteOffset" : 83088,
            "target" : 34962
        },
        {
            "buffer" : 0,
            "byteLength" : 49392,
            "byteOffset" : 132480,
            "target" : 34962
        },
        {
            "buffer" : 0,
            "byteLength" : 322512,
            "byteOffset" : 181872,
            "target" : 34963
        },
        {
            "buffer" : 0,
            "byteLength" : 364344,
            "byteOffset" : 504384,
            "target" : 34962
        },
        {
            "buffer" : 0,
            "byteLength" : 364344,
            "byteOffset" : 868728,
            "target" : 34962
        },
        {
            "buffer" : 0,
            "byteLength" : 485792,
            "byteOffset" : 1233072,
            "target" : 34962
        },
        {
            "buffer" : 0,
            "byteLength" : 242896,
            "byteOffset" : 1718864,
            "target" : 34962
        },
        {
            "buffer" : 0,
            "byteLength" : 63408,
            "byteOffset" : 1961760,
            "target" : 34963
        },
        {
            "buffer" : 0,
            "byteLength" : 65148,
            "byteOffset" : 2025168,
            "target" : 34962
        },
        {
            "buffer" : 0,
            "byteLength" : 65148,
            "byteOffset" : 2090316,
            "target" : 34962
        },
        {
            "buffer" : 0,
            "byteLength" : 86864,
            "byteOffset" : 2155464,
            "target" : 34962
        },
        {
            "buffer" : 0,
            "byteLength" : 43432,
            "byteOffset" : 2242328,
            "target" : 34962
        },
        {
            "buffer" : 0,
            "byteLength" : 11904,
            "byteOffset" : 2285760,
            "target" : 34963
        },
        {
            "buffer" : 0,
            "byteLength" : 12672,
            "byteOffset" : 2297664,
            "target" : 34962
        },
        {
            "buffer" : 0,
            "byteLength" : 12672,
            "byteOffset" : 2310336,
            "target" : 34962
        },
        {
            "buffer" : 0,
            "byteLength" : 47616,
            "byteOffset" : 2323008,
            "target" : 34963
        },
        {
            "buffer" : 0,
            "byteLength" : 48408,
            "byteOffset" : 2370624,
            "target" : 34962
        },
        {
            "buffer" : 0,
            "byteLength" : 48408,
            "byteOffset" : 2419032,
            "target" : 34962
        }
    ],
    "buffers" : [
        {
            "byteLength" : 2467440,
            "uri" : "puff_conejo .bin"
        }
    ],
    "images" : [
        {
            "name" : "GAMUZA AZUL CIELO",
            "uri" : "GAMUZA AZUL CIELO.jpg"
        },
        {
            "name" : "AZUL HIELO",
            "uri" : "AZUL HIELO.jpg"
        },
        {
            "name" : "GAMUZA PET\u00c1LO",
            "uri" : "GAMUZA PET\u00c1LO.jpg"
        },
        {
            "name" : "GAMUZA NEGRO ",
            "uri" : "GAMUZA NEGRO .jpg"
        }
    ],
    "materials" : [
        {
            "name" : "Material",
            "pbrMetallicRoughness" : {
                "baseColorTexture" : {
                    "index" : 0
                },
                "metallicFactor" : 0.0
            }
        },
        {
            "name" : "Material.013",
            "pbrMetallicRoughness" : {
                "baseColorTexture" : {
                    "index" : 1
                },
                "metallicFactor" : 0.0
            }
        },
        {
            "name" : "Material.014",
            "pbrMetallicRoughness" : {
                "baseColorTexture" : {
                    "index" : 2
                },
                "metallicFactor" : 0.0
            }
        },
        {
            "name" : "Material.015",
            "pbrMetallicRoughness" : {
                "baseColorTexture" : {
                    "index" : 2
                },
                "metallicFactor" : 0.0
            }
        },
        {
            "name" : "Material.016",
            "pbrMetallicRoughness" : {
                "baseColorTexture" : {
                    "index" : 4
                },
                "metallicFactor" : 0.0
            }
        }
    ],
    "meshes" : [
        {
            "name" : "Plane.006",
            "primitives" : [
                {
                    "attributes" : {
                        "NORMAL" : 2,
                        "POSITION" : 1
                    },
                    "indices" : 0,
                    "material" : 3
                },
                {
                    "attributes" : {
                        "NORMAL" : 5,
                        "POSITION" : 4
                    },
                    "indices" : 3,
                    "material" : 0
                }
            ]
        },
        {
            "name" : "Plane.007",
            "primitives" : [
                {
                    "attributes" : {
                        "NORMAL" : 8,
                        "POSITION" : 7,
                        "TANGENT" : 9,
                        "TEXCOORD_0" : 10
                    },
                    "indices" : 6,
                    "material" : 1
                },
                {
                    "attributes" : {
                        "NORMAL" : 13,
                        "POSITION" : 12,
                        "TANGENT" : 14,
                        "TEXCOORD_0" : 15
                    },
                    "indices" : 11,
                    "material" : 4
                }
            ]
        },
        {
            "name" : "Plane.004",
            "primitives" : [
                {
                    "attributes" : {
                        "NORMAL" : 18,
                        "POSITION" : 17
                    },
                    "indices" : 16,
                    "material" : 2
                },
                {
                    "attributes" : {
                        "NORMAL" : 21,
                        "POSITION" : 20
                    },
                    "indices" : 19,
                    "material" : 1
                }
            ]
        }
    ],
    "nodes" : [
        {
            "mesh" : 0,
            "name" : "Plane.000",
            "rotation" : [
                -0.6963622570037842,
                0.12279948592185974,
                0.12279951572418213,
                0.6963620781898499
            ],
            "scale" : [
                0.9999999403953552,
                0.9999999403953552,
                1.0
            ],
            "translation" : [
                -0.35989823937416077,
                2.5257859230041504,
                -0.04790604114532471
            ]
        },
        {
            "mesh" : 2,
            "name" : "Plane.002",
            "rotation" : [
                -0.6963622570037842,
                0.12279948592185974,
                0.12279951572418213,
                0.6963620781898499
            ],
            "scale" : [
                0.9999999403953552,
                0.9999999403953552,
                1.0
            ],
            "translation" : [
                0.22950315475463867,
                2.5257859230041504,
                -0.262453556060791
            ]
        },
        {
            "mesh" : 1,
            "name" : "Plane.003",
            "rotation" : [
                0.6841028928756714,
                -0.7084096074104309,
                -0.12063682824373245,
                0.12492281943559647
            ],
            "scale" : [
                1.0,
                0.9999998807907104,
                0.9999998211860657
            ],
            "translation" : [
                -0.3736150562763214,
                -1.5919944047927856,
                -0.6316006183624268
            ]
        }
    ],
    "samplers" : [
        {}
    ],
    "scene" : 0,
    "scenes" : [
        {
            "name" : "Scene",
            "nodes" : [
                1,
                0,
                2
            ]
        }
    ],
    "textures" : [
        {
            "sampler" : 0,
            "source" : 0
        },
        {
            "sampler" : 0,
            "source" : 1
        },
        {
            "sampler" : 0,
            "source" : 2
        },
        {
            "sampler" : 0,
            "source" : 2
        },
        {
            "sampler" : 0,
            "source" : 3
        }
    ]
}
