{
    "asset" : {
        "generator" : "Khronos Blender glTF 2.0 I/O",
        "version" : "2.0"
    },
    "scene" : 0,
    "scenes" : [
        {
            "name" : "Scene",
            "nodes" : [
                0,
                1,
                2,
                3,
                4,
                5,
                6,
                7
            ]
        }
    ],
    "nodes" : [
        {
            "mesh" : 0,
            "name" : "Plane",
            "rotation" : [
                -0.6946583986282349,
                0.7193397879600525,
                0,
                1.9598395795128454e-07
            ],
            "scale" : [
                0.6950963735580444,
                0.6950963735580444,
                0.6950963735580444
            ],
            "translation" : [
                -5.824338436126709,
                -3.2854421138763428,
                -2.603651762008667
            ]
        },
        {
            "name" : "Lamp",
            "rotation" : [
                0.16907575726509094,
                0.7558802962303162,
                -0.27217137813568115,
                0.570947527885437
            ],
            "translation" : [
                4.076245307922363,
                5.903861999511719,
                -1.0054539442062378
            ]
        },
        {
            "name" : "Camera",
            "rotation" : [
                0.483536034822464,
                0.33687159419059753,
                -0.20870360732078552,
                0.7804827094078064
            ],
            "translation" : [
                7.481131553649902,
                5.34366512298584,
                6.5076398849487305
            ]
        },
        {
            "mesh" : 1,
            "name" : "Cube.011",
            "rotation" : [
                0,
                1,
                0,
                -1.6292068494294654e-07
            ],
            "scale" : [
                1.951206922531128,
                0.5477324724197388,
                0.6066949367523193
            ],
            "translation" : [
                -5.611166954040527,
                -1.9590368270874023,
                -0.13588334619998932
            ]
        },
        {
            "mesh" : 2,
            "name" : "Plane.001",
            "rotation" : [
                0.7071068286895752,
                0,
                0,
                0.7071068286895752
            ],
            "scale" : [
                -0.3086012005805969,
                -1.0828930139541626,
                -1.230607509613037
            ],
            "translation" : [
                -5.206144332885742,
                2.493793487548828,
                -1.8272747993469238
            ]
        },
        {
            "mesh" : 3,
            "name" : "Plane.000",
            "rotation" : [
                -0.7071068286895752,
                0,
                0,
                0.7071068286895752
            ],
            "scale" : [
                0.3086012005805969,
                1.082892894744873,
                1.230607509613037
            ],
            "translation" : [
                -6.086458206176758,
                2.493793487548828,
                -1.8272747993469238
            ]
        },
        {
            "mesh" : 4,
            "name" : "Cube.000",
            "rotation" : [
                0,
                1,
                0,
                -1.6292068494294654e-07
            ],
            "scale" : [
                1.951206922531128,
                0.5477324724197388,
                0.6066949367523193
            ],
            "translation" : [
                -20.901371002197266,
                -1.8192797899246216,
                -0.13588334619998932
            ]
        },
        {
            "mesh" : 5,
            "name" : "Cube.001",
            "rotation" : [
                0,
                1,
                0,
                -1.6292068494294654e-07
            ],
            "scale" : [
                1.951206922531128,
                0.5477324724197388,
                0.6066949367523193
            ],
            "translation" : [
                20.511205673217773,
                2.0739307403564453,
                -0.13588334619998932
            ]
        }
    ],
    "materials" : [
        {
            "name" : "Material.008",
            "pbrMetallicRoughness" : {}
        },
        {
            "name" : "Material.010",
            "pbrMetallicRoughness" : {}
        },
        {
            "name" : "Material.002",
            "pbrMetallicRoughness" : {}
        },
        {
            "name" : "Material.003",
            "pbrMetallicRoughness" : {}
        },
        {
            "name" : "Material.001",
            "pbrMetallicRoughness" : {}
        },
        {
            "name" : "Material.007",
            "pbrMetallicRoughness" : {}
        }
    ],
    "meshes" : [
        {
            "name" : "Plane.005",
            "primitives" : [
                {
                    "attributes" : {
                        "POSITION" : 0,
                        "NORMAL" : 1
                    },
                    "indices" : 2,
                    "material" : 0
                }
            ]
        },
        {
            "name" : "Cube.011",
            "primitives" : [
                {
                    "attributes" : {
                        "POSITION" : 3,
                        "NORMAL" : 4
                    },
                    "indices" : 5,
                    "material" : 1
                }
            ]
        },
        {
            "name" : "Plane.001",
            "primitives" : [
                {
                    "attributes" : {
                        "POSITION" : 6,
                        "NORMAL" : 7
                    },
                    "indices" : 8,
                    "material" : 2
                }
            ]
        },
        {
            "name" : "Plane.002",
            "primitives" : [
                {
                    "attributes" : {
                        "POSITION" : 9,
                        "NORMAL" : 10
                    },
                    "indices" : 11,
                    "material" : 3
                }
            ]
        },
        {
            "name" : "Cube.001",
            "primitives" : [
                {
                    "attributes" : {
                        "POSITION" : 12,
                        "NORMAL" : 13
                    },
                    "indices" : 14,
                    "material" : 4
                }
            ]
        },
        {
            "name" : "Cube.002",
            "primitives" : [
                {
                    "attributes" : {
                        "POSITION" : 15,
                        "NORMAL" : 16
                    },
                    "indices" : 17,
                    "material" : 5
                }
            ]
        }
    ],
    "accessors" : [
        {
            "bufferView" : 0,
            "componentType" : 5126,
            "count" : 70,
            "max" : [
                0.5340737700462341,
                0.052746497094631195,
                0.9328860640525818
            ],
            "min" : [
                -0.5669823884963989,
                -0.4224036633968353,
                -0.9677853584289551
            ],
            "type" : "VEC3"
        },
        {
            "bufferView" : 1,
            "componentType" : 5126,
            "count" : 70,
            "type" : "VEC3"
        },
        {
            "bufferView" : 2,
            "componentType" : 5123,
            "count" : 408,
            "type" : "SCALAR"
        },
        {
            "bufferView" : 3,
            "componentType" : 5126,
            "count" : 1023,
            "max" : [
                0.0938577950000763,
                6.361797332763672,
                3.688201427459717
            ],
            "min" : [
                -1.5244746208190918,
                -3.166200637817383,
                -4.6322736740112305
            ],
            "type" : "VEC3"
        },
        {
            "bufferView" : 4,
            "componentType" : 5126,
            "count" : 1023,
            "type" : "VEC3"
        },
        {
            "bufferView" : 5,
            "componentType" : 5123,
            "count" : 5946,
            "type" : "SCALAR"
        },
        {
            "bufferView" : 6,
            "componentType" : 5126,
            "count" : 312,
            "max" : [
                1,
                0.02369808964431286,
                0.9559189677238464
            ],
            "min" : [
                -2.7788312435150146,
                -0.31986451148986816,
                -1
            ],
            "type" : "VEC3"
        },
        {
            "bufferView" : 7,
            "componentType" : 5126,
            "count" : 312,
            "type" : "VEC3"
        },
        {
            "bufferView" : 8,
            "componentType" : 5123,
            "count" : 1860,
            "type" : "SCALAR"
        },
        {
            "bufferView" : 9,
            "componentType" : 5126,
            "count" : 312,
            "max" : [
                1,
                0.02369808964431286,
                0.9559189677238464
            ],
            "min" : [
                -2.7788312435150146,
                -0.31986451148986816,
                -1
            ],
            "type" : "VEC3"
        },
        {
            "bufferView" : 10,
            "componentType" : 5126,
            "count" : 312,
            "type" : "VEC3"
        },
        {
            "bufferView" : 11,
            "componentType" : 5123,
            "count" : 1860,
            "type" : "SCALAR"
        },
        {
            "bufferView" : 12,
            "componentType" : 5126,
            "count" : 101,
            "max" : [
                1.7064341306686401,
                6.40972375869751,
                3.7618448734283447
            ],
            "min" : [
                -1.6697603464126587,
                -3.166200637817383,
                -4.663558006286621
            ],
            "type" : "VEC3"
        },
        {
            "bufferView" : 13,
            "componentType" : 5126,
            "count" : 101,
            "type" : "VEC3"
        },
        {
            "bufferView" : 14,
            "componentType" : 5123,
            "count" : 594,
            "type" : "SCALAR"
        },
        {
            "bufferView" : 15,
            "componentType" : 5126,
            "count" : 1023,
            "max" : [
                0.0938577950000763,
                6.361797332763672,
                3.688201427459717
            ],
            "min" : [
                -1.5244746208190918,
                -3.166200637817383,
                -4.6322736740112305
            ],
            "type" : "VEC3"
        },
        {
            "bufferView" : 16,
            "componentType" : 5126,
            "count" : 1023,
            "type" : "VEC3"
        },
        {
            "bufferView" : 17,
            "componentType" : 5123,
            "count" : 5946,
            "type" : "SCALAR"
        }
    ],
    "bufferViews" : [
        {
            "buffer" : 0,
            "byteLength" : 840,
            "byteOffset" : 0
        },
        {
            "buffer" : 0,
            "byteLength" : 840,
            "byteOffset" : 840
        },
        {
            "buffer" : 0,
            "byteLength" : 816,
            "byteOffset" : 1680
        },
        {
            "buffer" : 0,
            "byteLength" : 12276,
            "byteOffset" : 2496
        },
        {
            "buffer" : 0,
            "byteLength" : 12276,
            "byteOffset" : 14772
        },
        {
            "buffer" : 0,
            "byteLength" : 11892,
            "byteOffset" : 27048
        },
        {
            "buffer" : 0,
            "byteLength" : 3744,
            "byteOffset" : 38940
        },
        {
            "buffer" : 0,
            "byteLength" : 3744,
            "byteOffset" : 42684
        },
        {
            "buffer" : 0,
            "byteLength" : 3720,
            "byteOffset" : 46428
        },
        {
            "buffer" : 0,
            "byteLength" : 3744,
            "byteOffset" : 50148
        },
        {
            "buffer" : 0,
            "byteLength" : 3744,
            "byteOffset" : 53892
        },
        {
            "buffer" : 0,
            "byteLength" : 3720,
            "byteOffset" : 57636
        },
        {
            "buffer" : 0,
            "byteLength" : 1212,
            "byteOffset" : 61356
        },
        {
            "buffer" : 0,
            "byteLength" : 1212,
            "byteOffset" : 62568
        },
        {
            "buffer" : 0,
            "byteLength" : 1188,
            "byteOffset" : 63780
        },
        {
            "buffer" : 0,
            "byteLength" : 12276,
            "byteOffset" : 64968
        },
        {
            "buffer" : 0,
            "byteLength" : 12276,
            "byteOffset" : 77244
        },
        {
            "buffer" : 0,
            "byteLength" : 11892,
            "byteOffset" : 89520
        }
    ],
    "buffers" : [
        {
            "byteLength" : 101412,
            "uri" : "puff_conejo .bin"
        }
    ]
}
