{
    "asset" : {
        "generator" : "Khronos Blender glTF 2.0 I/O",
        "version" : "2.0"
    },
    "scene" : 0,
    "scenes" : [
        {
            "name" : "Scene",
            "nodes" : [
                0,
                1,
                2
            ]
        }
    ],
    "nodes" : [
        {
            "mesh" : 0,
            "name" : "Plane.003",
            "rotation" : [
                0.6841030716896057,
                -0.7084094882011414,
                -0.12063691765069962,
                0.12492319196462631
            ],
            "translation" : [
                -0.3053946793079376,
                0.2838982343673706,
                -1.2430508136749268
            ]
        },
        {
            "mesh" : 1,
            "name" : "Plane.000",
            "rotation" : [
                -0.6963621973991394,
                0.12279950827360153,
                0.12279951572418213,
                0.6963621973991394
            ],
            "translation" : [
                -0.291677862405777,
                4.401678085327148,
                -0.6593561768531799
            ]
        },
        {
            "mesh" : 2,
            "name" : "Plane.002",
            "rotation" : [
                -0.6963621973991394,
                0.12279950827360153,
                0.12279951572418213,
                0.6963621973991394
            ],
            "translation" : [
                0.29772359132766724,
                4.401678085327148,
                -0.8739036917686462
            ]
        }
    ],
    "materials" : [
        {
            "name" : "Material.013",
            "pbrMetallicRoughness" : {
                "baseColorTexture" : {
                    "index" : 0,
                    "texCoord" : 0
                },
                "metallicFactor" : 0,
                "roughnessFactor" : 0.9428571462631226
            }
        },
        {
            "name" : "Material.016",
            "pbrMetallicRoughness" : {
                "baseColorTexture" : {
                    "index" : 1,
                    "texCoord" : 0
                },
                "metallicFactor" : 0,
                "roughnessFactor" : 0.5
            }
        },
        {
            "name" : "Material",
            "pbrMetallicRoughness" : {
                "baseColorTexture" : {
                    "index" : 2,
                    "texCoord" : 0
                },
                "metallicFactor" : 0,
                "roughnessFactor" : 0.8380952477455139
            }
        },
        {
            "name" : "Material.015",
            "pbrMetallicRoughness" : {
                "baseColorTexture" : {
                    "index" : 3,
                    "texCoord" : 0
                },
                "metallicFactor" : 0,
                "roughnessFactor" : 0.5
            }
        },
        {
            "name" : "Material.014",
            "pbrMetallicRoughness" : {
                "baseColorTexture" : {
                    "index" : 4,
                    "texCoord" : 0
                },
                "metallicFactor" : 0,
                "roughnessFactor" : 0.5
            }
        }
    ],
    "meshes" : [
        {
            "name" : "Plane.007",
            "primitives" : [
                {
                    "attributes" : {
                        "POSITION" : 0,
                        "NORMAL" : 1,
                        "TEXCOORD_0" : 2
                    },
                    "indices" : 3,
                    "material" : 0
                },
                {
                    "attributes" : {
                        "POSITION" : 4,
                        "NORMAL" : 5,
                        "TEXCOORD_0" : 6
                    },
                    "indices" : 7,
                    "material" : 1
                }
            ]
        },
        {
            "name" : "Plane.006",
            "primitives" : [
                {
                    "attributes" : {
                        "POSITION" : 8,
                        "NORMAL" : 9,
                        "TEXCOORD_0" : 10
                    },
                    "indices" : 11,
                    "material" : 2
                },
                {
                    "attributes" : {
                        "POSITION" : 12,
                        "NORMAL" : 13,
                        "TEXCOORD_0" : 14
                    },
                    "indices" : 15,
                    "material" : 3
                }
            ]
        },
        {
            "name" : "Plane.004",
            "primitives" : [
                {
                    "attributes" : {
                        "POSITION" : 16,
                        "NORMAL" : 17,
                        "TEXCOORD_0" : 18
                    },
                    "indices" : 19,
                    "material" : 0
                },
                {
                    "attributes" : {
                        "POSITION" : 20,
                        "NORMAL" : 21,
                        "TEXCOORD_0" : 22
                    },
                    "indices" : 23,
                    "material" : 4
                }
            ]
        }
    ],
    "textures" : [
        {
            "source" : 0
        },
        {
            "source" : 1
        },
        {
            "source" : 2
        },
        {
            "source" : 3
        },
        {
            "source" : 4
        }
    ],
    "images" : [
        {
            "mimeType" : "image/jpeg",
            "name" : "AZUL HIELO.jpg",
            "uri" : "AZUL HIELO.jpg"
        },
        {
            "mimeType" : "image/jpeg",
            "name" : "GAMUZA NEGRO .jpg.001",
            "uri" : "GAMUZA NEGRO .jpg.jpg"
        },
        {
            "mimeType" : "image/jpeg",
            "name" : "AZUL HIELO.jpg",
            "uri" : "AZUL HIELO.jpg"
        },
        {
            "mimeType" : "image/jpeg",
            "name" : "GAMUZA PET\u00c1LO.jpg",
            "uri" : "GAMUZA PET\u00c1LO.jpg"
        },
        {
            "mimeType" : "image/jpeg",
            "name" : "GAMUZA PET\u00c1LO.jpg",
            "uri" : "GAMUZA PET\u00c1LO.jpg"
        }
    ],
    "accessors" : [
        {
            "bufferView" : 0,
            "componentType" : 5126,
            "count" : 28156,
            "max" : [
                0.34019890427589417,
                1.9537341594696045,
                0.45111769437789917
            ],
            "min" : [
                -3.4488656520843506,
                -2.2681121826171875,
                -3.756208658218384
            ],
            "type" : "VEC3"
        },
        {
            "bufferView" : 1,
            "componentType" : 5126,
            "count" : 28156,
            "type" : "VEC3"
        },
        {
            "bufferView" : 2,
            "componentType" : 5126,
            "count" : 28156,
            "type" : "VEC2"
        },
        {
            "bufferView" : 3,
            "componentType" : 5123,
            "count" : 161256,
            "type" : "SCALAR"
        },
        {
            "bufferView" : 4,
            "componentType" : 5126,
            "count" : 6462,
            "max" : [
                -2.889883279800415,
                0.5698747038841248,
                -1.5144762992858887
            ],
            "min" : [
                -3.1829185485839844,
                -0.6675727367401123,
                -1.9158639907836914
            ],
            "type" : "VEC3"
        },
        {
            "bufferView" : 5,
            "componentType" : 5126,
            "count" : 6462,
            "type" : "VEC3"
        },
        {
            "bufferView" : 6,
            "componentType" : 5126,
            "count" : 6462,
            "type" : "VEC2"
        },
        {
            "bufferView" : 7,
            "componentType" : 5123,
            "count" : 31704,
            "type" : "SCALAR"
        },
        {
            "bufferView" : 8,
            "componentType" : 5126,
            "count" : 1275,
            "max" : [
                0.21619422733783722,
                0.017522985115647316,
                0.8338109254837036
            ],
            "min" : [
                -0.6058322787284851,
                -0.22984223067760468,
                -0.8705514669418335
            ],
            "type" : "VEC3"
        },
        {
            "bufferView" : 9,
            "componentType" : 5126,
            "count" : 1275,
            "type" : "VEC3"
        },
        {
            "bufferView" : 10,
            "componentType" : 5126,
            "count" : 1275,
            "type" : "VEC2"
        },
        {
            "bufferView" : 11,
            "componentType" : 5123,
            "count" : 6072,
            "type" : "SCALAR"
        },
        {
            "bufferView" : 12,
            "componentType" : 5126,
            "count" : 364,
            "max" : [
                0.15611723065376282,
                0.017522910609841347,
                0.524835467338562
            ],
            "min" : [
                -0.4993453323841095,
                -0.24256019294261932,
                -0.8245725035667419
            ],
            "type" : "VEC3"
        },
        {
            "bufferView" : 13,
            "componentType" : 5126,
            "count" : 364,
            "type" : "VEC3"
        },
        {
            "bufferView" : 14,
            "componentType" : 5126,
            "count" : 364,
            "type" : "VEC2"
        },
        {
            "bufferView" : 15,
            "componentType" : 5123,
            "count" : 1368,
            "type" : "SCALAR"
        },
        {
            "bufferView" : 16,
            "componentType" : 5126,
            "count" : 1241,
            "max" : [
                0.6058322787284851,
                0.017522988840937614,
                0.8338109254837036
            ],
            "min" : [
                -0.21619422733783722,
                -0.22984229028224945,
                -0.8705514669418335
            ],
            "type" : "VEC3"
        },
        {
            "bufferView" : 17,
            "componentType" : 5126,
            "count" : 1241,
            "type" : "VEC3"
        },
        {
            "bufferView" : 18,
            "componentType" : 5126,
            "count" : 1241,
            "type" : "VEC2"
        },
        {
            "bufferView" : 19,
            "componentType" : 5123,
            "count" : 5952,
            "type" : "SCALAR"
        },
        {
            "bufferView" : 20,
            "componentType" : 5126,
            "count" : 395,
            "max" : [
                0.4993453323841095,
                -0.14505362510681152,
                0.524835467338562
            ],
            "min" : [
                -0.15611723065376282,
                -0.2425602376461029,
                -0.8352868556976318
            ],
            "type" : "VEC3"
        },
        {
            "bufferView" : 21,
            "componentType" : 5126,
            "count" : 395,
            "type" : "VEC3"
        },
        {
            "bufferView" : 22,
            "componentType" : 5126,
            "count" : 395,
            "type" : "VEC2"
        },
        {
            "bufferView" : 23,
            "componentType" : 5123,
            "count" : 1488,
            "type" : "SCALAR"
        }
    ],
    "bufferViews" : [
        {
            "buffer" : 0,
            "byteLength" : 337872,
            "byteOffset" : 0
        },
        {
            "buffer" : 0,
            "byteLength" : 337872,
            "byteOffset" : 337872
        },
        {
            "buffer" : 0,
            "byteLength" : 225248,
            "byteOffset" : 675744
        },
        {
            "buffer" : 0,
            "byteLength" : 322512,
            "byteOffset" : 900992
        },
        {
            "buffer" : 0,
            "byteLength" : 77544,
            "byteOffset" : 1223504
        },
        {
            "buffer" : 0,
            "byteLength" : 77544,
            "byteOffset" : 1301048
        },
        {
            "buffer" : 0,
            "byteLength" : 51696,
            "byteOffset" : 1378592
        },
        {
            "buffer" : 0,
            "byteLength" : 63408,
            "byteOffset" : 1430288
        },
        {
            "buffer" : 0,
            "byteLength" : 15300,
            "byteOffset" : 1493696
        },
        {
            "buffer" : 0,
            "byteLength" : 15300,
            "byteOffset" : 1508996
        },
        {
            "buffer" : 0,
            "byteLength" : 10200,
            "byteOffset" : 1524296
        },
        {
            "buffer" : 0,
            "byteLength" : 12144,
            "byteOffset" : 1534496
        },
        {
            "buffer" : 0,
            "byteLength" : 4368,
            "byteOffset" : 1546640
        },
        {
            "buffer" : 0,
            "byteLength" : 4368,
            "byteOffset" : 1551008
        },
        {
            "buffer" : 0,
            "byteLength" : 2912,
            "byteOffset" : 1555376
        },
        {
            "buffer" : 0,
            "byteLength" : 2736,
            "byteOffset" : 1558288
        },
        {
            "buffer" : 0,
            "byteLength" : 14892,
            "byteOffset" : 1561024
        },
        {
            "buffer" : 0,
            "byteLength" : 14892,
            "byteOffset" : 1575916
        },
        {
            "buffer" : 0,
            "byteLength" : 9928,
            "byteOffset" : 1590808
        },
        {
            "buffer" : 0,
            "byteLength" : 11904,
            "byteOffset" : 1600736
        },
        {
            "buffer" : 0,
            "byteLength" : 4740,
            "byteOffset" : 1612640
        },
        {
            "buffer" : 0,
            "byteLength" : 4740,
            "byteOffset" : 1617380
        },
        {
            "buffer" : 0,
            "byteLength" : 3160,
            "byteOffset" : 1622120
        },
        {
            "buffer" : 0,
            "byteLength" : 2976,
            "byteOffset" : 1625280
        }
    ],
    "buffers" : [
        {
            "byteLength" : 1628256,
            "uri" : "puff_conejo .bin"
        }
    ]
}
