{
    "asset" : {
        "generator" : "Khronos Blender glTF 2.0 I/O",
        "version" : "2.0"
    },
    "scene" : 0,
    "scenes" : [
        {
            "name" : "Scene",
            "nodes" : [
                1
            ]
        }
    ],
    "nodes" : [
        {
            "mesh" : 0,
            "name" : "main",
            "rotation" : [
                0,
                0.1257602721452713,
                0,
                0.992060661315918
            ]
        },
        {
            "children" : [
                0
            ],
            "name" : "centro"
        }
    ],
    "materials" : [
        {
            "name" : "main",
            "pbrMetallicRoughness" : {
                "baseColorTexture" : {
                    "index" : 0,
                    "texCoord" : 0
                },
                "metallicFactor" : 0,
                "roughnessFactor" : 0.8238095045089722
            }
        }
    ],
    "meshes" : [
        {
            "name" : "Cube.008",
            "primitives" : [
                {
                    "attributes" : {
                        "POSITION" : 0,
                        "NORMAL" : 1,
                        "TEXCOORD_0" : 2
                    },
                    "indices" : 3,
                    "material" : 0
                }
            ]
        }
    ],
    "textures" : [
        {
            "source" : 0
        }
    ],
    "images" : [
        {
            "mimeType" : "image/jpeg",
            "name" : "GAMUZA TOPACIO.jpg",
            "uri" : "GAMUZA TOPACIO.jpg"
        }
    ],
    "accessors" : [
        {
            "bufferView" : 0,
            "componentType" : 5126,
            "count" : 31906,
            "max" : [
                2,
                2.490443229675293,
                2.467407703399658
            ],
            "min" : [
                -2,
                -0.6595567464828491,
                -1.0325919389724731
            ],
            "type" : "VEC3"
        },
        {
            "bufferView" : 1,
            "componentType" : 5126,
            "count" : 31906,
            "type" : "VEC3"
        },
        {
            "bufferView" : 2,
            "componentType" : 5126,
            "count" : 31906,
            "type" : "VEC2"
        },
        {
            "bufferView" : 3,
            "componentType" : 5123,
            "count" : 183552,
            "type" : "SCALAR"
        }
    ],
    "bufferViews" : [
        {
            "buffer" : 0,
            "byteLength" : 382872,
            "byteOffset" : 0
        },
        {
            "buffer" : 0,
            "byteLength" : 382872,
            "byteOffset" : 382872
        },
        {
            "buffer" : 0,
            "byteLength" : 255248,
            "byteOffset" : 765744
        },
        {
            "buffer" : 0,
            "byteLength" : 367104,
            "byteOffset" : 1020992
        }
    ],
    "buffers" : [
        {
            "byteLength" : 1388096,
            "uri" : "p\u00e1tzcuaroNi\u00f1o.bin"
        }
    ]
}
