{
    "asset" : {
        "generator" : "Khronos Blender glTF 2.0 I/O",
        "version" : "2.0"
    },
    "scene" : 0,
    "scenes" : [
        {
            "name" : "Scene",
            "nodes" : [
                1
            ]
        }
    ],
    "nodes" : [
        {
            "mesh" : 0,
            "name" : "main",
            "rotation" : [
                0,
                0.12538376450538635,
                0,
                0.9921083450317383
            ]
        },
        {
            "children" : [
                0
            ],
            "name" : "centro"
        }
    ],
    "materials" : [
        {
            "name" : "main",
            "pbrMetallicRoughness" : {
                "baseColorTexture" : {
                    "index" : 0,
                    "texCoord" : 0
                },
                "metallicFactor" : 0,
                "roughnessFactor" : 0.8238095045089722
            }
        }
    ],
    "meshes" : [
        {
            "name" : "Cube.004",
            "primitives" : [
                {
                    "attributes" : {
                        "POSITION" : 0,
                        "NORMAL" : 1,
                        "TEXCOORD_0" : 2
                    },
                    "indices" : 3,
                    "material" : 0
                }
            ]
        }
    ],
    "textures" : [
        {
            "source" : 0
        }
    ],
    "images" : [
        {
            "mimeType" : "image/jpeg",
            "name" : "GAMUZA NEGRO .jpg",
            "uri" : "GAMUZA NEGRO .jpg"
        }
    ],
    "accessors" : [
        {
            "bufferView" : 0,
            "componentType" : 5126,
            "count" : 9936,
            "max" : [
                2.499999761581421,
                3.1288247108459473,
                2.9159865379333496
            ],
            "min" : [
                -2.499999761581421,
                -0.871175229549408,
                -1.3340129852294922
            ],
            "type" : "VEC3"
        },
        {
            "bufferView" : 1,
            "componentType" : 5126,
            "count" : 9936,
            "type" : "VEC3"
        },
        {
            "bufferView" : 2,
            "componentType" : 5126,
            "count" : 9936,
            "type" : "VEC2"
        },
        {
            "bufferView" : 3,
            "componentType" : 5123,
            "count" : 54720,
            "type" : "SCALAR"
        }
    ],
    "bufferViews" : [
        {
            "buffer" : 0,
            "byteLength" : 119232,
            "byteOffset" : 0
        },
        {
            "buffer" : 0,
            "byteLength" : 119232,
            "byteOffset" : 119232
        },
        {
            "buffer" : 0,
            "byteLength" : 79488,
            "byteOffset" : 238464
        },
        {
            "buffer" : 0,
            "byteLength" : 109440,
            "byteOffset" : 317952
        }
    ],
    "buffers" : [
        {
            "byteLength" : 427392,
            "uri" : "p\u00e1tzcuaro.bin"
        }
    ]
}
