{
    "accessors" : [
        {
            "bufferView" : 0,
            "componentType" : 5123,
            "count" : 2916,
            "max" : [
                1929
            ],
            "min" : [
                0
            ],
            "type" : "SCALAR"
        },
        {
            "bufferView" : 1,
            "componentType" : 5126,
            "count" : 1930,
            "max" : [
                2.3499999046325684,
                0.6886203289031982,
                2.3500003814697266
            ],
            "min" : [
                -2.3499999046325684,
                -1.4757771492004395,
                -2.3500003814697266
            ],
            "type" : "VEC3"
        },
        {
            "bufferView" : 2,
            "componentType" : 5126,
            "count" : 1930,
            "max" : [
                1.0,
                1.0,
                1.0
            ],
            "min" : [
                -1.0,
                -1.0,
                -1.0
            ],
            "type" : "VEC3"
        },
        {
            "bufferView" : 3,
            "componentType" : 5126,
            "count" : 1930,
            "max" : [
                1.0,
                0.0060337926261126995,
                0.7941226363182068,
                1.0
            ],
            "min" : [
                -1.0,
                -0.00763864628970623,
                -1.0,
                1.0
            ],
            "type" : "VEC4"
        },
        {
            "bufferView" : 4,
            "componentType" : 5126,
            "count" : 1930,
            "max" : [
                0.8097859025001526,
                0.999800785764819
            ],
            "min" : [
                0.0001992142351809889,
                0.00019919872283935547
            ],
            "type" : "VEC2"
        },
        {
            "bufferView" : 5,
            "componentType" : 5123,
            "count" : 1872,
            "max" : [
                1151
            ],
            "min" : [
                0
            ],
            "type" : "SCALAR"
        },
        {
            "bufferView" : 6,
            "componentType" : 5126,
            "count" : 1152,
            "max" : [
                2.27115535736084,
                0.09570471942424774,
                2.2805683612823486
            ],
            "min" : [
                -2.27115535736084,
                -0.15457503497600555,
                -2.280566692352295
            ],
            "type" : "VEC3"
        },
        {
            "bufferView" : 7,
            "componentType" : 5126,
            "count" : 1152,
            "max" : [
                0.9749965667724609,
                1.0,
                0.9749959111213684
            ],
            "min" : [
                -0.9749948978424072,
                -1.0,
                -0.9749948978424072
            ],
            "type" : "VEC3"
        },
        {
            "bufferView" : 8,
            "componentType" : 5123,
            "count" : 75504,
            "max" : [
                14089
            ],
            "min" : [
                0
            ],
            "type" : "SCALAR"
        },
        {
            "bufferView" : 9,
            "componentType" : 5126,
            "count" : 14090,
            "max" : [
                2.426206111907959,
                0.5358443856239319,
                2.41937255859375
            ],
            "min" : [
                -2.4261701107025146,
                -0.5342230200767517,
                -2.419036626815796
            ],
            "type" : "VEC3"
        },
        {
            "bufferView" : 10,
            "componentType" : 5126,
            "count" : 14090,
            "max" : [
                0.999969482421875,
                0.999969482421875,
                0.9998779296875
            ],
            "min" : [
                -0.999969482421875,
                -1.0,
                -0.999908447265625
            ],
            "type" : "VEC3"
        },
        {
            "bufferView" : 11,
            "componentType" : 5126,
            "count" : 14090,
            "max" : [
                1.0,
                0.9991630911827087,
                0.9999999403953552,
                1.0
            ],
            "min" : [
                -1.0,
                -0.9998435974121094,
                -0.9999999403953552,
                1.0
            ],
            "type" : "VEC4"
        },
        {
            "bufferView" : 12,
            "componentType" : 5126,
            "count" : 14090,
            "max" : [
                0.9908521771430969,
                0.8733658194541931
            ],
            "min" : [
                -0.005789309740066528,
                -0.0060880184173583984
            ],
            "type" : "VEC2"
        }
    ],
    "asset" : {
        "generator" : "Khronos Blender glTF 2.0 exporter",
        "version" : "2.0"
    },
    "bufferViews" : [
        {
            "buffer" : 0,
            "byteLength" : 5832,
            "byteOffset" : 0,
            "target" : 34963
        },
        {
            "buffer" : 0,
            "byteLength" : 23160,
            "byteOffset" : 5832,
            "target" : 34962
        },
        {
            "buffer" : 0,
            "byteLength" : 23160,
            "byteOffset" : 28992,
            "target" : 34962
        },
        {
            "buffer" : 0,
            "byteLength" : 30880,
            "byteOffset" : 52152,
            "target" : 34962
        },
        {
            "buffer" : 0,
            "byteLength" : 15440,
            "byteOffset" : 83032,
            "target" : 34962
        },
        {
            "buffer" : 0,
            "byteLength" : 3744,
            "byteOffset" : 98472,
            "target" : 34963
        },
        {
            "buffer" : 0,
            "byteLength" : 13824,
            "byteOffset" : 102216,
            "target" : 34962
        },
        {
            "buffer" : 0,
            "byteLength" : 13824,
            "byteOffset" : 116040,
            "target" : 34962
        },
        {
            "buffer" : 0,
            "byteLength" : 151008,
            "byteOffset" : 129864,
            "target" : 34963
        },
        {
            "buffer" : 0,
            "byteLength" : 169080,
            "byteOffset" : 280872,
            "target" : 34962
        },
        {
            "buffer" : 0,
            "byteLength" : 169080,
            "byteOffset" : 449952,
            "target" : 34962
        },
        {
            "buffer" : 0,
            "byteLength" : 225440,
            "byteOffset" : 619032,
            "target" : 34962
        },
        {
            "buffer" : 0,
            "byteLength" : 112720,
            "byteOffset" : 844472,
            "target" : 34962
        }
    ],
    "buffers" : [
        {
            "byteLength" : 957192,
            "uri" : "tabureteTrendy.bin"
        }
    ],
    "images" : [
        {
            "name" : "plain-fabric-texture-red",
            "uri" : "plain-fabric-texture-red.jpg"
        }
    ],
    "materials" : [
        {
            "name" : "base",
            "pbrMetallicRoughness" : {
                "baseColorTexture" : {
                    "index" : 0
                },
                "metallicFactor" : 0.0
            }
        },
        {
            "name" : "cojinBotones",
            "pbrMetallicRoughness" : {
                "baseColorTexture" : {
                    "index" : 0
                },
                "metallicFactor" : 0.0
            }
        },
        {
            "name" : "patas",
            "pbrMetallicRoughness" : {
                "baseColorFactor" : [
                    0.1449902057647705,
                    0.06055896729230881,
                    0.0,
                    1.0
                ]
            }
        }
    ],
    "meshes" : [
        {
            "name" : "Cube",
            "primitives" : [
                {
                    "attributes" : {
                        "NORMAL" : 2,
                        "POSITION" : 1,
                        "TANGENT" : 3,
                        "TEXCOORD_0" : 4
                    },
                    "indices" : 0,
                    "material" : 0
                }
            ]
        },
        {
            "name" : "Cylinder.001",
            "primitives" : [
                {
                    "attributes" : {
                        "NORMAL" : 7,
                        "POSITION" : 6
                    },
                    "indices" : 5,
                    "material" : 2
                }
            ]
        },
        {
            "name" : "Cube.001",
            "primitives" : [
                {
                    "attributes" : {
                        "NORMAL" : 10,
                        "POSITION" : 9,
                        "TANGENT" : 11,
                        "TEXCOORD_0" : 12
                    },
                    "indices" : 8,
                    "material" : 1
                }
            ]
        }
    ],
    "nodes" : [
        {
            "mesh" : 0,
            "name" : "base",
            "translation" : [
                3.3029718906618655e-05,
                0.3392226994037628,
                -0.00036869023460894823
            ]
        },
        {
            "children" : [
                0,
                2,
                3,
                4,
                5,
                6
            ],
            "name" : "centro"
        },
        {
            "mesh" : 2,
            "name" : "cojinBotones",
            "translation" : [
                3.3029718906618655e-05,
                1.435859203338623,
                -0.00036869023460894823
            ]
        },
        {
            "name" : "derecha",
            "translation" : [
                0.0,
                0.0,
                -4.75
            ]
        },
        {
            "name" : "frente",
            "translation" : [
                4.75,
                0.0,
                -0.0
            ]
        },
        {
            "name" : "izquierda",
            "translation" : [
                0.0,
                0.0,
                4.75
            ]
        },
        {
            "mesh" : 1,
            "name" : "patas",
            "translation" : [
                -0.0023206027690321207,
                -1.2144984006881714,
                0.025904100388288498
            ]
        }
    ],
    "samplers" : [
        {}
    ],
    "scene" : 0,
    "scenes" : [
        {
            "name" : "Scene",
            "nodes" : [
                1
            ]
        }
    ],
    "textures" : [
        {
            "sampler" : 0,
            "source" : 0
        },
        {
            "sampler" : 0,
            "source" : 0
        }
    ]
}
