{
    "asset" : {
        "generator" : "Khronos Blender glTF 2.0 I/O",
        "version" : "2.0"
    },
    "scene" : 0,
    "scenes" : [
        {
            "name" : "Scene",
            "nodes" : [
                1
            ]
        }
    ],
    "nodes" : [
        {
            "mesh" : 0,
            "name" : "main"
        },
        {
            "children" : [
                0
            ],
            "name" : "centro"
        }
    ],
    "materials" : [
        {
            "name" : "main",
            "pbrMetallicRoughness" : {
                "baseColorTexture" : {
                    "index" : 0,
                    "texCoord" : 0
                },
                "metallicFactor" : 0,
                "roughnessFactor" : 0.7666666507720947
            }
        }
    ],
    "meshes" : [
        {
            "name" : "Cube.001",
            "primitives" : [
                {
                    "attributes" : {
                        "POSITION" : 0,
                        "NORMAL" : 1,
                        "TEXCOORD_0" : 2
                    },
                    "indices" : 3,
                    "material" : 0
                }
            ]
        }
    ],
    "textures" : [
        {
            "source" : 0
        }
    ],
    "images" : [
        {
            "mimeType" : "image/jpeg",
            "name" : "LONA NEGRO AZABACHE.jpg",
            "uri" : "LONA NEGRO AZABACHE.jpg"
        }
    ],
    "accessors" : [
        {
            "bufferView" : 0,
            "componentType" : 5126,
            "count" : 9295,
            "max" : [
                3.187926769256592,
                1.1712422370910645,
                1.3412845134735107
            ],
            "min" : [
                -3.1484522819519043,
                -1.0550434589385986,
                -1.5755624771118164
            ],
            "type" : "VEC3"
        },
        {
            "bufferView" : 1,
            "componentType" : 5126,
            "count" : 9295,
            "type" : "VEC3"
        },
        {
            "bufferView" : 2,
            "componentType" : 5126,
            "count" : 9295,
            "type" : "VEC2"
        },
        {
            "bufferView" : 3,
            "componentType" : 5123,
            "count" : 45696,
            "type" : "SCALAR"
        }
    ],
    "bufferViews" : [
        {
            "buffer" : 0,
            "byteLength" : 111540,
            "byteOffset" : 0
        },
        {
            "buffer" : 0,
            "byteLength" : 111540,
            "byteOffset" : 111540
        },
        {
            "buffer" : 0,
            "byteLength" : 74360,
            "byteOffset" : 223080
        },
        {
            "buffer" : 0,
            "byteLength" : 91392,
            "byteOffset" : 297440
        }
    ],
    "buffers" : [
        {
            "byteLength" : 388832,
            "uri" : "Taburete_conzumel.bin"
        }
    ]
}
