{
    "asset" : {
        "generator" : "Khronos Blender glTF 2.0 I/O",
        "version" : "2.0"
    },
    "scene" : 0,
    "scenes" : [
        {
            "name" : "Scene",
            "nodes" : [
                0,
                1,
                2
            ]
        }
    ],
    "nodes" : [
        {
            "name" : "Lamp",
            "rotation" : [
                0.16907575726509094,
                0.7558802962303162,
                -0.27217137813568115,
                0.570947527885437
            ],
            "translation" : [
                4.076245307922363,
                5.903861999511719,
                -1.0054539442062378
            ]
        },
        {
            "name" : "Camera",
            "rotation" : [
                0.483536034822464,
                0.33687159419059753,
                -0.20870360732078552,
                0.7804827094078064
            ],
            "translation" : [
                7.481131553649902,
                5.34366512298584,
                6.5076398849487305
            ]
        },
        {
            "mesh" : 0,
            "name" : "Cube.000",
            "scale" : [
                0.3171023428440094,
                0.3788069486618042,
                0.3171023428440094
            ],
            "translation" : [
                -0.10819780826568604,
                0.52394700050354,
                0.2575874328613281
            ]
        }
    ],
    "meshes" : [
        {
            "name" : "Cube.001",
            "primitives" : [
                {
                    "attributes" : {
                        "POSITION" : 0,
                        "NORMAL" : 1
                    },
                    "indices" : 2
                }
            ]
        }
    ],
    "accessors" : [
        {
            "bufferView" : 0,
            "componentType" : 5126,
            "count" : 478,
            "max" : [
                4.284851551055908,
                1.3035081624984741,
                1.8142104148864746
            ],
            "min" : [
                -4.232375621795654,
                -1.174187421798706,
                -2.1269619464874268
            ],
            "type" : "VEC3"
        },
        {
            "bufferView" : 1,
            "componentType" : 5126,
            "count" : 478,
            "type" : "VEC3"
        },
        {
            "bufferView" : 2,
            "componentType" : 5123,
            "count" : 2856,
            "type" : "SCALAR"
        }
    ],
    "bufferViews" : [
        {
            "buffer" : 0,
            "byteLength" : 5736,
            "byteOffset" : 0
        },
        {
            "buffer" : 0,
            "byteLength" : 5736,
            "byteOffset" : 5736
        },
        {
            "buffer" : 0,
            "byteLength" : 5712,
            "byteOffset" : 11472
        }
    ],
    "buffers" : [
        {
            "byteLength" : 17184,
            "uri" : "data:application/octet-stream;base64,"
        }
    ]
}
