{
    "accessors" : [
        {
            "bufferView" : 0,
            "componentType" : 5121,
            "count" : 456,
            "max" : [
                107
            ],
            "min" : [
                0
            ],
            "type" : "SCALAR"
        },
        {
            "bufferView" : 1,
            "componentType" : 5126,
            "count" : 108,
            "max" : [
                0.9806802868843079,
                0.2666923999786377,
                1.0000004768371582
            ],
            "min" : [
                -1.000000238418579,
                -0.266692191362381,
                -1.0000001192092896
            ],
            "type" : "VEC3"
        },
        {
            "bufferView" : 2,
            "componentType" : 5126,
            "count" : 108,
            "max" : [
                1.0,
                0.9712515473365784,
                1.0
            ],
            "min" : [
                -1.0,
                -1.0,
                -1.0
            ],
            "type" : "VEC3"
        },
        {
            "bufferView" : 3,
            "componentType" : 5126,
            "count" : 108,
            "max" : [
                1.3405556678771973,
                1.2432732582092285
            ],
            "min" : [
                -0.22996920347213745,
                -0.34017467498779297
            ],
            "type" : "VEC2"
        },
        {
            "bufferView" : 4,
            "componentType" : 5123,
            "count" : 2916,
            "max" : [
                1917
            ],
            "min" : [
                0
            ],
            "type" : "SCALAR"
        },
        {
            "bufferView" : 5,
            "componentType" : 5126,
            "count" : 1918,
            "max" : [
                1.0000003576278687,
                0.4666154086589813,
                1.0000003576278687
            ],
            "min" : [
                -1.000000238418579,
                -1.0,
                -1.0000003576278687
            ],
            "type" : "VEC3"
        },
        {
            "bufferView" : 6,
            "componentType" : 5126,
            "count" : 1918,
            "max" : [
                1.0,
                1.0,
                1.0
            ],
            "min" : [
                -1.0,
                -1.0,
                -1.0
            ],
            "type" : "VEC3"
        },
        {
            "bufferView" : 7,
            "componentType" : 5126,
            "count" : 1918,
            "max" : [
                1.0,
                4.646426987164887e-06,
                0.00034517081803642213,
                1.0
            ],
            "min" : [
                -1.0,
                -1.0,
                -1.0,
                1.0
            ],
            "type" : "VEC4"
        },
        {
            "bufferView" : 8,
            "componentType" : 5126,
            "count" : 1918,
            "max" : [
                1.5245239734649658,
                1.5252069234848022
            ],
            "min" : [
                -0.5249717831611633,
                -0.5252069234848022
            ],
            "type" : "VEC2"
        },
        {
            "bufferView" : 9,
            "componentType" : 5123,
            "count" : 1872,
            "max" : [
                1151
            ],
            "min" : [
                0
            ],
            "type" : "SCALAR"
        },
        {
            "bufferView" : 10,
            "componentType" : 5126,
            "count" : 1152,
            "max" : [
                31.016490936279297,
                1.2133817672729492,
                31.128480911254883
            ],
            "min" : [
                -31.0,
                -0.7866182327270508,
                -31.12845802307129
            ],
            "type" : "VEC3"
        },
        {
            "bufferView" : 11,
            "componentType" : 5126,
            "count" : 1152,
            "max" : [
                0.9692050218582153,
                1.0,
                0.9692047238349915
            ],
            "min" : [
                -0.9692045450210571,
                -1.0,
                -0.9692047238349915
            ],
            "type" : "VEC3"
        }
    ],
    "asset" : {
        "generator" : "Khronos Blender glTF 2.0 exporter",
        "version" : "2.0"
    },
    "bufferViews" : [
        {
            "buffer" : 0,
            "byteLength" : 456,
            "byteOffset" : 0,
            "target" : 34963
        },
        {
            "buffer" : 0,
            "byteLength" : 1296,
            "byteOffset" : 456,
            "target" : 34962
        },
        {
            "buffer" : 0,
            "byteLength" : 1296,
            "byteOffset" : 1752,
            "target" : 34962
        },
        {
            "buffer" : 0,
            "byteLength" : 864,
            "byteOffset" : 3048,
            "target" : 34962
        },
        {
            "buffer" : 0,
            "byteLength" : 5832,
            "byteOffset" : 3912,
            "target" : 34963
        },
        {
            "buffer" : 0,
            "byteLength" : 23016,
            "byteOffset" : 9744,
            "target" : 34962
        },
        {
            "buffer" : 0,
            "byteLength" : 23016,
            "byteOffset" : 32760,
            "target" : 34962
        },
        {
            "buffer" : 0,
            "byteLength" : 30688,
            "byteOffset" : 55776,
            "target" : 34962
        },
        {
            "buffer" : 0,
            "byteLength" : 15344,
            "byteOffset" : 86464,
            "target" : 34962
        },
        {
            "buffer" : 0,
            "byteLength" : 3744,
            "byteOffset" : 101808,
            "target" : 34963
        },
        {
            "buffer" : 0,
            "byteLength" : 13824,
            "byteOffset" : 105552,
            "target" : 34962
        },
        {
            "buffer" : 0,
            "byteLength" : 13824,
            "byteOffset" : 119376,
            "target" : 34962
        }
    ],
    "buffers" : [
        {
            "byteLength" : 133200,
            "uri" : "tabureteContempo.bin"
        }
    ],
    "images" : [
        {
            "name" : "curiGris",
            "uri" : "curiGris.jpg"
        }
    ],
    "materials" : [
        {
            "name" : "base",
            "pbrMetallicRoughness" : {
                "baseColorTexture" : {
                    "index" : 0
                },
                "metallicFactor" : 0.0
            }
        },
        {
            "alphaMode" : "BLEND",
            "name" : "cojin",
            "pbrMetallicRoughness" : {
                "baseColorTexture" : {
                    "index" : 0
                },
                "metallicFactor" : 0.0
            }
        },
        {
            "name" : "patas",
            "pbrMetallicRoughness" : {
                "baseColorFactor" : [
                    0.07041501253843307,
                    0.021410292014479637,
                    0.0006043447065167129,
                    1.0
                ],
                "metallicFactor" : 0.0
            }
        }
    ],
    "meshes" : [
        {
            "name" : "Cube.001",
            "primitives" : [
                {
                    "attributes" : {
                        "NORMAL" : 2,
                        "POSITION" : 1,
                        "TEXCOORD_0" : 3
                    },
                    "indices" : 0,
                    "material" : 1
                }
            ]
        },
        {
            "name" : "Cube",
            "primitives" : [
                {
                    "attributes" : {
                        "NORMAL" : 6,
                        "POSITION" : 5,
                        "TANGENT" : 7,
                        "TEXCOORD_0" : 8
                    },
                    "indices" : 4,
                    "material" : 0
                }
            ]
        },
        {
            "name" : "Cylinder.001",
            "primitives" : [
                {
                    "attributes" : {
                        "NORMAL" : 11,
                        "POSITION" : 10
                    },
                    "indices" : 9,
                    "material" : 2
                }
            ]
        }
    ],
    "nodes" : [
        {
            "mesh" : 0,
            "name" : "asiento",
            "scale" : [
                0.48329800367355347,
                0.34936293959617615,
                0.48329800367355347
            ],
            "translation" : [
                -5.2188248389484215e-08,
                0.2932514250278473,
                6.671487540188537e-08
            ]
        },
        {
            "mesh" : 1,
            "name" : "base",
            "scale" : [
                0.469999760389328,
                0.29636672139167786,
                0.469999760389328
            ],
            "translation" : [
                0.0,
                0.07411428540945053,
                -0.0
            ]
        },
        {
            "children" : [
                0,
                1,
                3,
                4,
                5,
                6
            ],
            "name" : "centro"
        },
        {
            "name" : "derecha",
            "translation" : [
                0.0,
                0.0,
                -0.949999988079071
            ]
        },
        {
            "name" : "frente",
            "translation" : [
                0.949999988079071,
                0.0,
                -0.0
            ]
        },
        {
            "name" : "izquierda",
            "translation" : [
                0.0,
                0.0,
                0.949999988079071
            ]
        },
        {
            "mesh" : 2,
            "name" : "patas",
            "scale" : [
                0.014494650065898895,
                0.017027929425239563,
                0.014494650065898895
            ],
            "translation" : [
                -0.0004509091377258301,
                -0.2384399175643921,
                0.005033344030380249
            ]
        }
    ],
    "samplers" : [
        {}
    ],
    "scene" : 0,
    "scenes" : [
        {
            "name" : "Scene",
            "nodes" : [
                2
            ]
        }
    ],
    "textures" : [
        {
            "sampler" : 0,
            "source" : 0
        },
        {
            "sampler" : 0,
            "source" : 0
        }
    ]
}
