{
    "accessors" : [
        {
            "bufferView" : 0,
            "componentType" : 5125,
            "count" : 1152000,
            "max" : [
                197631
            ],
            "min" : [
                0
            ],
            "type" : "SCALAR"
        },
        {
            "bufferView" : 1,
            "componentType" : 5126,
            "count" : 197632,
            "max" : [
                1.501105546951294,
                0.8250000476837158,
                1.5530509948730469
            ],
            "min" : [
                -1.5028791427612305,
                -0.8250021934509277,
                -1.5523977279663086
            ],
            "type" : "VEC3"
        },
        {
            "bufferView" : 2,
            "componentType" : 5126,
            "count" : 197632,
            "max" : [
                0.999969482421875,
                1.0,
                0.999969482421875
            ],
            "min" : [
                -0.999969482421875,
                -1.0,
                -0.999969482421875
            ],
            "type" : "VEC3"
        }
    ],
    "asset" : {
        "generator" : "Khronos Blender glTF 2.0 exporter",
        "version" : "2.0"
    },
    "bufferViews" : [
        {
            "buffer" : 0,
            "byteLength" : 4608000,
            "byteOffset" : 0,
            "target" : 34963
        },
        {
            "buffer" : 0,
            "byteLength" : 2371584,
            "byteOffset" : 4608000,
            "target" : 34962
        },
        {
            "buffer" : 0,
            "byteLength" : 2371584,
            "byteOffset" : 6979584,
            "target" : 34962
        }
    ],
    "buffers" : [
        {
            "byteLength" : 9351168,
            "uri" : "zacatecas_mediano.bin"
        }
    ],
    "images" : [
        {
            "name" : "LONA AMARILLO INTENSO",
            "uri" : "LONA AMARILLO INTENSO.jpg"
        }
    ],
    "materials" : [
        {
            "name" : "base",
            "pbrMetallicRoughness" : {
                "baseColorTexture" : {
                    "index" : 0
                },
                "metallicFactor" : 0.0
            }
        }
    ],
    "meshes" : [
        {
            "name" : "Cylinder.001",
            "primitives" : [
                {
                    "attributes" : {
                        "NORMAL" : 2,
                        "POSITION" : 1
                    },
                    "indices" : 0,
                    "material" : 0
                }
            ]
        }
    ],
    "nodes" : [
        {
            "mesh" : 0,
            "name" : "Cylinder",
            "rotation" : [
                -8.146033536604591e-08,
                0.0,
                -0.0,
                1.0
            ]
        }
    ],
    "samplers" : [
        {}
    ],
    "scene" : 0,
    "scenes" : [
        {
            "name" : "Scene",
            "nodes" : [
                0
            ]
        }
    ],
    "textures" : [
        {
            "sampler" : 0,
            "source" : 0
        }
    ]
}
