{
    "accessors" : [
        {
            "bufferView" : 0,
            "componentType" : 5123,
            "count" : 81024,
            "max" : [
                15091
            ],
            "min" : [
                0
            ],
            "type" : "SCALAR"
        },
        {
            "bufferView" : 1,
            "componentType" : 5126,
            "count" : 15092,
            "max" : [
                1.1250150203704834,
                0.9342156648635864,
                1.375
            ],
            "min" : [
                -1.125,
                -0.71578449010849,
                -1.3750011920928955
            ],
            "type" : "VEC3"
        },
        {
            "bufferView" : 2,
            "componentType" : 5126,
            "count" : 15092,
            "max" : [
                0.999969482421875,
                1.0,
                0.99993896484375
            ],
            "min" : [
                -0.999969482421875,
                -1.0,
                -0.99993896484375
            ],
            "type" : "VEC3"
        },
        {
            "bufferView" : 3,
            "componentType" : 5126,
            "count" : 15092,
            "max" : [
                1.0,
                1.0,
                0.647394597530365,
                1.0
            ],
            "min" : [
                -0.9999333024024963,
                -1.0,
                -1.0,
                -1.0
            ],
            "type" : "VEC4"
        },
        {
            "bufferView" : 4,
            "componentType" : 5126,
            "count" : 15092,
            "max" : [
                0.9999535083770752,
                0.999953469276079
            ],
            "min" : [
                4.653072392102331e-05,
                0.4388933777809143
            ],
            "type" : "VEC2"
        }
    ],
    "asset" : {
        "generator" : "Khronos Blender glTF 2.0 exporter",
        "version" : "2.0"
    },
    "bufferViews" : [
        {
            "buffer" : 0,
            "byteLength" : 162048,
            "byteOffset" : 0,
            "target" : 34963
        },
        {
            "buffer" : 0,
            "byteLength" : 181104,
            "byteOffset" : 162048,
            "target" : 34962
        },
        {
            "buffer" : 0,
            "byteLength" : 181104,
            "byteOffset" : 343152,
            "target" : 34962
        },
        {
            "buffer" : 0,
            "byteLength" : 241472,
            "byteOffset" : 524256,
            "target" : 34962
        },
        {
            "buffer" : 0,
            "byteLength" : 120736,
            "byteOffset" : 765728,
            "target" : 34962
        }
    ],
    "buffers" : [
        {
            "byteLength" : 886464,
            "uri" : "ZacatecasChico.bin"
        }
    ],
    "images" : [
        {
            "name" : "GAMUZA ROYAL BLUE",
            "uri" : "GAMUZA ROYAL BLUE.jpg"
        }
    ],
    "materials" : [
        {
            "name" : "base",
            "pbrMetallicRoughness" : {
                "baseColorTexture" : {
                    "index" : 0
                },
                "metallicFactor" : 0.0
            }
        }
    ],
    "meshes" : [
        {
            "name" : "Cylinder.000",
            "primitives" : [
                {
                    "attributes" : {
                        "NORMAL" : 2,
                        "POSITION" : 1,
                        "TANGENT" : 3,
                        "TEXCOORD_0" : 4
                    },
                    "indices" : 0,
                    "material" : 0
                }
            ]
        }
    ],
    "nodes" : [
        {
            "name" : "Camera",
            "rotation" : [
                0.3955497145652771,
                0.6044327020645142,
                -0.48567691445350647,
                0.49225956201553345
            ],
            "translation" : [
                8.671789169311523,
                2.5211923122406006,
                -0.5165159702301025
            ]
        },
        {
            "mesh" : 0,
            "name" : "Cylinder.002",
            "rotation" : [
                -7.993531880856608e-08,
                0.19259332120418549,
                1.5688717880379954e-08,
                0.9812787771224976
            ],
            "translation" : [
                0.00018952786922454834,
                0.21073409914970398,
                -0.033648788928985596
            ]
        },
        {
            "name" : "Spot",
            "rotation" : [
                -0.38278666138648987,
                0.0,
                -0.0,
                0.923836886882782
            ],
            "translation" : [
                0.28290581703186035,
                6.357662677764893,
                -7.215481758117676
            ]
        },
        {
            "name" : "Spot.001",
            "rotation" : [
                0.2447706162929535,
                0.0,
                -0.0,
                0.969581127166748
            ],
            "scale" : [
                1.0,
                0.9999999403953552,
                0.9999999403953552
            ],
            "translation" : [
                2.733163833618164,
                19.317052841186523,
                9.133617401123047
            ]
        }
    ],
    "samplers" : [
        {}
    ],
    "scene" : 0,
    "scenes" : [
        {
            "name" : "Scene",
            "nodes" : [
                1,
                3,
                0,
                2
            ]
        }
    ],
    "textures" : [
        {
            "sampler" : 0,
            "source" : 0
        }
    ]
}
